<?xml version="1.0" encoding="UTF-8" standalone="no"?>
<!DOCTYPE svg PUBLIC "-//W3C//DTD SVG 1.1//EN" "http://www.w3.org/Graphics/SVG/1.1/DTD/svg11.dtd">
<svg width="100%" height="100%" viewBox="0 0 24 24" version="1.1" xmlns="http://www.w3.org/2000/svg" xmlns:xlink="http://www.w3.org/1999/xlink" xml:space="preserve" xmlns:serif="http://www.serif.com/" style="fill-rule:evenodd;clip-rule:evenodd;stroke-linejoin:round;stroke-miterlimit:2;">
    <g transform="matrix(1,0,0,1,-2,0)">
        <g transform="matrix(1,0,0,1,2,0)">
            <path d="M23.5,17L18.5,22L15,18.5L16.5,17L18.5,19L22,15.5L23.5,17Z"/>
        </g>
        <g transform="matrix(1,0,0,1,2,0)">
            <path d="M6,2C4.89,2 4,2.9 4,4L4,20C4,21.11 4.89,22 6,22L13.81,22C13.45,21.38 13.2,20.7 13.08,20L6,20L6,4L13,4L13,9L18,9L18,13.08C18.33,13.03 18.67,13 19,13C19.34,13 19.67,13.03 20,13.08L20,8L14,2L6,2Z"/>
        </g>
        <g transform="matrix(0.49832,0,0,0.52048,5.76501,6.26596)">
            <path d="M11,15L6,15L13,1L13,9L18,9L11,23L11,15Z" style="fill-rule:nonzero;"/>
        </g>
    </g>
</svg>
