<svg xmlns="http://www.w3.org/2000/svg" viewBox="0 0 250 60" height="60mm" width="250mm"><g fill="#f90"><path d="M48.411 26.259a3.14 3.14 0 0 1-3.14 3.14 3.14 3.14 0 0 1-3.14-3.14 3.14 3.14 0 0 1 3.14-3.14 3.14 3.14 0 0 1 3.14 3.14z"/><path d="M42.531 27.305a3.14 3.14 0 0 1-3.14 3.14 3.14 3.14 0 0 1-3.14-3.14 3.14 3.14 0 0 1 3.14-3.14 3.14 3.14 0 0 1 3.14 3.14zm-10.223 5.589a3.14 3.14 0 0 1-3.14 3.14 3.14 3.14 0 0 1-3.14-3.14 3.14 3.14 0 0 1 3.14-3.14 3.14 3.14 0 0 1 3.14 3.14z"/><path d="M38.255 31.55a3.14 3.14 0 0 1-3.14 3.141 3.14 3.14 0 0 1-3.141-3.14 3.14 3.14 0 0 1 3.14-3.14 3.14 3.14 0 0 1 3.14 3.14z"/></g><path d="M33.855 41.817a.265.265 0 0 1 0 .374l-2.587 2.587a.265.265 0 0 1-.374 0l-4.984-4.984a.735.735 0 0 1-.187-.452V36.91c0-.146.119-.265.264-.265h2.432c.146 0 .35.084.452.187zm-7.267-4.307a.497.497 0 0 0 .701.702.497.497 0 0 0-.701-.702z" opacity=".75" fill="#c00"/><g style="line-height:1.25;-inkscape-font-specification:'sans-serif, Normal';font-variant-ligatures:normal;font-variant-caps:normal;font-variant-numeric:normal;font-feature-settings:normal;text-align:start"><path style="-inkscape-font-specification:'sans-serif, Normal';font-variant-ligatures:normal;font-variant-caps:normal;font-variant-numeric:normal;font-feature-settings:normal;text-align:start" d="M31.225 43.767l.643-.643-2.22-2.22-.559.84-.358-.358.555-.836.394-.394 2.578 2.578.643-.643.332.332-1.676 1.676z" aria-label="1" font-weight="400" font-size="5.644" font-family="sans-serif" letter-spacing="0" word-spacing="0"/></g><path d="M40.742 41.817a.265.265 0 0 1 0 .374l-2.587 2.587a.265.265 0 0 1-.374 0l-4.984-4.984a.735.735 0 0 1-.187-.452V36.91c0-.146.119-.265.264-.265h2.432c.146 0 .35.084.452.187zm-7.267-4.307a.497.497 0 0 0 .701.702.497.497 0 0 0-.701-.702z" opacity=".75" fill="#f60"/><g style="line-height:1.25;-inkscape-font-specification:'sans-serif, Normal';font-variant-ligatures:normal;font-variant-caps:normal;font-variant-numeric:normal;font-feature-settings:normal;text-align:start"><path style="-inkscape-font-specification:'sans-serif, Normal';font-variant-ligatures:normal;font-variant-caps:normal;font-variant-numeric:normal;font-feature-settings:normal;text-align:start" d="M38.414 43.35l1.374-1.374.332.332-1.848 1.847-.331-.331q-.008-.456-.012-1.232-.004-.78-.017-.992-.024-.401-.096-.621-.072-.225-.214-.367-.232-.232-.542-.214-.308.015-.57.277-.184.185-.327.456-.14.269-.243.633l-.398-.398q.142-.333.3-.588.158-.255.33-.427.452-.452.947-.495.495-.043.873.335.18.18.273.41.093.226.134.621.008.105.018.637.008.53.017 1.491z" aria-label="2" font-weight="400" font-size="5.644" font-family="sans-serif" letter-spacing="0" word-spacing="0"/></g><path d="M47.63 41.817a.265.265 0 0 1 0 .374l-2.588 2.587a.265.265 0 0 1-.374 0l-4.984-4.984a.735.735 0 0 1-.187-.452V36.91c0-.146.119-.265.264-.265h2.433c.145 0 .348.084.451.187zm-7.268-4.307a.497.497 0 0 0 .702.702.497.497 0 0 0-.702-.702z" opacity=".75" fill="#69f"/><g style="line-height:1.25;-inkscape-font-specification:'sans-serif, Normal';font-variant-ligatures:normal;font-variant-caps:normal;font-variant-numeric:normal;font-feature-settings:normal;text-align:start"><path style="-inkscape-font-specification:'sans-serif, Normal';font-variant-ligatures:normal;font-variant-caps:normal;font-variant-numeric:normal;font-feature-settings:normal;text-align:start" d="M44.781 41.214q.343-.222.692-.189.35.032.631.312.431.43.37.963-.06.532-.606 1.078-.183.183-.415.34-.228.158-.506.293l-.38-.38q.259-.068.502-.214.244-.147.456-.359.37-.37.417-.71.05-.34-.23-.62-.257-.256-.582-.22-.326.034-.647.355l-.34.34-.323-.324.355-.355q.29-.29.33-.56.036-.27-.182-.488-.224-.224-.503-.183-.278.037-.575.333-.161.162-.312.382-.15.22-.298.516l-.35-.35q.161-.287.325-.513.166-.228.34-.402.447-.448.913-.504.464-.059.81.288.242.242.272.548.027.304-.164.623z" aria-label="3" font-weight="400" font-size="5.644" font-family="sans-serif" letter-spacing="0" word-spacing="0"/></g><g fill="#f90"><path d="M222.124 27.128a3.14 3.14 0 0 1-3.14 3.14 3.14 3.14 0 0 1-3.14-3.14 3.14 3.14 0 0 1 3.14-3.14 3.14 3.14 0 0 1 3.14 3.14z"/><path d="M216.244 28.174a3.14 3.14 0 0 1-3.14 3.14 3.14 3.14 0 0 1-3.14-3.14 3.14 3.14 0 0 1 3.14-3.14 3.14 3.14 0 0 1 3.14 3.14zm-10.223 5.589a3.14 3.14 0 0 1-3.14 3.14 3.14 3.14 0 0 1-3.14-3.14 3.14 3.14 0 0 1 3.14-3.14 3.14 3.14 0 0 1 3.14 3.14z"/><path d="M211.968 32.42a3.14 3.14 0 0 1-3.14 3.14 3.14 3.14 0 0 1-3.14-3.14 3.14 3.14 0 0 1 3.14-3.14 3.14 3.14 0 0 1 3.14 3.14z"/></g><path d="M227.527 41.817a.265.265 0 0 1 0 .374l-2.587 2.587a.265.265 0 0 1-.374 0l-4.985-4.984a.735.735 0 0 1-.187-.452V36.91c0-.146.12-.265.265-.265h2.432c.146 0 .349.084.452.187zm-7.267-4.307a.497.497 0 0 0 .701.702.497.497 0 0 0-.701-.702z" opacity=".75" fill="gray"/><g style="line-height:1.25;-inkscape-font-specification:'sans-serif, Normal';font-variant-ligatures:normal;font-variant-caps:normal;font-variant-numeric:normal;font-feature-settings:normal;text-align:start"><path style="-inkscape-font-specification:'sans-serif, Normal';font-variant-ligatures:normal;font-variant-caps:normal;font-variant-numeric:normal;font-feature-settings:normal;text-align:start" d="M224.266 41.448q-.265.265-.24.602.027.336.343.651.314.314.65.343.338.026.603-.24.265-.264.238-.6-.028-.339-.341-.652-.316-.316-.653-.342-.335-.027-.6.238zm-.453-2.015l.359.359q-.218.078-.407.193-.187.113-.335.26-.39.39-.334.86.059.468.562 1.03-.055-.285.029-.548.082-.265.29-.474.439-.438.959-.425.52.01.978.468.449.448.454.984.006.536-.434.976-.505.505-1.158.386-.655-.12-1.39-.855-.69-.69-.771-1.427-.084-.738.468-1.29.148-.148.327-.269.181-.123.403-.228z" aria-label="6" font-weight="400" font-size="5.644" font-family="sans-serif" letter-spacing="0" word-spacing="0"/></g><path d="M220.64 41.817a.265.265 0 0 1 0 .374l-2.587 2.587a.265.265 0 0 1-.374 0l-4.985-4.984a.735.735 0 0 1-.187-.452V36.91c0-.146.12-.265.265-.265h2.432c.146 0 .349.084.452.187zm-7.267-4.307a.497.497 0 0 0 .701.702.497.497 0 0 0-.701-.702z" opacity=".75" fill="#9c3"/><g style="line-height:1.25;-inkscape-font-specification:'sans-serif, Normal';font-variant-ligatures:normal;font-variant-caps:normal;font-variant-numeric:normal;font-feature-settings:normal;text-align:start"><path style="-inkscape-font-specification:'sans-serif, Normal';font-variant-ligatures:normal;font-variant-caps:normal;font-variant-numeric:normal;font-feature-settings:normal;text-align:start" d="M215.291 41.066l1.546-1.545.331.331-1.185 1.185.713.713q.057-.115.13-.214.07-.101.155-.187.487-.487 1.039-.505.551-.017 1.007.439.47.47.439 1.023-.033.551-.565 1.083-.184.183-.406.343-.22.158-.485.298l-.396-.395q.271-.08.505-.22.234-.14.442-.35.338-.336.357-.71.02-.375-.284-.679-.304-.304-.679-.284-.374.02-.711.356-.158.158-.28.351-.121.191-.211.429z" aria-label="5" font-weight="400" font-size="5.644" font-family="sans-serif" letter-spacing="0" word-spacing="0"/></g><path d="M213.753 41.817a.265.265 0 0 1 0 .374l-2.587 2.587a.265.265 0 0 1-.374 0l-4.985-4.984a.735.735 0 0 1-.187-.452V36.91c0-.146.12-.265.265-.265h2.432c.146 0 .349.084.452.187zm-7.268-4.307a.497.497 0 0 0 .702.702.497.497 0 0 0-.702-.702z" opacity=".75" fill="#f60"/><g style="line-height:1.25;-inkscape-font-specification:'sans-serif, Normal';font-variant-ligatures:normal;font-variant-caps:normal;font-variant-numeric:normal;font-feature-settings:normal;text-align:start"><path style="-inkscape-font-specification:'sans-serif, Normal';font-variant-ligatures:normal;font-variant-caps:normal;font-variant-numeric:normal;font-feature-settings:normal;text-align:start" d="M211.425 43.35l1.374-1.374.331.332-1.847 1.847-.332-.331q-.007-.456-.011-1.232-.004-.78-.018-.992-.023-.401-.095-.621-.072-.225-.215-.367-.232-.232-.541-.214-.308.015-.57.277-.185.185-.327.456-.14.269-.244.633l-.397-.398q.142-.333.3-.588.158-.255.33-.427.452-.452.947-.495.495-.043.873.335.179.18.272.41.094.226.135.621.008.105.017.637.008.53.018 1.491z" aria-label="2" font-weight="400" font-size="5.644" font-family="sans-serif" letter-spacing="0" word-spacing="0"/></g><g fill="#f90"><path d="M133.524 26.712a3.14 3.14 0 0 1-3.14 3.14 3.14 3.14 0 0 1-3.14-3.14 3.14 3.14 0 0 1 3.14-3.14 3.14 3.14 0 0 1 3.14 3.14z"/><path d="M127.644 27.758a3.14 3.14 0 0 1-3.14 3.14 3.14 3.14 0 0 1-3.14-3.14 3.14 3.14 0 0 1 3.14-3.14 3.14 3.14 0 0 1 3.14 3.14zm-10.223 5.589a3.14 3.14 0 0 1-3.14 3.14 3.14 3.14 0 0 1-3.14-3.14 3.14 3.14 0 0 1 3.14-3.14 3.14 3.14 0 0 1 3.14 3.14z"/><path d="M123.368 32.004a3.14 3.14 0 0 1-3.14 3.14 3.14 3.14 0 0 1-3.14-3.14 3.14 3.14 0 0 1 3.14-3.14 3.14 3.14 0 0 1 3.14 3.14z"/></g><path d="M132.538 37.51a.265.265 0 0 1 0 .375l-2.587 2.587a.265.265 0 0 1-.374 0l-4.984-4.984a.735.735 0 0 1-.187-.452v-2.432c0-.146.119-.265.264-.265h2.432c.146 0 .35.084.452.187zm-7.267-4.306a.497.497 0 0 0 .701.702.497.497 0 0 0-.701-.702z" opacity=".75" fill="#f60"/><g style="line-height:1.25;-inkscape-font-specification:'sans-serif, Normal';font-variant-ligatures:normal;font-variant-caps:normal;font-variant-numeric:normal;font-feature-settings:normal;text-align:start"><path style="-inkscape-font-specification:'sans-serif, Normal';font-variant-ligatures:normal;font-variant-caps:normal;font-variant-numeric:normal;font-feature-settings:normal;text-align:start" d="M130.21 39.044l1.374-1.374.332.332-1.848 1.847-.331-.331q-.008-.456-.012-1.232-.004-.78-.018-.992-.023-.401-.095-.622-.072-.224-.214-.366-.232-.232-.542-.214-.308.015-.57.276-.184.186-.327.456-.14.27-.243.634l-.398-.398q.142-.333.3-.588.158-.256.33-.427.452-.452.947-.495.495-.043.873.335.18.18.273.41.093.225.134.621.008.105.018.637.008.53.017 1.491z" aria-label="2" font-weight="400" font-size="5.644" font-family="sans-serif" letter-spacing="0" word-spacing="0"/></g><path d="M139.425 37.51a.265.265 0 0 1 0 .375l-2.587 2.587a.265.265 0 0 1-.374 0l-4.984-4.984a.735.735 0 0 1-.187-.452v-2.432c0-.146.119-.265.264-.265h2.432c.146 0 .35.084.452.187zm-7.267-4.306a.497.497 0 0 0 .701.702.497.497 0 0 0-.701-.702z" opacity=".75" fill="#69f"/><g style="line-height:1.25;-inkscape-font-specification:'sans-serif, Normal';font-variant-ligatures:normal;font-variant-caps:normal;font-variant-numeric:normal;font-feature-settings:normal;text-align:start"><path style="-inkscape-font-specification:'sans-serif, Normal';font-variant-ligatures:normal;font-variant-caps:normal;font-variant-numeric:normal;font-feature-settings:normal;text-align:start" d="M136.577 36.908q.343-.222.692-.189.35.031.631.312.43.43.37.963-.06.532-.606 1.078-.183.183-.415.34-.228.158-.506.293l-.38-.38q.259-.068.502-.215.244-.146.456-.358.37-.37.417-.71.05-.34-.23-.62-.257-.256-.582-.22-.326.034-.647.355l-.34.34-.323-.324.355-.355q.29-.29.33-.56.036-.27-.182-.488-.224-.224-.503-.184-.279.037-.575.334-.161.161-.312.382-.15.22-.298.516l-.35-.35q.161-.287.325-.513.166-.228.339-.402.448-.448.914-.504.464-.059.81.288.242.242.272.548.027.304-.164.623z" aria-label="3" font-weight="400" font-size="5.644" font-family="sans-serif" letter-spacing="0" word-spacing="0"/></g><path d="M83.333.533V60zM166.667 0v60z" fill="none" stroke="#000" stroke-linecap="round" stroke-linejoin="round" stroke-dasharray="1.00000003,2.00000006" stroke-dashoffset="2.3"/></svg>
