<svg width="198.8" height="57.128" viewBox="0 0 99.401 28.564" xmlns="http://www.w3.org/2000/svg" xmlns:xlink="http://www.w3.org/1999/xlink"><defs><symbol id="a" overflow="visible"><path d="M12.625 13.953l1.203-3.188h-.25c-.39 1.032-1.453 1.72-2.594 2.016-.203.047-1.187.313-3.094.313H1.875L6.953 7.14c.062-.078.078-.109.078-.156 0-.031 0-.062-.062-.156L2.328.484h5.453c1.344 0 2.25.14 2.344.156.531.079 1.406.25 2.187.75.25.157.922.61 1.266 1.407h.25L12.625 0H.844C.61 0 .594.015.563.062v.344l5.265 7.203-5.156 6.063c-.11.109-.11.171-.11.171 0 .11.094.11.282.11z"/></symbol><symbol id="b" overflow="visible"><path d="M3-2.625c-.172.047-.297.188-.297.328 0 .172.14.235.235.235.078 0 .343-.047.343-.407 0-.453-.5-.61-.937-.61-1.078 0-1.281.813-1.281 1.016 0 .266.156.438.25.516.171.14.296.172.78.25.157.031.595.11.595.453 0 .125-.079.39-.36.563-.281.156-.625.156-.703.156-.281 0-.672-.063-.844-.297.235-.031.39-.203.39-.39 0-.172-.124-.266-.265-.266C.703-1.078.5-.906.5-.61c0 .421.438.671 1.11.671 1.296 0 1.53-.875 1.53-1.14 0-.64-.702-.766-.968-.813-.063-.015-.234-.047-.281-.062-.25-.047-.375-.188-.375-.344s.125-.344.28-.453c.188-.11.423-.125.548-.125.14 0 .5.016.656.25z"/></symbol><symbol id="d" overflow="visible"><path d="M4.953-4.813c0-.03-.031-.093-.094-.093-.047 0-.047.015-.14.11l-.344.39c-.266-.375-.703-.5-1.125-.5-.984 0-1.86.797-1.86 1.61 0 .093.032.374.235.64.234.265.5.328.969.453.14.031.484.11.593.14.22.047.641.204.641.72 0 .562-.594 1.234-1.375 1.234-.625 0-1.36-.22-1.36-.985 0-.078.016-.234.048-.36v-.03c0-.094-.079-.094-.11-.094-.094 0-.11.016-.125.14L.546-.046c-.015.031-.03.063-.03.11 0 .03.03.078.109.078.031 0 .047-.016.14-.094.079-.094.25-.313.329-.39C1.469.062 2 .14 2.422.14c1.062 0 1.906-.907 1.906-1.735 0-.297-.125-.578-.281-.734-.235-.25-.344-.281-1.25-.5-.14-.031-.375-.078-.438-.11-.172-.062-.469-.234-.469-.625 0-.562.625-1.109 1.344-1.109.766 0 1.125.422 1.125 1.078 0 .094-.031.25-.031.313 0 .11.078.11.125.11.094 0 .11-.048.125-.157z"/></symbol><symbol id="c" overflow="visible"><path d="M4.328-1.578c.11 0 .281 0 .281-.156 0-.188-.156-.188-.28-.188H1.093c.11-1 .953-1.75 2.047-1.75h1.187c.11 0 .281 0 .281-.172s-.156-.172-.28-.172h-1.22C1.812-4.016.75-3 .75-1.75.75-.469 1.829.531 3.11.531h1.22c.108 0 .28 0 .28-.172S4.453.187 4.33.187H3.14c-1.094 0-1.938-.75-2.047-1.765z"/></symbol><symbol id="e" overflow="visible"><path d="M2.266-3.156h1.687c1.188 0 2.266-.797 2.266-1.797 0-.984-.985-1.86-2.344-1.86H.344v.313h.25c.765 0 .781.11.781.469v5.25c0 .36-.016.469-.781.469h-.25V0c.36-.031 1.094-.031 1.469-.031s1.125 0 1.484.031v-.313h-.25c-.766 0-.781-.109-.781-.468zm-.032-.25v-2.688c0-.343.016-.406.485-.406h.89c1.578 0 1.578 1.063 1.578 1.547 0 .469 0 1.547-1.578 1.547z"/></symbol><symbol id="f" overflow="visible"><path d="M1.672-3.313v-1.093l-1.39.11v.312c.702 0 .78.062.78.562V-.75c0 .437-.109.437-.78.437V0c.39-.016.859-.031 1.14-.031.39 0 .86 0 1.266.031v-.313h-.22c-.734 0-.75-.109-.75-.468v-1.531c0-.985.423-1.875 1.173-1.875.062 0 .093 0 .109.015-.031 0-.234.125-.234.39s.218.423.437.423c.172 0 .422-.125.422-.438s-.312-.61-.734-.61c-.735 0-1.094.673-1.22 1.095z"/></symbol><symbol id="g" overflow="visible"><path d="M3.297 2.39c0-.03 0-.046-.172-.218C1.891.922 1.563-.968 1.563-2.5c0-1.734.375-3.469 1.609-4.703.125-.125.125-.14.125-.172 0-.078-.031-.11-.094-.11-.11 0-1 .688-1.594 1.954-.5 1.093-.625 2.203-.625 3.03 0 .782.11 1.985.657 3.126C2.25 1.844 3.094 2.5 3.203 2.5c.063 0 .094-.031.094-.11z"/></symbol><symbol id="o" overflow="visible"><path d="M2.875-2.5c0-.766-.11-1.969-.656-3.11C1.625-6.827.766-7.483.672-7.483a.107.107 0 0 0-.11.109c0 .031 0 .047.188.234.984.985 1.547 2.563 1.547 4.641 0 1.719-.36 3.469-1.594 4.719-.14.125-.14.14-.14.172 0 .062.046.109.109.109.094 0 1-.687 1.578-1.953.516-1.094.625-2.203.625-3.047z"/></symbol><symbol id="h" overflow="visible"><path d="M3.656-.313C3.875-.016 4.344 0 4.72 0c.28 0 .5 0 .5-.313 0-.296-.25-.296-.39-.296-.423 0-.517-.047-.595-.079v-2.156c0-.703-.547-1.547-1.984-1.547-.422 0-1.438 0-1.438.735 0 .297.204.453.438.453.156 0 .437-.094.437-.453 0-.078.016-.094.22-.11.14-.015.265-.015.359-.015.75 0 1.265.312 1.265 1.015-1.75.032-2.984.532-2.984 1.485 0 .687.625 1.344 1.64 1.344.375 0 1-.079 1.47-.375zm-.125-1.859v.844c0 .219 0 .437-.375.61-.36.171-.812.171-.89.171-.625 0-1.032-.344-1.032-.734 0-.485.86-.86 2.297-.89z"/></symbol><symbol id="i" overflow="visible"><path d="M1.656-3.828c0-.313 0-.469-.406-.469H.53c-.156 0-.406 0-.406.313 0 .297.25.297.39.297H.97V-.61H.53c-.156 0-.406 0-.406.312 0 .297.25.297.39.297H2.11C2.25 0 2.5 0 2.5-.297c0-.312-.25-.312-.406-.312h-.438v-1.766c0-1 .735-1.375 1.25-1.375s.656.281.656.875v2.266h-.375c-.171 0-.421 0-.421.312 0 .297.28.297.421.297h1.516c.14 0 .406 0 .406-.297 0-.312-.25-.312-.422-.312H4.25v-2.313c0-1-.5-1.437-1.297-1.437-.656 0-1.11.343-1.297.53z"/></symbol><symbol id="j" overflow="visible"><path d="M4.656-2.156c0-1.25-.922-2.235-2.047-2.235-1.11 0-2.047.985-2.047 2.235C.562-.891 1.516.063 2.61.063s2.047-.954 2.047-2.22zM2.61-.546c-.734 0-1.36-.75-1.36-1.673 0-.906.657-1.562 1.36-1.562.72 0 1.36.656 1.36 1.562 0 .922-.625 1.672-1.36 1.672z"/></symbol><symbol id="k" overflow="visible"><path d="M2.219-3.688h1.625c.156 0 .406 0 .406-.296 0-.313-.25-.313-.406-.313H2.219v-.812c0-.188 0-.407-.344-.407s-.344.203-.344.407v.812H.656c-.156 0-.406 0-.406.313 0 .297.25.297.39.297h.891v2.437c0 .953.672 1.313 1.406 1.313S4.47-.376 4.47-1.25c0-.188 0-.39-.344-.39-.328 0-.344.202-.344.374 0 .625-.578.72-.797.72-.765 0-.765-.516-.765-.766z"/></symbol><symbol id="l" overflow="visible"><path d="M3.078-3.89c0-.313-.062-.407-.39-.407H1.265c-.157 0-.407 0-.407.297 0 .313.25.313.407.313H2.39V-.61H1.187c-.156 0-.406 0-.406.312 0 .297.25.297.406.297h2.938c.156 0 .406 0 .406-.297 0-.312-.25-.312-.406-.312H3.078zm0-1.72c0-.265-.219-.484-.5-.484s-.5.219-.5.485c0 .28.219.5.5.5s.5-.22.5-.5z"/></symbol><symbol id="m" overflow="visible"><path d="M1.578-7.125c0-.172 0-.36-.187-.36-.204 0-.204.188-.204.36v9.266c0 .171 0 .359.204.359.187 0 .187-.188.187-.36z"/></symbol><symbol id="n" overflow="visible"><path d="M3.89-3.734c-.265.015-.468.234-.468.453 0 .14.094.297.312.297s.453-.172.453-.563c0-.453-.421-.86-1.187-.86-1.313 0-1.688 1.016-1.688 1.454 0 .781.735.922 1.032.984.515.11 1.03.219 1.03.766 0 .25-.218 1.094-1.421 1.094-.14 0-.906 0-1.14-.532.39.047.64-.25.64-.53 0-.22-.172-.345-.375-.345-.266 0-.563.203-.563.657 0 .562.579.968 1.422.968 1.625 0 2.016-1.203 2.016-1.656a.97.97 0 0 0-.313-.719c-.265-.28-.562-.343-1-.421-.359-.079-.75-.157-.75-.61 0-.281.235-.89 1.11-.89.25 0 .75.078.89.453z"/></symbol></defs><g transform="translate(2.326 3.074)"><use x=".516" y=".259" width="100%" height="100%" xlink:href="#a"/><use x=".507" y="21.625" width="100%" height="100%" xlink:href="#b"/><use x="4.269" y="21.625" width="100%" height="100%" xlink:href="#c"/><use x="9.642" y="21.625" width="100%" height="100%" xlink:href="#d"/><use x="16.572" y="9.718" width="100%" height="100%" xlink:href="#e"/><use x="23.349" y="9.718" width="100%" height="100%" xlink:href="#f"/><use x="27.255" y="9.718" width="100%" height="100%" xlink:href="#g"/><use x="31.125" y="9.718" width="100%" height="100%" xlink:href="#h"/><use x="36.354" y="9.718" width="100%" height="100%" xlink:href="#i"/><use x="41.583" y="9.718" width="100%" height="100%" xlink:href="#i"/><use x="46.812" y="9.718" width="100%" height="100%" xlink:href="#j"/><use x="52.041" y="9.718" width="100%" height="100%" xlink:href="#k"/><use x="57.27" y="9.718" width="100%" height="100%" xlink:href="#h"/><use x="62.499" y="9.718" width="100%" height="100%" xlink:href="#k"/><use x="67.728" y="9.718" width="100%" height="100%" xlink:href="#l"/><use x="72.957" y="9.718" width="100%" height="100%" xlink:href="#j"/><use x="78.186" y="9.718" width="100%" height="100%" xlink:href="#i"/><use x="83.433" y="9.718" width="100%" height="100%" xlink:href="#m"/><use x="86.196" y="9.718" width="100%" height="100%" xlink:href="#n"/><use x="90.867" y="9.718" width="100%" height="100%" xlink:href="#o"/></g></svg>