<svg xmlns="http://www.w3.org/2000/svg" viewBox="0 0 250 60" height="60mm" width="250mm"><g fill="#f90"><path d="M8.9 9.587a3.14 3.14 0 0 1-3.14 3.14 3.14 3.14 0 0 1-3.141-3.14 3.14 3.14 0 0 1 3.14-3.14 3.14 3.14 0 0 1 3.14 3.14z"/><path d="M14.58 6.982a3.14 3.14 0 0 1-3.141 3.14 3.14 3.14 0 0 1-3.14-3.14 3.14 3.14 0 0 1 3.14-3.14 3.14 3.14 0 0 1 3.14 3.14z"/><path d="M20.46 9.187a3.14 3.14 0 0 1-3.141 3.14 3.14 3.14 0 0 1-3.14-3.14 3.14 3.14 0 0 1 3.14-3.14 3.14 3.14 0 0 1 3.14 3.14z"/><path d="M25.47 5.578a3.14 3.14 0 0 1-3.14 3.14 3.14 3.14 0 0 1-3.14-3.14 3.14 3.14 0 0 1 3.14-3.14 3.14 3.14 0 0 1 3.14 3.14z"/><path d="M31.55 6.514a3.14 3.14 0 0 1-3.14 3.14 3.14 3.14 0 0 1-3.14-3.14 3.14 3.14 0 0 1 3.14-3.14 3.14 3.14 0 0 1 3.14 3.14z"/></g><g fill="#f90"><path d="M55.548 8.593a3.14 3.14 0 0 1-3.14 3.14 3.14 3.14 0 0 1-3.141-3.14 3.14 3.14 0 0 1 3.14-3.14 3.14 3.14 0 0 1 3.14 3.14z"/><path d="M61.334 6.807a3.14 3.14 0 0 1-3.14 3.14 3.14 3.14 0 0 1-3.14-3.14 3.14 3.14 0 0 1 3.14-3.14 3.14 3.14 0 0 1 3.14 3.14zm7.361 3.518a3.14 3.14 0 0 1-3.14 3.14 3.14 3.14 0 0 1-3.14-3.14 3.14 3.14 0 0 1 3.14-3.14 3.14 3.14 0 0 1 3.14 3.14z"/><path d="M66.9 4.445a3.14 3.14 0 0 1-3.14 3.14 3.14 3.14 0 0 1-3.141-3.14 3.14 3.14 0 0 1 3.14-3.14 3.14 3.14 0 0 1 3.14 3.14z"/></g><g fill="#f90"><path d="M75.488 36.326a3.14 3.14 0 0 1-3.14 3.14 3.14 3.14 0 0 1-3.141-3.14 3.14 3.14 0 0 1 3.14-3.14 3.14 3.14 0 0 1 3.14 3.14z"/><path d="M69.608 37.372a3.14 3.14 0 0 1-3.14 3.14 3.14 3.14 0 0 1-3.141-3.14 3.14 3.14 0 0 1 3.14-3.14 3.14 3.14 0 0 1 3.14 3.14zm-10.223 5.589a3.14 3.14 0 0 1-3.14 3.14 3.14 3.14 0 0 1-3.141-3.14 3.14 3.14 0 0 1 3.14-3.14 3.14 3.14 0 0 1 3.14 3.14z"/><path d="M65.332 41.618a3.14 3.14 0 0 1-3.14 3.14 3.14 3.14 0 0 1-3.141-3.14 3.14 3.14 0 0 1 3.14-3.14 3.14 3.14 0 0 1 3.14 3.14z"/></g><g fill="#f90"><path d="M8.024 36.548a3.14 3.14 0 0 1-3.14 3.14 3.14 3.14 0 0 1-3.14-3.14 3.14 3.14 0 0 1 3.14-3.14 3.14 3.14 0 0 1 3.14 3.14z"/><path d="M14.105 37.483a3.14 3.14 0 0 1-3.14 3.14 3.14 3.14 0 0 1-3.141-3.14 3.14 3.14 0 0 1 3.14-3.14 3.14 3.14 0 0 1 3.14 3.14z"/><path d="M20.118 35.88a3.14 3.14 0 0 1-3.14 3.14 3.14 3.14 0 0 1-3.14-3.14 3.14 3.14 0 0 1 3.14-3.14 3.14 3.14 0 0 1 3.14 3.14z"/><path d="M24.394 40.423a3.14 3.14 0 0 1-3.14 3.14 3.14 3.14 0 0 1-3.14-3.14 3.14 3.14 0 0 1 3.14-3.14 3.14 3.14 0 0 1 3.14 3.14z"/><path d="M30.336 40.566a3.14 3.14 0 0 1-3.14 3.14 3.14 3.14 0 0 1-3.14-3.14 3.14 3.14 0 0 1 3.14-3.14 3.14 3.14 0 0 1 3.14 3.14z"/><path d="M36.123 38.78a3.14 3.14 0 0 1-3.14 3.14 3.14 3.14 0 0 1-3.141-3.14 3.14 3.14 0 0 1 3.14-3.14 3.14 3.14 0 0 1 3.14 3.14z"/></g><g fill="#f90"><path d="M102.37 7.393a3.14 3.14 0 0 1-3.14 3.14 3.14 3.14 0 0 1-3.14-3.14 3.14 3.14 0 0 1 3.14-3.14 3.14 3.14 0 0 1 3.14 3.14zm12.706.742a3.14 3.14 0 0 1-3.14 3.14 3.14 3.14 0 0 1-3.14-3.14 3.14 3.14 0 0 1 3.14-3.14 3.14 3.14 0 0 1 3.14 3.14z"/><path d="M111.52 12.12a3.14 3.14 0 0 1-3.14 3.14 3.14 3.14 0 0 1-3.141-3.14 3.14 3.14 0 0 1 3.14-3.14 3.14 3.14 0 0 1 3.14 3.14zM96.697 7.767a3.14 3.14 0 0 1-3.14 3.14 3.14 3.14 0 0 1-3.141-3.14 3.14 3.14 0 0 1 3.14-3.14 3.14 3.14 0 0 1 3.14 3.14z"/><path d="M105.79 12.416a3.14 3.14 0 0 1-3.141 3.14 3.14 3.14 0 0 1-3.14-3.14 3.14 3.14 0 0 1 3.14-3.14 3.14 3.14 0 0 1 3.14 3.14z"/></g><g fill="#f90"><path d="M144.134 8.423a3.14 3.14 0 0 1-3.14 3.14 3.14 3.14 0 0 1-3.141-3.14 3.14 3.14 0 0 1 3.14-3.14 3.14 3.14 0 0 1 3.14 3.14z"/><path d="M138.805 9.385a3.14 3.14 0 0 1-3.14 3.14 3.14 3.14 0 0 1-3.141-3.14 3.14 3.14 0 0 1 3.14-3.14 3.14 3.14 0 0 1 3.14 3.14zm8.314 4.393a3.14 3.14 0 0 1-3.14 3.14 3.14 3.14 0 0 1-3.141-3.14 3.14 3.14 0 0 1 3.14-3.14 3.14 3.14 0 0 1 3.14 3.14zm8.285-7.271a3.14 3.14 0 0 1-3.14 3.14 3.14 3.14 0 0 1-3.14-3.14 3.14 3.14 0 0 1 3.14-3.14 3.14 3.14 0 0 1 3.14 3.14z"/><path d="M152.418 11.572a3.14 3.14 0 0 1-3.14 3.14 3.14 3.14 0 0 1-3.14-3.14 3.14 3.14 0 0 1 3.14-3.14 3.14 3.14 0 0 1 3.14 3.14z"/></g><g fill="#f90"><path d="M106.14 40.935a3.14 3.14 0 0 1-3.14 3.14 3.14 3.14 0 0 1-3.14-3.14 3.14 3.14 0 0 1 3.14-3.14 3.14 3.14 0 0 1 3.14 3.14z"/><path d="M102.317 36.41a3.14 3.14 0 0 1-3.14 3.14 3.14 3.14 0 0 1-3.14-3.14 3.14 3.14 0 0 1 3.14-3.14 3.14 3.14 0 0 1 3.14 3.14zm11.715 6.53a3.14 3.14 0 0 1-3.14 3.141 3.14 3.14 0 0 1-3.14-3.14 3.14 3.14 0 0 1 3.14-3.14 3.14 3.14 0 0 1 3.14 3.14z"/><path d="M98.76 40.395a3.14 3.14 0 0 1-3.14 3.14 3.14 3.14 0 0 1-3.14-3.14 3.14 3.14 0 0 1 3.14-3.14 3.14 3.14 0 0 1 3.14 3.14zm12.48-2.42a3.14 3.14 0 0 1-3.14 3.14 3.14 3.14 0 0 1-3.14-3.14 3.14 3.14 0 0 1 3.14-3.14 3.14 3.14 0 0 1 3.14 3.14z"/></g><g fill="#f90"><path d="M155.41 41.08a3.14 3.14 0 0 1-3.14 3.14 3.14 3.14 0 0 1-3.141-3.14 3.14 3.14 0 0 1 3.14-3.14 3.14 3.14 0 0 1 3.14 3.14z"/><path d="M149.53 42.126a3.14 3.14 0 0 1-3.14 3.14 3.14 3.14 0 0 1-3.14-3.14 3.14 3.14 0 0 1 3.14-3.14 3.14 3.14 0 0 1 3.14 3.14zm-10.223 5.589a3.14 3.14 0 0 1-3.14 3.14 3.14 3.14 0 0 1-3.141-3.14 3.14 3.14 0 0 1 3.14-3.14 3.14 3.14 0 0 1 3.14 3.14z"/><path d="M145.254 46.372a3.14 3.14 0 0 1-3.14 3.14 3.14 3.14 0 0 1-3.141-3.14 3.14 3.14 0 0 1 3.14-3.14 3.14 3.14 0 0 1 3.14 3.14z"/></g><g fill="#f90"><path d="M238.555 37.3a3.14 3.14 0 0 1-3.14 3.14 3.14 3.14 0 0 1-3.14-3.14 3.14 3.14 0 0 1 3.14-3.14 3.14 3.14 0 0 1 3.14 3.14z"/><path d="M232.675 38.346a3.14 3.14 0 0 1-3.14 3.14 3.14 3.14 0 0 1-3.14-3.14 3.14 3.14 0 0 1 3.14-3.14 3.14 3.14 0 0 1 3.14 3.14zm-10.223 5.589a3.14 3.14 0 0 1-3.14 3.14 3.14 3.14 0 0 1-3.14-3.14 3.14 3.14 0 0 1 3.14-3.14 3.14 3.14 0 0 1 3.14 3.14z"/><path d="M228.399 42.592a3.14 3.14 0 0 1-3.14 3.14 3.14 3.14 0 0 1-3.14-3.14 3.14 3.14 0 0 1 3.14-3.14 3.14 3.14 0 0 1 3.14 3.14z"/></g><g fill="#f90"><path d="M191.312 41.2a3.14 3.14 0 0 1-3.14 3.14 3.14 3.14 0 0 1-3.14-3.14 3.14 3.14 0 0 1 3.14-3.14 3.14 3.14 0 0 1 3.14 3.14z"/><path d="M195.825 37.074a3.14 3.14 0 0 1-3.14 3.14 3.14 3.14 0 0 1-3.14-3.14 3.14 3.14 0 0 1 3.14-3.14 3.14 3.14 0 0 1 3.14 3.14zm-12.353 4.5a3.14 3.14 0 0 1-3.14 3.14 3.14 3.14 0 0 1-3.141-3.14 3.14 3.14 0 0 1 3.14-3.14 3.14 3.14 0 0 1 3.14 3.14z"/><path d="M187.582 46.039a3.14 3.14 0 0 1-3.14 3.14 3.14 3.14 0 0 1-3.14-3.14 3.14 3.14 0 0 1 3.14-3.14 3.14 3.14 0 0 1 3.14 3.14zm-5.482-9.147a3.14 3.14 0 0 1-3.14 3.14 3.14 3.14 0 0 1-3.14-3.14 3.14 3.14 0 0 1 3.14-3.14 3.14 3.14 0 0 1 3.14 3.14z"/></g><g fill="#f90"><path d="M223.712 11.738a3.14 3.14 0 0 1-3.14 3.14 3.14 3.14 0 0 1-3.14-3.14 3.14 3.14 0 0 1 3.14-3.14 3.14 3.14 0 0 1 3.14 3.14z"/><path d="M224.028 5.944a3.14 3.14 0 0 1-3.14 3.14 3.14 3.14 0 0 1-3.14-3.14 3.14 3.14 0 0 1 3.14-3.14 3.14 3.14 0 0 1 3.14 3.14zm4.17 7.986a3.14 3.14 0 0 1-3.14 3.14 3.14 3.14 0 0 1-3.141-3.14 3.14 3.14 0 0 1 3.14-3.14 3.14 3.14 0 0 1 3.14 3.14z"/><path d="M219.118 5.666a3.14 3.14 0 0 1-3.14 3.14 3.14 3.14 0 0 1-3.141-3.14 3.14 3.14 0 0 1 3.14-3.14 3.14 3.14 0 0 1 3.14 3.14zm12.447 13.009a3.14 3.14 0 0 1-3.14 3.14 3.14 3.14 0 0 1-3.141-3.14 3.14 3.14 0 0 1 3.14-3.14 3.14 3.14 0 0 1 3.14 3.14z"/></g><g fill="#f90"><path d="M198.387 13.913a3.14 3.14 0 0 1-3.14 3.14 3.14 3.14 0 0 1-3.14-3.14 3.14 3.14 0 0 1 3.14-3.14 3.14 3.14 0 0 1 3.14 3.14zm-11.842-2.169a3.14 3.14 0 0 1-3.14 3.14 3.14 3.14 0 0 1-3.14-3.14 3.14 3.14 0 0 1 3.14-3.14 3.14 3.14 0 0 1 3.14 3.14z"/><path d="M192.671 12.02a3.14 3.14 0 0 1-3.14 3.14 3.14 3.14 0 0 1-3.14-3.14 3.14 3.14 0 0 1 3.14-3.141 3.14 3.14 0 0 1 3.14 3.14zm-7.493-6.395a3.14 3.14 0 0 1-3.14 3.14 3.14 3.14 0 0 1-3.14-3.14 3.14 3.14 0 0 1 3.14-3.14 3.14 3.14 0 0 1 3.14 3.14z"/><path d="M179.298 6.671a3.14 3.14 0 0 1-3.14 3.14 3.14 3.14 0 0 1-3.14-3.14 3.14 3.14 0 0 1 3.14-3.14 3.14 3.14 0 0 1 3.14 3.14z"/></g><path d="M29.867 14.581a.265.265 0 0 1 0 .374l-2.587 2.588a.265.265 0 0 1-.374 0l-4.985-4.985a.735.735 0 0 1-.187-.451V9.675c0-.146.12-.265.265-.265h2.432c.146 0 .349.084.452.187zm-7.268-4.306a.497.497 0 0 0 .702.702.497.497 0 0 0-.702-.702z" opacity=".75" fill="#c00"/><g style="line-height:1.25;-inkscape-font-specification:'sans-serif, Normal';font-variant-ligatures:normal;font-variant-caps:normal;font-variant-numeric:normal;font-feature-settings:normal;text-align:start"><path style="-inkscape-font-specification:'sans-serif, Normal';font-variant-ligatures:normal;font-variant-caps:normal;font-variant-numeric:normal;font-feature-settings:normal;text-align:start" d="M27.237 16.532l.643-.643-2.22-2.22-.559.84-.359-.358.556-.836.393-.394 2.579 2.578.643-.643.331.331-1.676 1.676z" aria-label="1" font-weight="400" font-size="5.644" font-family="sans-serif" letter-spacing="0" word-spacing="0"/></g><path d="M36.754 14.581a.265.265 0 0 1 0 .374l-2.587 2.588a.265.265 0 0 1-.374 0l-4.985-4.985a.735.735 0 0 1-.187-.451V9.675c0-.146.12-.265.265-.265h2.432c.146 0 .349.084.452.187zm-7.268-4.306a.497.497 0 0 0 .702.702.497.497 0 0 0-.702-.702z" opacity=".75" fill="#f60"/><g style="line-height:1.25;-inkscape-font-specification:'sans-serif, Normal';font-variant-ligatures:normal;font-variant-caps:normal;font-variant-numeric:normal;font-feature-settings:normal;text-align:start"><path style="-inkscape-font-specification:'sans-serif, Normal';font-variant-ligatures:normal;font-variant-caps:normal;font-variant-numeric:normal;font-feature-settings:normal;text-align:start" d="M34.426 16.115l1.374-1.374.331.331-1.847 1.848-.332-.331q-.007-.456-.011-1.232-.004-.78-.018-.992-.023-.402-.095-.622-.072-.224-.215-.366-.232-.232-.541-.214-.308.015-.57.276-.185.185-.327.456-.14.27-.244.634l-.397-.398q.142-.333.3-.588.158-.256.33-.427.451-.452.946-.495.496-.043.874.335.179.18.272.41.094.225.135.62.008.106.017.638.008.53.018 1.491z" aria-label="2" font-weight="400" font-size="5.644" font-family="sans-serif" letter-spacing="0" word-spacing="0"/></g><path d="M43.641 14.581a.265.265 0 0 1 0 .374l-2.587 2.588a.265.265 0 0 1-.374 0l-4.985-4.985a.735.735 0 0 1-.187-.451V9.675c0-.146.12-.265.265-.265h2.432c.146 0 .349.084.452.187zm-7.268-4.306a.497.497 0 0 0 .702.702.497.497 0 0 0-.702-.702z" opacity=".75" fill="#69f"/><g style="line-height:1.25;-inkscape-font-specification:'sans-serif, Normal';font-variant-ligatures:normal;font-variant-caps:normal;font-variant-numeric:normal;font-feature-settings:normal;text-align:start"><path style="-inkscape-font-specification:'sans-serif, Normal';font-variant-ligatures:normal;font-variant-caps:normal;font-variant-numeric:normal;font-feature-settings:normal;text-align:start" d="M40.793 13.98q.343-.223.692-.19.35.031.631.312.43.43.37.963-.06.532-.606 1.077-.183.183-.415.341-.228.158-.507.293l-.38-.38q.26-.069.503-.215.244-.146.456-.358.37-.37.417-.71.049-.34-.23-.62-.257-.257-.582-.22-.326.033-.648.355l-.339.34-.323-.324.355-.355q.29-.29.329-.56.037-.27-.181-.489-.224-.224-.503-.183-.279.037-.575.333-.162.162-.312.382t-.298.517l-.35-.35q.16-.287.325-.513.165-.228.339-.402.448-.448.914-.505.464-.058.81.289.242.241.271.547.028.304-.163.624z" aria-label="3" font-weight="400" font-size="5.644" font-family="sans-serif" letter-spacing="0" word-spacing="0"/></g><path d="M64.088 19.266a.265.265 0 0 1 0 .374L61.5 22.227a.265.265 0 0 1-.375 0l-4.984-4.984a.735.735 0 0 1-.187-.452V14.36c0-.146.119-.265.264-.265h2.433c.145 0 .349.084.451.187zM56.82 14.96a.497.497 0 0 0 .702.701.497.497 0 0 0-.702-.701z" opacity=".75" fill="#c00"/><g style="line-height:1.25;-inkscape-font-specification:'sans-serif, Normal';font-variant-ligatures:normal;font-variant-caps:normal;font-variant-numeric:normal;font-feature-settings:normal;text-align:start"><path style="-inkscape-font-specification:'sans-serif, Normal';font-variant-ligatures:normal;font-variant-caps:normal;font-variant-numeric:normal;font-feature-settings:normal;text-align:start" d="M61.458 21.216l.643-.643-2.22-2.22-.56.84-.358-.358.555-.836.394-.394 2.578 2.579.644-.644.33.332-1.675 1.676z" aria-label="1" font-weight="400" font-size="5.644" font-family="sans-serif" letter-spacing="0" word-spacing="0"/></g><path d="M70.975 19.266a.265.265 0 0 1 0 .374l-2.587 2.587a.265.265 0 0 1-.375 0l-4.984-4.984a.735.735 0 0 1-.187-.452V14.36c0-.146.119-.265.265-.265h2.432c.145 0 .349.084.451.187zm-7.268-4.306a.497.497 0 0 0 .702.701.497.497 0 0 0-.702-.701z" opacity=".75" fill="#f60"/><g style="line-height:1.25;-inkscape-font-specification:'sans-serif, Normal';font-variant-ligatures:normal;font-variant-caps:normal;font-variant-numeric:normal;font-feature-settings:normal;text-align:start"><path style="-inkscape-font-specification:'sans-serif, Normal';font-variant-ligatures:normal;font-variant-caps:normal;font-variant-numeric:normal;font-feature-settings:normal;text-align:start" d="M68.647 20.8l1.374-1.375.33.332-1.847 1.847-.33-.331q-.009-.456-.013-1.232-.003-.78-.017-.992-.024-.401-.096-.621-.072-.224-.214-.367-.232-.232-.542-.214-.308.016-.569.277-.185.185-.327.456-.14.269-.244.633l-.397-.398q.142-.333.3-.588.158-.255.329-.427.452-.452.947-.495.495-.043.873.335.18.18.273.41.094.226.135.621.007.105.017.638.008.53.018 1.49z" aria-label="2" font-weight="400" font-size="5.644" font-family="sans-serif" letter-spacing="0" word-spacing="0"/></g><path d="M77.862 19.266a.265.265 0 0 1 0 .374l-2.587 2.587a.265.265 0 0 1-.374 0l-4.985-4.984a.735.735 0 0 1-.187-.452V14.36c0-.146.119-.265.265-.265h2.432c.145 0 .349.084.452.187zm-7.268-4.306a.497.497 0 0 0 .702.701.497.497 0 0 0-.702-.701z" opacity=".75" fill="#69f"/><g style="line-height:1.25;-inkscape-font-specification:'sans-serif, Normal';font-variant-ligatures:normal;font-variant-caps:normal;font-variant-numeric:normal;font-feature-settings:normal;text-align:start"><path style="-inkscape-font-specification:'sans-serif, Normal';font-variant-ligatures:normal;font-variant-caps:normal;font-variant-numeric:normal;font-feature-settings:normal;text-align:start" d="M75.013 18.663q.343-.222.692-.189.351.032.632.312.43.431.37.963t-.606 1.078q-.183.183-.415.34-.228.159-.507.293l-.38-.38q.26-.068.503-.214.243-.147.456-.359.37-.37.417-.71.049-.34-.23-.619-.257-.257-.583-.22-.325.033-.647.354l-.339.34-.323-.324.354-.355q.29-.29.33-.559.037-.27-.182-.49-.224-.223-.502-.182-.28.037-.575.333-.162.162-.312.382t-.298.516l-.351-.35q.162-.287.325-.513.166-.228.34-.401.448-.449.913-.505.464-.059.811.288.242.242.271.548.027.304-.164.623z" aria-label="3" font-weight="400" font-size="5.644" font-family="sans-serif" letter-spacing="0" word-spacing="0"/></g><path d="M60.932 51.883a.265.265 0 0 1 0 .375l-2.587 2.587a.265.265 0 0 1-.374 0l-4.985-4.984a.735.735 0 0 1-.187-.452v-2.432c0-.146.12-.265.265-.265h2.432c.146 0 .349.084.452.187zm-7.268-4.306a.497.497 0 0 0 .702.702.497.497 0 0 0-.702-.702z" opacity=".75" fill="#c00"/><g style="line-height:1.25;-inkscape-font-specification:'sans-serif, Normal';font-variant-ligatures:normal;font-variant-caps:normal;font-variant-numeric:normal;font-feature-settings:normal;text-align:start"><path style="-inkscape-font-specification:'sans-serif, Normal';font-variant-ligatures:normal;font-variant-caps:normal;font-variant-numeric:normal;font-feature-settings:normal;text-align:start" d="M58.302 53.834l.643-.643-2.22-2.22-.559.84-.359-.358.556-.836.394-.394 2.578 2.578.643-.643.331.332-1.676 1.676z" aria-label="1" font-weight="400" font-size="5.644" font-family="sans-serif" letter-spacing="0" word-spacing="0"/></g><path d="M67.82 51.883a.265.265 0 0 1 0 .375l-2.588 2.587a.265.265 0 0 1-.374 0l-4.985-4.984a.735.735 0 0 1-.187-.452v-2.432c0-.146.12-.265.265-.265h2.432c.146 0 .349.084.452.187zm-7.268-4.306a.497.497 0 0 0 .701.702.497.497 0 0 0-.701-.702z" opacity=".75" fill="#f60"/><g style="line-height:1.25;-inkscape-font-specification:'sans-serif, Normal';font-variant-ligatures:normal;font-variant-caps:normal;font-variant-numeric:normal;font-feature-settings:normal;text-align:start"><path style="-inkscape-font-specification:'sans-serif, Normal';font-variant-ligatures:normal;font-variant-caps:normal;font-variant-numeric:normal;font-feature-settings:normal;text-align:start" d="M65.491 53.417l1.374-1.374.331.332-1.847 1.847-.332-.331q-.007-.456-.011-1.232-.004-.78-.018-.992-.023-.401-.095-.622-.072-.224-.215-.366-.232-.232-.541-.214-.308.015-.57.276-.185.186-.327.456-.14.27-.244.634l-.397-.398q.142-.333.3-.588.158-.256.33-.427.452-.452.947-.495.495-.043.873.335.179.18.272.41.094.225.135.621.008.105.017.637.008.53.018 1.491z" aria-label="2" font-weight="400" font-size="5.644" font-family="sans-serif" letter-spacing="0" word-spacing="0"/></g><path d="M74.706 51.883a.265.265 0 0 1 0 .375l-2.587 2.587a.265.265 0 0 1-.374 0L66.76 49.86a.735.735 0 0 1-.187-.452v-2.432c0-.146.12-.265.265-.265h2.432c.146 0 .349.084.452.187zm-7.267-4.306a.497.497 0 0 0 .701.702.497.497 0 0 0-.701-.702z" opacity=".75" fill="#69f"/><g style="line-height:1.25;-inkscape-font-specification:'sans-serif, Normal';font-variant-ligatures:normal;font-variant-caps:normal;font-variant-numeric:normal;font-feature-settings:normal;text-align:start"><path style="-inkscape-font-specification:'sans-serif, Normal';font-variant-ligatures:normal;font-variant-caps:normal;font-variant-numeric:normal;font-feature-settings:normal;text-align:start" d="M71.858 51.281q.343-.222.692-.189.35.031.631.312.43.43.37.963-.06.532-.606 1.078-.183.183-.415.34-.228.158-.507.293l-.38-.38q.26-.068.503-.215.244-.146.456-.358.37-.37.417-.71.049-.34-.23-.62-.257-.256-.582-.22-.326.034-.647.355l-.34.34-.323-.324.355-.355q.29-.29.329-.56.037-.27-.181-.488-.224-.224-.503-.184-.279.038-.575.334-.162.161-.312.382-.15.22-.298.516l-.35-.35q.161-.287.325-.513.165-.228.339-.402.448-.448.914-.504.464-.059.81.288.242.242.271.548.028.304-.163.623z" aria-label="3" font-weight="400" font-size="5.644" font-family="sans-serif" letter-spacing="0" word-spacing="0"/></g><path d="M25.604 49.899a.265.265 0 0 1 0 .374l-2.587 2.587a.265.265 0 0 1-.374 0l-4.985-4.984a.735.735 0 0 1-.187-.452v-2.432c0-.145.12-.265.265-.265h2.432c.146 0 .349.085.452.188zm-7.267-4.306a.497.497 0 0 0 .701.701.497.497 0 0 0-.701-.701z" opacity=".75" fill="#c00"/><g style="line-height:1.25;-inkscape-font-specification:'sans-serif, Normal';font-variant-ligatures:normal;font-variant-caps:normal;font-variant-numeric:normal;font-feature-settings:normal;text-align:start"><path style="-inkscape-font-specification:'sans-serif, Normal';font-variant-ligatures:normal;font-variant-caps:normal;font-variant-numeric:normal;font-feature-settings:normal;text-align:start" d="M22.974 51.85l.643-.643-2.22-2.22-.559.84-.359-.359.556-.836.394-.394 2.578 2.579.643-.643.331.33-1.676 1.677z" aria-label="1" font-weight="400" font-size="5.644" font-family="sans-serif" letter-spacing="0" word-spacing="0"/></g><path d="M32.491 49.899a.265.265 0 0 1 0 .374l-2.587 2.587a.265.265 0 0 1-.374 0l-4.985-4.984a.735.735 0 0 1-.187-.452v-2.432c0-.145.12-.265.265-.265h2.432c.146 0 .349.085.452.188zm-7.267-4.306a.497.497 0 0 0 .701.701.497.497 0 0 0-.701-.701z" opacity=".75" fill="#f60"/><g style="line-height:1.25;-inkscape-font-specification:'sans-serif, Normal';font-variant-ligatures:normal;font-variant-caps:normal;font-variant-numeric:normal;font-feature-settings:normal;text-align:start"><path style="-inkscape-font-specification:'sans-serif, Normal';font-variant-ligatures:normal;font-variant-caps:normal;font-variant-numeric:normal;font-feature-settings:normal;text-align:start" d="M30.163 51.433l1.374-1.374.331.33-1.847 1.848-.331-.33q-.008-.457-.012-1.233-.004-.78-.018-.991-.023-.402-.095-.622-.072-.224-.215-.367-.231-.231-.541-.214-.308.016-.57.277-.185.185-.327.456-.14.269-.243.633l-.398-.397q.142-.334.3-.589.158-.255.33-.427.452-.452.947-.495.495-.043.873.335.179.18.273.41.093.226.134.621.008.106.018.638l.017 1.49z" aria-label="2" font-weight="400" font-size="5.644" font-family="sans-serif" letter-spacing="0" word-spacing="0"/></g><path d="M39.378 49.899a.265.265 0 0 1 0 .374l-2.587 2.587a.265.265 0 0 1-.374 0l-4.985-4.984a.735.735 0 0 1-.187-.452v-2.432c0-.145.12-.265.265-.265h2.432c.146 0 .349.085.452.188zm-7.267-4.306a.497.497 0 0 0 .701.701.497.497 0 0 0-.701-.701z" opacity=".75" fill="#69f"/><g style="line-height:1.25;-inkscape-font-specification:'sans-serif, Normal';font-variant-ligatures:normal;font-variant-caps:normal;font-variant-numeric:normal;font-feature-settings:normal;text-align:start"><path style="-inkscape-font-specification:'sans-serif, Normal';font-variant-ligatures:normal;font-variant-caps:normal;font-variant-numeric:normal;font-feature-settings:normal;text-align:start" d="M36.53 49.297q.343-.223.692-.19.35.032.631.312.43.431.37.963t-.606 1.078q-.183.183-.415.34-.228.159-.507.293l-.38-.38q.26-.068.503-.214.244-.146.456-.359.37-.37.417-.71.049-.34-.23-.619-.257-.257-.582-.22-.326.033-.647.355l-.34.339-.323-.324.355-.355q.29-.29.329-.559.037-.27-.181-.489-.224-.224-.503-.183-.279.037-.575.333-.162.162-.312.382t-.298.516l-.35-.35q.161-.287.325-.513.165-.228.339-.401.448-.449.914-.505.464-.059.81.288.242.242.271.548.028.304-.163.624z" aria-label="3" font-weight="400" font-size="5.644" font-family="sans-serif" letter-spacing="0" word-spacing="0"/></g><path d="M116.566 21.02a.265.265 0 0 1 0 .374l-2.587 2.588a.265.265 0 0 1-.375 0l-4.984-4.985a.735.735 0 0 1-.187-.451v-2.432c0-.146.119-.265.264-.265h2.433c.145 0 .349.084.451.187zm-7.268-4.306a.497.497 0 0 0 .702.702.497.497 0 0 0-.702-.702z" opacity=".75" fill="#f60"/><g style="line-height:1.25;-inkscape-font-specification:'sans-serif, Normal';font-variant-ligatures:normal;font-variant-caps:normal;font-variant-numeric:normal;font-feature-settings:normal;text-align:start"><path style="-inkscape-font-specification:'sans-serif, Normal';font-variant-ligatures:normal;font-variant-caps:normal;font-variant-numeric:normal;font-feature-settings:normal;text-align:start" d="M114.238 22.554l1.374-1.374.33.331-1.847 1.848-.331-.331q-.008-.456-.012-1.232-.004-.78-.017-.992-.024-.401-.096-.622-.072-.224-.214-.366-.232-.232-.542-.214-.308.015-.569.276-.185.185-.327.456-.14.27-.244.634l-.397-.398q.142-.333.3-.588.157-.256.329-.427.452-.452.947-.495.495-.043.873.335.18.18.273.41.094.225.135.62.007.106.017.638.008.53.018 1.491z" aria-label="2" font-weight="400" font-size="5.644" font-family="sans-serif" letter-spacing="0" word-spacing="0"/></g><path d="M123.453 21.02a.265.265 0 0 1 0 .374l-2.587 2.588a.265.265 0 0 1-.375 0l-4.984-4.985a.735.735 0 0 1-.187-.451v-2.432c0-.146.119-.265.265-.265h2.432c.145 0 .349.084.451.187zm-7.268-4.306a.497.497 0 0 0 .702.702.497.497 0 0 0-.702-.702z" opacity=".75" fill="#69f"/><g style="line-height:1.25;-inkscape-font-specification:'sans-serif, Normal';font-variant-ligatures:normal;font-variant-caps:normal;font-variant-numeric:normal;font-feature-settings:normal;text-align:start"><path style="-inkscape-font-specification:'sans-serif, Normal';font-variant-ligatures:normal;font-variant-caps:normal;font-variant-numeric:normal;font-feature-settings:normal;text-align:start" d="M120.604 20.418q.343-.222.692-.189.35.031.632.312.43.43.37.963-.06.532-.606 1.077-.183.184-.415.341-.228.158-.507.293l-.38-.38q.26-.069.503-.215t.456-.358q.37-.37.417-.71.049-.34-.23-.62-.257-.257-.583-.22-.325.033-.647.355l-.339.34-.324-.324.355-.355q.29-.29.33-.56.037-.27-.182-.489-.224-.224-.503-.183-.278.037-.574.334-.162.161-.312.381t-.298.517l-.351-.35q.162-.287.325-.513.166-.228.34-.402.448-.448.913-.505.464-.058.811.289.242.241.271.547.027.304-.164.624z" aria-label="3" font-weight="400" font-size="5.644" font-family="sans-serif" letter-spacing="0" word-spacing="0"/></g><path d="M154.55 21.873a.265.265 0 0 1 0 .375l-2.587 2.587a.265.265 0 0 1-.374 0l-4.984-4.984a.735.735 0 0 1-.187-.452v-2.432c0-.146.119-.265.264-.265h2.432c.146 0 .35.084.452.187zm-7.267-4.306a.497.497 0 0 0 .701.702.497.497 0 0 0-.701-.702z" opacity=".75" fill="#f60"/><g style="line-height:1.25;-inkscape-font-specification:'sans-serif, Normal';font-variant-ligatures:normal;font-variant-caps:normal;font-variant-numeric:normal;font-feature-settings:normal;text-align:start"><path style="-inkscape-font-specification:'sans-serif, Normal';font-variant-ligatures:normal;font-variant-caps:normal;font-variant-numeric:normal;font-feature-settings:normal;text-align:start" d="M152.222 23.407l1.374-1.374.332.332-1.848 1.847-.331-.331q-.008-.456-.012-1.232-.004-.78-.017-.992-.024-.401-.096-.621-.072-.225-.214-.367-.232-.232-.542-.214-.308.015-.57.277-.184.185-.327.456-.14.268-.243.633l-.398-.398q.142-.333.3-.588.158-.256.33-.427.452-.452.947-.495.495-.043.873.335.18.18.273.41.093.225.134.621.008.105.018.637.008.53.017 1.491z" aria-label="2" font-weight="400" font-size="5.644" font-family="sans-serif" letter-spacing="0" word-spacing="0"/></g><path d="M161.437 21.873a.265.265 0 0 1 0 .375l-2.587 2.587a.265.265 0 0 1-.374 0l-4.984-4.984a.735.735 0 0 1-.187-.452v-2.432c0-.146.119-.265.264-.265h2.433c.145 0 .348.084.451.187zm-7.267-4.306a.497.497 0 0 0 .701.702.497.497 0 0 0-.701-.702z" opacity=".75" fill="#69f"/><g style="line-height:1.25;-inkscape-font-specification:'sans-serif, Normal';font-variant-ligatures:normal;font-variant-caps:normal;font-variant-numeric:normal;font-feature-settings:normal;text-align:start"><path style="-inkscape-font-specification:'sans-serif, Normal';font-variant-ligatures:normal;font-variant-caps:normal;font-variant-numeric:normal;font-feature-settings:normal;text-align:start" d="M158.589 21.271q.343-.222.692-.189.35.031.631.312.431.43.37.963-.06.532-.606 1.078-.183.183-.415.34-.228.158-.506.293l-.38-.38q.259-.068.502-.215.244-.146.456-.358.37-.37.417-.71.05-.34-.23-.62-.257-.256-.582-.22-.326.034-.647.355l-.34.34-.323-.324.355-.355q.29-.29.33-.56.036-.27-.182-.488-.224-.224-.503-.183-.278.037-.575.333-.161.162-.312.382-.15.22-.298.516l-.35-.35q.161-.287.325-.513.166-.228.34-.402.447-.448.913-.504.464-.059.81.288.242.242.272.548.027.304-.164.623z" aria-label="3" font-weight="400" font-size="5.644" font-family="sans-serif" letter-spacing="0" word-spacing="0"/></g><path d="M206.216 23.059a.265.265 0 0 1 0 .374l-2.587 2.587a.265.265 0 0 1-.374 0l-4.985-4.984a.735.735 0 0 1-.187-.452v-2.432c0-.145.12-.264.265-.264h2.432c.146 0 .349.084.452.187zm-7.268-4.306a.497.497 0 0 0 .702.701.497.497 0 0 0-.702-.701z" opacity=".75" fill="gray"/><g style="line-height:1.25;-inkscape-font-specification:'sans-serif, Normal';font-variant-ligatures:normal;font-variant-caps:normal;font-variant-numeric:normal;font-feature-settings:normal;text-align:start"><path style="-inkscape-font-specification:'sans-serif, Normal';font-variant-ligatures:normal;font-variant-caps:normal;font-variant-numeric:normal;font-feature-settings:normal;text-align:start" d="M202.954 22.69q-.265.266-.24.603.028.335.344.65.313.314.65.344.338.025.603-.24.265-.265.238-.6-.028-.34-.341-.653-.316-.316-.653-.341-.336-.028-.6.238zm-.452-2.015l.359.359q-.218.078-.407.193-.188.113-.336.261-.39.39-.333.86.059.467.561 1.029-.054-.285.03-.548.081-.265.29-.474.438-.438.959-.425.52.01.978.468.448.448.454.984.006.536-.434.977-.505.504-1.158.386-.655-.121-1.39-.856-.69-.69-.771-1.426-.084-.74.467-1.29.149-.149.328-.27.181-.122.403-.228z" aria-label="6" font-weight="400" font-size="5.644" font-family="sans-serif" letter-spacing="0" word-spacing="0"/></g><path d="M199.329 23.059a.265.265 0 0 1 0 .374l-2.587 2.587a.265.265 0 0 1-.374 0l-4.985-4.984a.735.735 0 0 1-.187-.452v-2.432c0-.145.12-.264.265-.264h2.432c.146 0 .349.084.452.187zm-7.268-4.306a.497.497 0 0 0 .702.701.497.497 0 0 0-.702-.701z" opacity=".75" fill="#9c3"/><g style="line-height:1.25;-inkscape-font-specification:'sans-serif, Normal';font-variant-ligatures:normal;font-variant-caps:normal;font-variant-numeric:normal;font-feature-settings:normal;text-align:start"><path style="-inkscape-font-specification:'sans-serif, Normal';font-variant-ligatures:normal;font-variant-caps:normal;font-variant-numeric:normal;font-feature-settings:normal;text-align:start" d="M193.98 22.309l1.546-1.546.33.331-1.184 1.185.713.714q.057-.115.129-.215.07-.101.156-.187.487-.487 1.039-.505.551-.017 1.007.439.47.47.439 1.023-.034.552-.566 1.084-.183.183-.405.343-.22.157-.485.298l-.396-.396q.271-.08.505-.22.234-.14.442-.349.337-.337.357-.711.02-.374-.285-.678-.304-.305-.678-.285-.374.02-.711.357-.158.157-.28.35-.122.191-.211.43z" aria-label="5" font-weight="400" font-size="5.644" font-family="sans-serif" letter-spacing="0" word-spacing="0"/></g><path d="M192.442 23.059a.265.265 0 0 1 0 .374l-2.587 2.587a.265.265 0 0 1-.374 0l-4.985-4.984a.735.735 0 0 1-.187-.452v-2.432c0-.145.12-.264.265-.264h2.432c.146 0 .349.084.452.187zm-7.268-4.306a.497.497 0 0 0 .702.701.497.497 0 0 0-.702-.701z" opacity=".75" fill="#f60"/><g style="line-height:1.25;-inkscape-font-specification:'sans-serif, Normal';font-variant-ligatures:normal;font-variant-caps:normal;font-variant-numeric:normal;font-feature-settings:normal;text-align:start"><path style="-inkscape-font-specification:'sans-serif, Normal';font-variant-ligatures:normal;font-variant-caps:normal;font-variant-numeric:normal;font-feature-settings:normal;text-align:start" d="M190.114 24.593l1.374-1.374.331.331-1.847 1.847-.332-.33q-.008-.457-.011-1.232-.004-.78-.018-.992-.023-.402-.095-.622-.073-.224-.215-.367-.232-.231-.542-.214-.308.016-.569.277-.185.185-.327.456-.14.269-.244.633l-.397-.397q.142-.334.3-.589.158-.255.33-.427.451-.452.946-.495.495-.043.873.336.18.179.273.409.094.226.135.621.008.106.017.638.008.53.018 1.49z" aria-label="2" font-weight="400" font-size="5.644" font-family="sans-serif" letter-spacing="0" word-spacing="0"/></g><path d="M248.086 9.584a.265.265 0 0 1 0 .374l-2.588 2.587a.265.265 0 0 1-.374 0l-4.984-4.984a.735.735 0 0 1-.187-.452V4.677c0-.146.119-.265.264-.265h2.433c.145 0 .348.085.451.187zm-7.268-4.306a.497.497 0 0 0 .702.701.497.497 0 0 0-.702-.701z" opacity=".75" fill="gray"/><g style="line-height:1.25;-inkscape-font-specification:'sans-serif, Normal';font-variant-ligatures:normal;font-variant-caps:normal;font-variant-numeric:normal;font-feature-settings:normal;text-align:start"><path style="-inkscape-font-specification:'sans-serif, Normal';font-variant-ligatures:normal;font-variant-caps:normal;font-variant-numeric:normal;font-feature-settings:normal;text-align:start" d="M244.824 9.215q-.265.265-.24.603.028.335.343.65.314.314.651.343.337.026.602-.24.265-.264.238-.6-.027-.339-.34-.652-.317-.316-.654-.341-.335-.028-.6.237zm-.452-2.015l.358.359q-.218.078-.407.193-.187.113-.335.26-.39.39-.333.86.058.468.561 1.03-.055-.285.03-.548.081-.265.29-.474.438-.438.958-.425.52.01.979.468.448.448.454.984.006.536-.435.977-.505.504-1.157.385-.655-.12-1.39-.855-.69-.69-.772-1.427-.083-.738.468-1.29.148-.148.327-.269.182-.123.404-.228z" aria-label="6" font-weight="400" font-size="5.644" font-family="sans-serif" letter-spacing="0" word-spacing="0"/></g><path d="M241.199 9.584a.265.265 0 0 1 0 .374l-2.588 2.587a.265.265 0 0 1-.374 0l-4.984-4.984a.735.735 0 0 1-.187-.452V4.677c0-.146.119-.265.264-.265h2.433c.145 0 .348.085.451.187zm-7.268-4.306a.497.497 0 0 0 .702.701.497.497 0 0 0-.702-.701z" opacity=".75" fill="#9c3"/><g style="line-height:1.25;-inkscape-font-specification:'sans-serif, Normal';font-variant-ligatures:normal;font-variant-caps:normal;font-variant-numeric:normal;font-feature-settings:normal;text-align:start"><path style="-inkscape-font-specification:'sans-serif, Normal';font-variant-ligatures:normal;font-variant-caps:normal;font-variant-numeric:normal;font-feature-settings:normal;text-align:start" d="M235.85 8.833l1.545-1.545.332.331-1.185 1.185.713.713q.056-.114.129-.214.07-.101.155-.187.488-.487 1.04-.505.55-.017 1.007.439.47.47.438 1.023-.033.551-.565 1.083-.183.184-.405.343-.22.158-.486.299l-.395-.396q.27-.08.505-.22.233-.14.442-.35.337-.336.357-.71.019-.375-.285-.679-.304-.304-.678-.284-.374.02-.712.356-.157.158-.28.351-.121.191-.21.429z" aria-label="5" font-weight="400" font-size="5.644" font-family="sans-serif" letter-spacing="0" word-spacing="0"/></g><path d="M234.311 9.584a.265.265 0 0 1 0 .374l-2.587 2.587a.265.265 0 0 1-.374 0l-4.984-4.984a.735.735 0 0 1-.187-.452V4.677c0-.146.119-.265.264-.265h2.433c.145 0 .348.085.451.187zm-7.267-4.306a.497.497 0 0 0 .702.701.497.497 0 0 0-.702-.701z" opacity=".75" fill="#f60"/><g style="line-height:1.25;-inkscape-font-specification:'sans-serif, Normal';font-variant-ligatures:normal;font-variant-caps:normal;font-variant-numeric:normal;font-feature-settings:normal;text-align:start"><path style="-inkscape-font-specification:'sans-serif, Normal';font-variant-ligatures:normal;font-variant-caps:normal;font-variant-numeric:normal;font-feature-settings:normal;text-align:start" d="M231.983 11.117l1.374-1.373.332.33-1.848 1.848-.331-.331q-.008-.456-.012-1.232-.004-.78-.017-.992-.024-.401-.096-.621-.072-.224-.214-.367-.232-.232-.542-.214-.308.016-.569.277-.185.185-.327.456-.14.269-.244.633l-.398-.397q.143-.334.3-.589.158-.255.33-.427.452-.452.947-.495.495-.043.873.335.18.18.273.41.093.226.134.621.008.106.018.638.008.53.017 1.49z" aria-label="2" font-weight="400" font-size="5.644" font-family="sans-serif" letter-spacing="0" word-spacing="0"/></g><path d="M198.106 54.734a.265.265 0 0 1 0 .374l-2.587 2.588a.265.265 0 0 1-.374 0l-4.985-4.985a.735.735 0 0 1-.187-.451v-2.433c0-.145.12-.264.265-.264h2.432c.146 0 .349.084.452.187zm-7.267-4.306a.497.497 0 0 0 .701.702.497.497 0 0 0-.701-.702z" opacity=".75" fill="gray"/><g style="line-height:1.25;-inkscape-font-specification:'sans-serif, Normal';font-variant-ligatures:normal;font-variant-caps:normal;font-variant-numeric:normal;font-feature-settings:normal;text-align:start"><path style="-inkscape-font-specification:'sans-serif, Normal';font-variant-ligatures:normal;font-variant-caps:normal;font-variant-numeric:normal;font-feature-settings:normal;text-align:start" d="M194.845 54.366q-.265.265-.24.602.027.335.343.651.314.314.65.343.338.025.603-.24.265-.265.238-.6-.027-.339-.341-.653-.316-.316-.653-.34-.335-.028-.6.237zm-.452-2.015l.358.358q-.218.078-.407.193-.187.113-.335.261-.39.39-.334.86.059.468.562 1.029-.055-.285.029-.548.082-.265.29-.473.439-.439.959-.425.52.01.978.468.449.448.454.984.006.536-.434.976-.505.505-1.158.386-.655-.12-1.39-.856-.69-.69-.771-1.426-.084-.739.468-1.29.148-.148.327-.27.181-.122.403-.227z" aria-label="6" font-weight="400" font-size="5.644" font-family="sans-serif" letter-spacing="0" word-spacing="0"/></g><path d="M191.22 54.734a.265.265 0 0 1 0 .374l-2.588 2.588a.265.265 0 0 1-.374 0l-4.985-4.985a.735.735 0 0 1-.187-.451v-2.433c0-.145.12-.264.265-.264h2.432c.146 0 .349.084.452.187zm-7.268-4.306a.497.497 0 0 0 .701.702.497.497 0 0 0-.701-.702z" opacity=".75" fill="#9c3"/><g style="line-height:1.25;-inkscape-font-specification:'sans-serif, Normal';font-variant-ligatures:normal;font-variant-caps:normal;font-variant-numeric:normal;font-feature-settings:normal;text-align:start"><path style="-inkscape-font-specification:'sans-serif, Normal';font-variant-ligatures:normal;font-variant-caps:normal;font-variant-numeric:normal;font-feature-settings:normal;text-align:start" d="M185.87 53.984l1.546-1.545.331.33-1.185 1.186.714.713q.056-.115.128-.214.07-.102.156-.187.487-.488 1.039-.505.551-.018 1.007.438.47.47.439 1.023-.033.552-.565 1.084-.184.183-.406.343-.22.158-.485.298l-.396-.396q.271-.08.505-.22.234-.14.442-.349.338-.337.357-.71.02-.375-.284-.68-.304-.303-.679-.284-.374.02-.71.357-.159.158-.282.35-.12.192-.21.43z" aria-label="5" font-weight="400" font-size="5.644" font-family="sans-serif" letter-spacing="0" word-spacing="0"/></g><path d="M184.332 54.734a.265.265 0 0 1 0 .374l-2.587 2.588a.265.265 0 0 1-.374 0l-4.985-4.985a.735.735 0 0 1-.187-.451v-2.433c0-.145.12-.264.265-.264h2.432c.146 0 .349.084.452.187zm-7.267-4.306a.497.497 0 0 0 .701.702.497.497 0 0 0-.701-.702z" opacity=".75" fill="#f60"/><g style="line-height:1.25;-inkscape-font-specification:'sans-serif, Normal';font-variant-ligatures:normal;font-variant-caps:normal;font-variant-numeric:normal;font-feature-settings:normal;text-align:start"><path style="-inkscape-font-specification:'sans-serif, Normal';font-variant-ligatures:normal;font-variant-caps:normal;font-variant-numeric:normal;font-feature-settings:normal;text-align:start" d="M182.004 56.268l1.374-1.374.331.331-1.847 1.848-.332-.331q-.007-.456-.011-1.232-.004-.78-.018-.992-.023-.402-.095-.622-.072-.224-.215-.366-.232-.232-.541-.215-.308.016-.57.277-.185.185-.327.456-.14.27-.243.634l-.398-.398q.142-.333.3-.589.158-.255.33-.426.452-.452.947-.495.495-.043.873.335.179.18.272.41.094.225.135.62.008.106.017.638.008.53.018 1.49z" aria-label="2" font-weight="400" font-size="5.644" font-family="sans-serif" letter-spacing="0" word-spacing="0"/></g><path d="M243.958 51.989a.265.265 0 0 1 0 .374l-2.587 2.587a.265.265 0 0 1-.374 0l-4.985-4.984a.735.735 0 0 1-.187-.452v-2.432c0-.145.12-.265.265-.265h2.432c.146 0 .349.085.452.188zm-7.268-4.306a.497.497 0 0 0 .702.701.497.497 0 0 0-.702-.701z" opacity=".75" fill="gray"/><g style="line-height:1.25;-inkscape-font-specification:'sans-serif, Normal';font-variant-ligatures:normal;font-variant-caps:normal;font-variant-numeric:normal;font-feature-settings:normal;text-align:start"><path style="-inkscape-font-specification:'sans-serif, Normal';font-variant-ligatures:normal;font-variant-caps:normal;font-variant-numeric:normal;font-feature-settings:normal;text-align:start" d="M240.696 51.62q-.265.266-.24.603.028.335.344.65.313.314.65.344.338.025.603-.24.265-.265.238-.6-.028-.34-.341-.653-.316-.316-.653-.341-.336-.028-.6.238zm-.452-2.015l.359.359q-.218.078-.407.193-.188.113-.336.261-.39.39-.333.86.059.467.561 1.028-.054-.284.03-.547.081-.265.29-.474.438-.438.959-.425.52.01.978.468.448.448.454.984.006.536-.434.977-.505.504-1.158.386-.655-.121-1.39-.856-.69-.69-.771-1.427-.084-.738.467-1.29.149-.148.328-.269.181-.122.403-.228z" aria-label="6" font-weight="400" font-size="5.644" font-family="sans-serif" letter-spacing="0" word-spacing="0"/></g><path d="M237.07 51.989a.265.265 0 0 1 0 .374l-2.586 2.587a.265.265 0 0 1-.374 0l-4.985-4.984a.735.735 0 0 1-.187-.452v-2.432c0-.145.12-.265.265-.265h2.432c.146 0 .349.085.452.188zm-7.267-4.306a.497.497 0 0 0 .702.701.497.497 0 0 0-.702-.701z" opacity=".75" fill="#9c3"/><g style="line-height:1.25;-inkscape-font-specification:'sans-serif, Normal';font-variant-ligatures:normal;font-variant-caps:normal;font-variant-numeric:normal;font-feature-settings:normal;text-align:start"><path style="-inkscape-font-specification:'sans-serif, Normal';font-variant-ligatures:normal;font-variant-caps:normal;font-variant-numeric:normal;font-feature-settings:normal;text-align:start" d="M231.722 51.239l1.546-1.546.33.331-1.184 1.185.713.714q.057-.115.129-.215.07-.101.156-.187.487-.487 1.039-.505.551-.017 1.007.439.47.47.439 1.023-.034.551-.566 1.084-.183.183-.405.343-.22.157-.485.298l-.396-.396q.271-.08.505-.22.234-.14.442-.349.337-.337.357-.711.02-.375-.285-.679-.304-.304-.678-.284-.374.02-.711.357-.158.157-.28.35-.122.191-.211.43z" aria-label="5" font-weight="400" font-size="5.644" font-family="sans-serif" letter-spacing="0" word-spacing="0"/></g><path d="M230.184 51.989a.265.265 0 0 1 0 .374l-2.587 2.587a.265.265 0 0 1-.374 0l-4.985-4.984a.735.735 0 0 1-.187-.452v-2.432c0-.145.12-.265.265-.265h2.432c.146 0 .349.085.452.188zm-7.268-4.306a.497.497 0 0 0 .702.701.497.497 0 0 0-.702-.701z" opacity=".75" fill="#f60"/><g style="line-height:1.25;-inkscape-font-specification:'sans-serif, Normal';font-variant-ligatures:normal;font-variant-caps:normal;font-variant-numeric:normal;font-feature-settings:normal;text-align:start"><path style="-inkscape-font-specification:'sans-serif, Normal';font-variant-ligatures:normal;font-variant-caps:normal;font-variant-numeric:normal;font-feature-settings:normal;text-align:start" d="M227.856 53.523l1.374-1.374.331.33-1.847 1.848-.332-.33q-.008-.457-.011-1.233-.004-.78-.018-.991-.023-.402-.095-.622-.073-.224-.215-.367-.232-.231-.542-.214-.308.016-.569.277-.185.185-.327.456-.14.269-.244.633l-.397-.397q.142-.334.3-.589.158-.255.33-.427.451-.452.946-.495.495-.043.873.335.18.18.273.41.094.226.135.621.008.106.017.638.008.53.018 1.49z" aria-label="2" font-weight="400" font-size="5.644" font-family="sans-serif" letter-spacing="0" word-spacing="0"/></g><path d="M101.677 51.61a.265.265 0 0 1 0 .375l-2.587 2.587a.265.265 0 0 1-.374 0l-4.985-4.984a.735.735 0 0 1-.187-.452v-2.432c0-.145.12-.264.265-.264h2.432c.145 0 .349.084.452.187zm-7.268-4.305a.497.497 0 0 0 .702.701.497.497 0 0 0-.702-.701z" opacity=".75" fill="#f60"/><g style="line-height:1.25;-inkscape-font-specification:'sans-serif, Normal';font-variant-ligatures:normal;font-variant-caps:normal;font-variant-numeric:normal;font-feature-settings:normal;text-align:start"><path style="-inkscape-font-specification:'sans-serif, Normal';font-variant-ligatures:normal;font-variant-caps:normal;font-variant-numeric:normal;font-feature-settings:normal;text-align:start" d="M99.349 53.145l1.374-1.374.331.331-1.847 1.847-.332-.33q-.008-.457-.011-1.233-.004-.779-.018-.991-.023-.402-.095-.622-.073-.224-.215-.367-.232-.231-.542-.214-.308.016-.569.277-.185.185-.327.456-.14.269-.244.633l-.397-.397q.142-.334.3-.589.158-.255.33-.427.451-.452.946-.495.495-.043.873.335.18.18.273.41.094.226.135.621.007.106.017.638.008.53.018 1.49z" aria-label="2" font-weight="400" font-size="5.644" font-family="sans-serif" letter-spacing="0" word-spacing="0"/></g><path d="M108.564 51.61a.265.265 0 0 1 0 .375l-2.587 2.587a.265.265 0 0 1-.374 0l-4.985-4.984a.735.735 0 0 1-.187-.452v-2.432c0-.145.12-.264.265-.264h2.432c.146 0 .349.084.452.187zm-7.268-4.305a.497.497 0 0 0 .702.701.497.497 0 0 0-.702-.701z" opacity=".75" fill="#69f"/><g style="line-height:1.25;-inkscape-font-specification:'sans-serif, Normal';font-variant-ligatures:normal;font-variant-caps:normal;font-variant-numeric:normal;font-feature-settings:normal;text-align:start"><path style="-inkscape-font-specification:'sans-serif, Normal';font-variant-ligatures:normal;font-variant-caps:normal;font-variant-numeric:normal;font-feature-settings:normal;text-align:start" d="M105.715 51.009q.343-.223.692-.19.351.032.632.312.43.431.37.963t-.606 1.078q-.183.183-.415.34-.228.159-.507.293l-.38-.38q.26-.068.503-.214t.456-.359q.37-.37.417-.71.049-.34-.23-.619-.257-.257-.583-.22-.325.033-.647.355l-.339.339-.323-.324.354-.354q.29-.29.33-.56.037-.27-.182-.489-.224-.224-.502-.183-.279.037-.575.333-.162.162-.312.382t-.298.516l-.351-.35q.162-.287.325-.513.166-.228.34-.401.448-.449.914-.505.463-.059.81.288.242.242.271.548.027.304-.164.624z" aria-label="3" font-weight="400" font-size="5.644" font-family="sans-serif" letter-spacing="0" word-spacing="0"/></g><path d="M154.424 51.878a.265.265 0 0 1 0 .374l-2.587 2.588a.265.265 0 0 1-.374 0l-4.985-4.985a.735.735 0 0 1-.187-.451V46.97c0-.145.12-.264.265-.264h2.432c.146 0 .349.084.452.187zm-7.268-4.306a.497.497 0 0 0 .702.702.497.497 0 0 0-.702-.702z" opacity=".75" fill="#f60"/><g style="line-height:1.25;-inkscape-font-specification:'sans-serif, Normal';font-variant-ligatures:normal;font-variant-caps:normal;font-variant-numeric:normal;font-feature-settings:normal;text-align:start"><path style="-inkscape-font-specification:'sans-serif, Normal';font-variant-ligatures:normal;font-variant-caps:normal;font-variant-numeric:normal;font-feature-settings:normal;text-align:start" d="M152.096 53.412l1.374-1.374.331.331-1.847 1.848-.332-.332q-.007-.456-.011-1.231-.004-.78-.018-.992-.023-.402-.095-.622-.073-.224-.215-.366-.232-.232-.542-.215-.307.016-.569.277-.185.185-.327.456-.14.27-.244.633l-.397-.397q.142-.333.3-.589.158-.255.33-.426.451-.453.946-.495.495-.043.873.335.18.18.273.409.094.226.135.622.008.105.017.637.008.53.018 1.49z" aria-label="2" font-weight="400" font-size="5.644" font-family="sans-serif" letter-spacing="0" word-spacing="0"/></g><path d="M161.31 51.878a.265.265 0 0 1 0 .374l-2.586 2.588a.265.265 0 0 1-.374 0l-4.985-4.985a.735.735 0 0 1-.187-.451V46.97c0-.145.12-.264.265-.264h2.432c.146 0 .349.084.452.187zm-7.267-4.306a.497.497 0 0 0 .702.702.497.497 0 0 0-.702-.702z" opacity=".75" fill="#69f"/><g style="line-height:1.25;-inkscape-font-specification:'sans-serif, Normal';font-variant-ligatures:normal;font-variant-caps:normal;font-variant-numeric:normal;font-feature-settings:normal;text-align:start"><path style="-inkscape-font-specification:'sans-serif, Normal';font-variant-ligatures:normal;font-variant-caps:normal;font-variant-numeric:normal;font-feature-settings:normal;text-align:start" d="M158.463 51.276q.343-.222.691-.19.351.032.632.313.43.43.37.962t-.606 1.078q-.183.183-.415.341-.228.158-.507.292l-.38-.38q.26-.068.503-.214.244-.146.456-.358.37-.37.417-.71.049-.34-.23-.62-.257-.257-.583-.22-.325.033-.647.355l-.339.339-.323-.324.354-.354q.29-.29.33-.56.037-.27-.181-.489-.225-.224-.503-.183-.279.037-.575.333-.162.162-.312.382t-.298.517l-.35-.351q.16-.287.325-.513.165-.228.339-.401.448-.448.914-.505.463-.058.81.289.242.241.271.547.028.304-.163.624z" aria-label="3" font-weight="400" font-size="5.644" font-family="sans-serif" letter-spacing="0" word-spacing="0"/></g><path d="M50.999 32.034h25.358a2.911 2.911 0 0 1 2.918 2.918v19.13A2.911 2.911 0 0 1 76.357 57H51a2.911 2.911 0 0 1-2.918-2.918v-19.13A2.911 2.911 0 0 1 51 32.034z" fill="none" stroke="#b00b13" stroke-width="1.715" stroke-linejoin="round" stroke-dasharray="3.42958149,1.71479074"/><path d="M134.354 33.72h25.358a2.911 2.911 0 0 1 2.918 2.919v19.13a2.911 2.911 0 0 1-2.918 2.918h-25.358a2.911 2.911 0 0 1-2.918-2.918V36.64a2.911 2.911 0 0 1 2.918-2.918zm83.154-1.7h25.359a2.911 2.911 0 0 1 2.917 2.918v19.13a2.911 2.911 0 0 1-2.917 2.918h-25.359a2.911 2.911 0 0 1-2.917-2.918v-19.13a2.911 2.911 0 0 1 2.917-2.918z" fill="none" stroke="#b00b13" stroke-width="1.715" stroke-linejoin="round" stroke-dasharray="3.42958153,1.71479076"/><path d="M83.333.533V60zM166.667 0v60z" fill="none" stroke="#000" stroke-linecap="round" stroke-linejoin="round" stroke-dasharray="1.00000003,2.00000006" stroke-dashoffset="2.3"/></svg>
