<svg height="500" width="915" style="margin: -16px;" version="1.1" viewBox="0 0 263.31 116.53" xml:space="preserve" xmlns="http://www.w3.org/2000/svg" xmlns:xlink="http://www.w3.org/1999/xlink"><defs><clipPath id="a"><path d="m126 513h343v-225h-343z"/></clipPath></defs><g transform="matrix(1.3333 0 0 -1.3333 -288.3 597.52)"><g transform="translate(39.808 -.2671)"><g clip-path="url(#a)"><g transform="matrix(1,0,0,-1,0,841)"><path d="m280.06 468.43c33.75 0 33.75-3.817 67.5-3.817" fill="none" stroke="#575757" stroke-linecap="round" stroke-opacity=".5" stroke-width=".78125"/></g><g transform="matrix(1,0,0,-1,0,841)"><path d="m280.06 468.43c33.75 0 33.75-0.035 67.5-0.035" fill="none" stroke="#575757" stroke-linecap="round" stroke-opacity=".5" stroke-width=".78125"/></g><g transform="matrix(1,0,0,-1,0,841)"><path d="m280.06 468.43c33.75 0 33.75 3.816 67.5 3.816" fill="none" stroke="#575757" stroke-linecap="round" stroke-opacity=".5" stroke-width=".925"/></g><g transform="matrix(1,0,0,-1,0,841)"><path d="m280.06 450.12c33.75 0 33.75-7.328 67.5-7.328" fill="none" stroke="#5d5d5d" stroke-linecap="round" stroke-opacity=".5" stroke-width="2.9188"/></g><g transform="matrix(1,0,0,-1,0,841)"><path d="m280.06 450.12c33.75 0 33.75 0.344 67.5 0.344" fill="none" stroke="#5d5d5d" stroke-linecap="round" stroke-opacity=".5" stroke-width="6.4313"/></g><g transform="matrix(1,0,0,-1,0,841)"><path d="m280.06 450.12c33.75 0 33.75 7.332 67.5 7.332" fill="none" stroke="#5d5d5d" stroke-linecap="round" stroke-opacity=".5" stroke-width="1.5438"/></g><g transform="matrix(1,0,0,-1,0,841)"><path d="m280.06 412.95c33.75 0 33.75-12.508 67.5-12.508" fill="none" stroke="#575757" stroke-linecap="round" stroke-opacity=".5" stroke-width="1.1313"/></g><g transform="matrix(1,0,0,-1,0,841)"><path d="m280.06 412.95c33.75 0 33.75-8.453 67.5-8.453" fill="none" stroke="#575757" stroke-linecap="round" stroke-opacity=".5" stroke-width=".98125"/></g><g transform="matrix(1,0,0,-1,0,841)"><path d="m280.06 412.95c33.75 0 33.75-4.57 67.5-4.57" fill="none" stroke="#575757" stroke-linecap="round" stroke-opacity=".5" stroke-width=".78125"/></g><g transform="matrix(1,0,0,-1,0,841)"><path d="m280.06 412.95c33.75 0 33.75-0.777 67.5-0.777" fill="none" stroke="#575757" stroke-linecap="round" stroke-opacity=".5" stroke-width=".80625"/></g><g transform="matrix(1,0,0,-1,0,841)"><path d="m280.06 412.95c33.75 0 33.75 12.508 67.5 12.508" fill="none" stroke="#575757" stroke-linecap="round" stroke-opacity=".5" stroke-width="19.756"/></g><g transform="matrix(1,0,0,-1,0,841)"><path d="m212.56 440.69c33.75 0 33.75-27.739 67.5-27.739" fill="none" stroke="#575757" stroke-linecap="round" stroke-opacity=".5" stroke-width="23.506"/></g><g transform="matrix(1,0,0,-1,0,841)"><path d="m212.56 440.69c33.75 0 33.75 9.433 67.5 9.433" fill="none" stroke="#5d5d5d" stroke-linecap="round" stroke-opacity=".5" stroke-width="12.169"/></g><g transform="matrix(1,0,0,-1,0,841)"><path d="m212.56 440.69c33.75 0 33.75 27.738 67.5 27.738" fill="none" stroke="#575757" stroke-linecap="round" stroke-opacity=".5" stroke-width=".98125"/></g><g transform="matrix(1,0,0,-1,0,841)"><path d="m348.02 472.24c0 0.258-0.207 0.465-0.461 0.465-0.253 0-0.46-0.207-0.46-0.465 0-0.254 0.207-0.461 0.46-0.461 0.254 0 0.461 0.207 0.461 0.461" fill="#575757" stroke="#575757" stroke-width=".5625"/></g><g transform="matrix(1,0,0,-1,0,841)"><path d="m347.95 468.39c0 0.214-0.176 0.39-0.391 0.39-0.214 0-0.39-0.176-0.39-0.39 0-0.215 0.176-0.391 0.39-0.391 0.215 0 0.391 0.176 0.391 0.391" fill="#575757" stroke="#575757" stroke-width=".5625"/></g><g transform="matrix(1,0,0,-1,0,841)"><path d="m347.95 464.61c0 0.219-0.176 0.391-0.391 0.391-0.214 0-0.39-0.172-0.39-0.391 0-0.214 0.176-0.386 0.39-0.386 0.215 0 0.391 0.172 0.391 0.386" fill="#575757" stroke="#575757" stroke-width=".5625"/></g><g transform="matrix(1,0,0,-1,0,841)"><path d="m280.56 468.43c0 0.273-0.219 0.492-0.493 0.492-0.273 0-0.492-0.219-0.492-0.492 0-0.27 0.219-0.492 0.492-0.492 0.274 0 0.493 0.222 0.493 0.492" fill="none" stroke="#575757" stroke-width=".5625"/></g><g transform="matrix(1,0,0,-1,0,841)"><path d="m348.33 457.45c0 0.422-0.344 0.77-0.77 0.77-0.425 0-0.769-0.348-0.769-0.77 0-0.426 0.344-0.773 0.769-0.773 0.426 0 0.77 0.347 0.77 0.773" fill="#5d5d5d" stroke="#5d5d5d" stroke-width=".5625"/></g><path d="m347.56 384.32c0.18 0 0.356-0.066 0.497-0.179l-0.497-0.594z" fill="#5d5d5d" fill-opacity=".8"/><g transform="matrix(1,0,0,-1,0,841)"><path d="m350.78 450.46c0 1.777-1.437 3.215-3.215 3.215-1.777 0-3.214-1.438-3.214-3.215 0-1.774 1.437-3.215 3.214-3.215 1.778 0 3.215 1.441 3.215 3.215" fill="#5d5d5d" stroke="#5d5d5d" stroke-width=".5625"/></g><path d="m347.56 393.75c0.313 0 0.626-0.047 0.926-0.137l-0.926-3.078z" fill="#5d5d5d" fill-opacity=".8"/><g transform="matrix(1,0,0,-1,0,841)"><path d="m349.02 442.79c0 0.805-0.653 1.457-1.458 1.457-0.804 0-1.457-0.652-1.457-1.457 0-0.809 0.653-1.461 1.457-1.461 0.805 0 1.458 0.652 1.458 1.461" fill="#5d5d5d" stroke="#5d5d5d" stroke-width=".5625"/></g><path d="m347.56 399.67c0.043 0 0.083-4e-3 0.126-8e-3l-0.126-1.453z" fill="#5d5d5d" fill-opacity=".8"/><g transform="matrix(1,0,0,-1,0,841)"><path d="m286.15 450.12c0 3.359-2.726 6.086-6.086 6.086-3.359 0-6.085-2.727-6.085-6.086s2.726-6.086 6.085-6.086c3.36 0 6.086 2.727 6.086 6.086" fill="none" stroke="#5d5d5d" stroke-width=".5625"/></g><path d="m280.06 396.96c3.266 0 5.95-2.578 6.083-5.84l-6.083-0.246z" fill="#5d5d5d" fill-opacity=".8"/><g transform="matrix(1,0,0,-1,0,841)"><path d="m357.44 425.46c0 5.453-4.421 9.875-9.879 9.875-5.457 0-9.878-4.422-9.878-9.875 0-5.457 4.421-9.879 9.878-9.879 5.458 0 9.879 4.422 9.879 9.879" fill="#575757" stroke="#575757" stroke-width=".5625"/></g><path d="m347.56 425.42c1.926 0 3.809-0.563 5.422-1.621l-5.422-8.258z" fill="#575757" fill-opacity=".8"/><g transform="matrix(1,0,0,-1,0,841)"><path d="m347.96 412.17c0 0.226-0.18 0.406-0.403 0.406-0.222 0-0.402-0.18-0.402-0.406 0-0.223 0.18-0.402 0.402-0.402 0.223 0 0.403 0.179 0.403 0.402" fill="#575757" stroke="#575757" stroke-width=".5625"/></g><g transform="matrix(1,0,0,-1,0,841)"><path d="m347.95 408.38c0 0.215-0.176 0.391-0.391 0.391-0.214 0-0.39-0.176-0.39-0.391s0.176-0.391 0.39-0.391c0.215 0 0.391 0.176 0.391 0.391" fill="#575757" stroke="#575757" stroke-width=".5625"/></g><g transform="matrix(1,0,0,-1,0,841)"><path d="m348.06 404.5c0 0.274-0.219 0.492-0.493 0.492-0.273 0-0.492-0.218-0.492-0.492 0-0.269 0.219-0.492 0.492-0.492 0.274 0 0.493 0.223 0.493 0.492" fill="#575757" stroke="#575757" stroke-width=".5625"/></g><path d="m347.56 437c0.129 0 0.254-0.055 0.348-0.144l-0.348-0.348z" fill="#575757" fill-opacity=".8"/><g transform="matrix(1,0,0,-1,0,841)"><path d="m348.13 400.44c0 0.313-0.254 0.563-0.567 0.563-0.312 0-0.566-0.25-0.566-0.563 0-0.312 0.254-0.566 0.566-0.566 0.313 0 0.567 0.254 0.567 0.566" fill="#575757" stroke="#575757" stroke-width=".5625"/></g><g transform="matrix(1,0,0,-1,0,841)"><path d="m291.81 412.95c0 6.489-5.257 11.75-11.75 11.75-6.492 0-11.75-5.261-11.75-11.75 0-6.492 5.258-11.754 11.75-11.754 6.493 0 11.75 5.262 11.75 11.754" fill="none" stroke="#575757" stroke-width=".5625"/></g><path d="m280.06 439.8c3.344 0 6.528-1.426 8.758-3.918l-8.758-7.836z" fill="#575757" fill-opacity=".8"/><g transform="matrix(1,0,0,-1,0,841)"><path d="m232.25 440.69c0 10.874-8.812 19.687-19.688 19.687-10.874 0-19.687-8.813-19.687-19.687 0-10.876 8.813-19.688 19.687-19.688 10.876 0 19.688 8.812 19.688 19.688" fill="none" stroke="#aaa" stroke-width=".5625"/></g><path d="m212.56 420c4.547 0 8.954-1.574 12.469-4.453l-12.469-15.235z" fill="#aaa" fill-opacity=".8"/></g></g></g></svg>