<svg width="916" height="240" viewBox="0 0 687 180" xmlns="http://www.w3.org/2000/svg" xmlns:xlink="http://www.w3.org/1999/xlink"><defs><symbol id="b" overflow="visible"><path d="M7.297-1.125c-.293.418-.7.73-1.219.938-.523.207-1.125.312-1.812.312S2.96-.035 2.422-.359a3.244 3.244 0 0 1-1.25-1.407c-.293-.601-.446-1.3-.453-2.093v-.735c0-1.289.297-2.289.89-3 .602-.707 1.446-1.062 2.532-1.062.894 0 1.613.23 2.156.687.539.461.875 1.106 1 1.938H6.172c-.219-1.125-.89-1.688-2.016-1.688-.762 0-1.336.266-1.719.797-.386.524-.586 1.29-.593 2.297v.688c0 .96.218 1.726.656 2.296.437.563 1.031.844 1.781.844.414 0 .781-.047 1.094-.14.32-.094.586-.254.797-.485v-1.906h-1.97v-.922h3.095z"/></symbol><symbol id="d" overflow="visible"><path d="M7.547-3.984c0 .836-.14 1.562-.422 2.187-.281.617-.684 1.09-1.203 1.422-.512.336-1.11.5-1.797.5-.668 0-1.262-.164-1.781-.5-.524-.332-.93-.8-1.219-1.406-.281-.613-.43-1.328-.437-2.14v-.61c0-.82.14-1.547.421-2.172.29-.625.696-1.102 1.22-1.438.519-.343 1.116-.515 1.796-.515.676 0 1.273.168 1.797.5.52.336.922.812 1.203 1.437s.422 1.356.422 2.188zm-1.11-.563c0-1.008-.203-1.785-.609-2.328-.406-.54-.976-.813-1.703-.813-.719 0-1.281.274-1.687.813-.407.543-.618 1.293-.625 2.25v.64c0 .981.203 1.75.609 2.313.414.555.984.828 1.703.828.727 0 1.29-.258 1.688-.781.406-.531.613-1.29.625-2.281z"/></symbol><symbol id="e" overflow="visible"><path d="M.781-.563a.7.7 0 0 1 .156-.468c.114-.125.282-.188.5-.188.227 0 .399.063.516.188a.673.673 0 0 1 .172.468c0 .18-.059.329-.172.454-.117.113-.289.172-.516.172-.218 0-.386-.06-.5-.172a.673.673 0 0 1-.156-.454zm.016-5.171a.7.7 0 0 1 .156-.47c.113-.124.281-.187.5-.187.227 0 .399.063.516.188a.673.673 0 0 1 .172.469c0 .18-.059.328-.172.453-.117.117-.29.172-.516.172-.219 0-.387-.055-.5-.172a.673.673 0 0 1-.156-.453z"/></symbol><symbol id="f" overflow="visible"><path d="M3.781-5.266L5.812-8.53h1.329L4.453-4.297 7.203 0H5.875L3.78-3.328 1.671 0H.329l2.766-4.297L.406-8.53h1.313z"/></symbol><symbol id="g" overflow="visible"><path d="M3.594-4.25l2.219-4.281h1.28L4.157-3.187V0H3.031v-3.187L.094-8.531h1.281z"/></symbol><symbol id="h" overflow="visible"><path d="M1.828-.922h4.89V0H.5v-.844l4.687-6.765H.578v-.922h5.953v.828z"/></symbol><symbol id="i" overflow="visible"><path d="M2.828-2.688L3-1.562l.234-1.016 1.688-5.953h.953l1.64 5.953.235 1.031.187-1.156 1.329-5.828h1.125L8.328 0H7.297L5.53-6.219l-.125-.656-.14.656L3.453 0H2.422L.359-8.531h1.125z"/></symbol><symbol id="j" overflow="visible"><path d="M1.89-2.25V0H.579v-6.406h2.485c.476 0 .898.09 1.265.265.363.18.645.43.844.75.195.325.297.696.297 1.11 0 .625-.215 1.12-.64 1.484-.43.367-1.024.547-1.782.547zm0-1.078h1.173c.351 0 .617-.078.796-.234.188-.165.282-.399.282-.704 0-.312-.094-.566-.282-.765-.18-.196-.433-.297-.765-.297H1.89z"/></symbol><symbol id="k" overflow="visible"><path d="M2.672.094c-.7 0-1.266-.211-1.703-.64C.53-.985.313-1.556.313-2.267v-.125c0-.476.093-.906.28-1.28s.446-.661.782-.86a2.192 2.192 0 0 1 1.156-.313c.656 0 1.164.211 1.531.625.375.407.563.985.563 1.735v.515H1.609c.04.313.16.563.36.75.207.188.472.282.797.282.488 0 .867-.176 1.14-.532l.625.703a1.9 1.9 0 0 1-.781.641 2.62 2.62 0 0 1-1.078.219zm-.14-3.906a.806.806 0 0 0-.61.25c-.156.168-.258.414-.297.734h1.766v-.11c-.012-.28-.09-.492-.235-.64-.148-.156-.355-.234-.625-.234z"/></symbol><symbol id="l" overflow="visible"><path d="M4.766-2.328c0 .73-.168 1.32-.5 1.765-.336.438-.782.657-1.344.657-.48 0-.867-.164-1.156-.5v2.234H.484V-4.75h1.188l.031.453a1.515 1.515 0 0 1 1.203-.547c.594 0 1.051.219 1.375.657.32.43.485 1.023.485 1.78zM3.5-2.422c0-.445-.078-.789-.234-1.031a.773.773 0 0 0-.688-.36c-.398 0-.668.153-.812.454v1.953c.144.312.422.469.828.469.601 0 .906-.493.906-1.485z"/></symbol><symbol id="c" overflow="visible"><path d="M2.016-5.922v1.172h.812v.922h-.812v2.375c0 .18.03.308.093.39.063.075.192.11.391.11.133 0 .258-.008.375-.031v.953c-.25.082-.512.125-.781.125-.887 0-1.34-.453-1.36-1.36v-2.562H.047v-.922h.687v-1.172z"/></symbol><symbol id="a" overflow="visible"><path d="M1.828 0H.547v-4.75h1.281zM.484-5.984c0-.188.063-.344.188-.47s.297-.187.515-.187.391.063.516.188c.133.125.203.281.203.469s-.07.343-.203.468c-.125.125-.297.188-.516.188a.722.722 0 0 1-.515-.188.636.636 0 0 1-.188-.468z"/></symbol><symbol id="m" overflow="visible"><path d="M.297-2.406c0-.75.16-1.344.484-1.781.332-.438.79-.657 1.375-.657.457 0 .836.172 1.14.516V-6.75h1.282V0H3.422l-.063-.5a1.474 1.474 0 0 1-1.218.594c-.555 0-1-.219-1.344-.656-.336-.446-.5-1.063-.5-1.844zm1.265.078c0 .45.079.793.235 1.031.156.242.379.36.672.36.394 0 .672-.165.828-.5v-1.875c-.156-.333-.43-.5-.813-.5-.617 0-.922.496-.922 1.484z"/></symbol><symbol id="n" overflow="visible"><path d="M3.063-1.313c0-.156-.079-.273-.235-.359-.148-.094-.39-.176-.734-.25C.957-2.16.39-2.64.39-3.359c0-.426.175-.782.53-1.063.352-.281.813-.422 1.376-.422.601 0 1.082.149 1.437.438.364.281.547.648.547 1.094H3.016a.573.573 0 0 0-.188-.438c-.117-.125-.293-.187-.531-.187-.219 0-.387.054-.5.156a.438.438 0 0 0-.172.36c0 .136.063.25.188.343.132.086.359.156.671.219.32.062.594.136.813.218.664.243 1 .668 1 1.282 0 .43-.188.777-.563 1.047-.367.273-.843.406-1.437.406a2.49 2.49 0 0 1-1.063-.219 1.835 1.835 0 0 1-.718-.578c-.18-.25-.266-.52-.266-.813h1.203c.008.23.094.407.25.532.156.117.363.172.625.172.238 0 .422-.047.547-.141s.188-.211.188-.36z"/></symbol><symbol id="o" overflow="visible"><path d="M5.64-.813c-.242.293-.578.516-1.015.672-.43.157-.906.235-1.438.235-.554 0-1.039-.117-1.453-.36a2.483 2.483 0 0 1-.968-1.062c-.23-.457-.352-1-.36-1.625v-.438c0-.632.11-1.187.328-1.656s.532-.82.938-1.062c.406-.25.879-.375 1.422-.375.758 0 1.351.183 1.781.547.426.355.68.882.766 1.578H4.344c-.055-.364-.184-.63-.39-.797-.2-.176-.47-.266-.813-.266-.45 0-.793.172-1.032.516-.23.336-.351.828-.359 1.484V-3c0 .668.125 1.172.375 1.516.258.343.633.515 1.125.515.5 0 .852-.101 1.063-.312v-1.11H3.109v-.968h2.532z"/></symbol><symbol id="p" overflow="visible"><path d="M5.828-3.047c0 .625-.117 1.18-.344 1.656a2.503 2.503 0 0 1-.953 1.094c-.406.262-.883.39-1.422.39A2.703 2.703 0 0 1 1.687-.28 2.565 2.565 0 0 1 .72-1.375C.49-1.852.376-2.398.376-3.015v-.313C.375-3.961.488-4.52.719-5a2.52 2.52 0 0 1 .953-1.094 2.64 2.64 0 0 1 1.422-.39c.539 0 1.015.132 1.422.39.414.25.738.617.968 1.094.227.48.344 1.031.344 1.656zm-1.344-.297c0-.664-.12-1.172-.36-1.515a1.165 1.165 0 0 0-1.015-.532c-.449 0-.793.172-1.03.516-.243.344-.36.852-.36 1.516v.312c0 .649.117 1.152.36 1.516.237.355.581.53 1.03.53.446 0 .785-.17 1.016-.515.238-.343.36-.847.36-1.515z"/></symbol><symbol id="q" overflow="visible"><path d="M3.156-3.563a4.018 4.018 0 0 0-.453-.03c-.48 0-.793.163-.937.484V0H.484v-4.75h1.203l.032.563c.258-.438.613-.657 1.062-.657.145 0 .274.024.39.063z"/></symbol><symbol id="r" overflow="visible"><path d="M1.672-4.75l.047.531c.332-.414.785-.625 1.36-.625.612 0 1.034.242 1.265.719.332-.477.812-.719 1.437-.719.508 0 .89.153 1.14.453.25.305.376.758.376 1.36V0H6.03v-3.031c0-.27-.054-.469-.156-.594-.105-.125-.293-.187-.562-.187-.387 0-.653.183-.797.546L4.53 0H3.25v-3.031c0-.27-.056-.469-.157-.594-.106-.125-.29-.187-.547-.187-.367 0-.625.152-.781.453V0H.484v-4.75z"/></symbol><symbol id="s" overflow="visible"><path d="M5.781 0H4.453L1.891-4.203V0H.578v-6.406h1.313l2.562 4.219v-4.22h1.328z"/></symbol><symbol id="t" overflow="visible"><path d="M3.25 0a1.406 1.406 0 0 1-.14-.422c-.305.344-.7.516-1.188.516-.469 0-.86-.133-1.172-.407a1.312 1.312 0 0 1-.453-1.03c0-.5.187-.884.562-1.157.375-.27.914-.406 1.625-.406h.578v-.266a.804.804 0 0 0-.171-.531c-.118-.133-.293-.203-.532-.203a.765.765 0 0 0-.5.156.524.524 0 0 0-.187.422H.406c0-.27.082-.52.25-.75a1.77 1.77 0 0 1 .719-.563c.313-.132.66-.203 1.047-.203.594 0 1.062.153 1.406.453.344.293.516.704.516 1.235v2.062c0 .45.062.79.187 1.016V0zM2.187-.89c.188 0 .36-.04.516-.126a.8.8 0 0 0 .36-.328v-.812h-.47c-.636 0-.976.219-1.015.656l-.015.078c0 .156.054.29.171.39a.69.69 0 0 0 .454.141z"/></symbol><symbol id="u" overflow="visible"><path d="M3-9.047a4.631 4.631 0 0 1 3.578 0 4.69 4.69 0 0 1 1.484.984c.415.418.743.915.985 1.485a4.626 4.626 0 0 1-.984 5.047 4.563 4.563 0 0 1-1.485.984c-.562.242-1.156.36-1.781.36S3.57-.305 3-.547a4.537 4.537 0 0 1-1.469-.984A4.536 4.536 0 0 1 .547-3c-.242-.57-.36-1.172-.36-1.797s.118-1.219.36-1.781c.238-.57.566-1.067.984-1.485A4.664 4.664 0 0 1 3-9.047zM6.5-7.75a3.358 3.358 0 0 0-1.703-.453c-.617 0-1.188.152-1.719.453A3.299 3.299 0 0 0 1.844-6.5a3.32 3.32 0 0 0-.453 1.703 3.387 3.387 0 0 0 1.687 2.953 3.387 3.387 0 0 0 1.719.453A3.32 3.32 0 0 0 6.5-1.844c.531-.3.945-.71 1.25-1.234.3-.531.453-1.102.453-1.719 0-.613-.152-1.18-.453-1.703A3.311 3.311 0 0 0 6.5-7.75zm-2.297.547h1.188a.21.21 0 0 1 .14.062.21.21 0 0 1 .063.141v2.203h1.094c.113 0 .18.031.203.094.03.062.007.137-.063.219L5.047-2.281a.294.294 0 0 1-.25.125.29.29 0 0 1-.25-.125L2.766-4.484c-.074-.082-.102-.157-.078-.22.03-.062.101-.093.218-.093H4V-7c0-.05.02-.098.063-.14a.196.196 0 0 1 .14-.063z"/></symbol><symbol id="v" overflow="visible"><path d="M8.5-7c.07-.063.133-.078.188-.047.062.024.093.074.093.156v1.282a.257.257 0 0 1-.078.187L4.938-1.656a.194.194 0 0 1-.141.062.182.182 0 0 1-.14-.062L.89-5.422a.242.242 0 0 1-.078-.187v-1.282c0-.082.023-.132.078-.156.062-.031.129-.016.203.047l3.703 3.719z"/></symbol></defs><path d="M519.01 92.76l-.46-35.674" fill="none" stroke="#000" stroke-width=".75"/><g fill-opacity=".871" transform="translate(-77 -607.95)"><use x="164.18" y="177.75" width="100%" height="100%" xlink:href="#a"/><use x="146.972" y="394.725" width="100%" height="100%" xlink:href="#a"/><use x="165.998" y="594.975" width="100%" height="100%" xlink:href="#a"/><use x="225.85" y="227.262" width="100%" height="100%" xlink:href="#b"/><use x="227.916" y="227.262" width="100%" height="100%" xlink:href="#b"/><use x="229.991" y="227.262" width="100%" height="100%" xlink:href="#b"/><use x="232.058" y="227.262" width="100%" height="100%" xlink:href="#b"/><use x="234.132" y="227.262" width="100%" height="100%" xlink:href="#b"/><use x="236.199" y="227.262" width="100%" height="100%" xlink:href="#b"/><use x="238.274" y="227.262" width="100%" height="100%" xlink:href="#b"/><use x="240.34" y="227.262" width="100%" height="100%" xlink:href="#b"/><use x="242.415" y="227.262" width="100%" height="100%" xlink:href="#b"/><use x="244.481" y="227.262" width="100%" height="100%" xlink:href="#b"/><use x="246.556" y="227.262" width="100%" height="100%" xlink:href="#b"/><use x="248.622" y="227.262" width="100%" height="100%" xlink:href="#b"/><use x="250.697" y="227.262" width="100%" height="100%" xlink:href="#b"/><use x="252.764" y="227.262" width="100%" height="100%" xlink:href="#b"/><use x="254.838" y="227.262" width="100%" height="100%" xlink:href="#b"/><use x="256.905" y="227.262" width="100%" height="100%" xlink:href="#b"/><use x="258.971" y="227.262" width="100%" height="100%" xlink:href="#b"/><use x="261.046" y="227.262" width="100%" height="100%" xlink:href="#b"/><use x="263.112" y="227.262" width="100%" height="100%" xlink:href="#b"/><use x="265.187" y="227.262" width="100%" height="100%" xlink:href="#b"/><use x="267.254" y="227.262" width="100%" height="100%" xlink:href="#b"/><use x="269.328" y="227.262" width="100%" height="100%" xlink:href="#b"/><use x="271.395" y="227.262" width="100%" height="100%" xlink:href="#b"/><use x="273.47" y="227.262" width="100%" height="100%" xlink:href="#b"/><use x="275.536" y="227.262" width="100%" height="100%" xlink:href="#b"/><use x="277.611" y="227.262" width="100%" height="100%" xlink:href="#b"/><use x="279.677" y="227.262" width="100%" height="100%" xlink:href="#b"/><use x="281.752" y="227.262" width="100%" height="100%" xlink:href="#b"/><use x="283.818" y="227.262" width="100%" height="100%" xlink:href="#b"/><use x="285.885" y="227.262" width="100%" height="100%" xlink:href="#b"/><use x="287.96" y="227.262" width="100%" height="100%" xlink:href="#b"/><use x="290.026" y="227.262" width="100%" height="100%" xlink:href="#b"/><use x="292.101" y="227.262" width="100%" height="100%" xlink:href="#b"/><use x="294.167" y="227.262" width="100%" height="100%" xlink:href="#b"/><use x="296.242" y="227.262" width="100%" height="100%" xlink:href="#b"/><use x="298.308" y="227.262" width="100%" height="100%" xlink:href="#b"/><use x="300.383" y="227.262" width="100%" height="100%" xlink:href="#b"/><use x="302.45" y="227.262" width="100%" height="100%" xlink:href="#b"/><use x="304.524" y="227.262" width="100%" height="100%" xlink:href="#b"/><use x="306.591" y="227.262" width="100%" height="100%" xlink:href="#b"/><use x="308.666" y="227.262" width="100%" height="100%" xlink:href="#b"/><use x="310.732" y="227.262" width="100%" height="100%" xlink:href="#b"/><use x="312.807" y="227.262" width="100%" height="100%" xlink:href="#b"/><use x="314.873" y="227.262" width="100%" height="100%" xlink:href="#b"/><use x="316.94" y="227.262" width="100%" height="100%" xlink:href="#b"/><use x="319.014" y="227.262" width="100%" height="100%" xlink:href="#b"/><use x="321.081" y="227.262" width="100%" height="100%" xlink:href="#b"/><use x="323.156" y="227.262" width="100%" height="100%" xlink:href="#b"/><use x="325.222" y="227.262" width="100%" height="100%" xlink:href="#b"/><use x="327.297" y="227.262" width="100%" height="100%" xlink:href="#b"/><use x="329.363" y="227.262" width="100%" height="100%" xlink:href="#b"/><use x="331.438" y="227.262" width="100%" height="100%" xlink:href="#b"/><use x="333.504" y="227.262" width="100%" height="100%" xlink:href="#b"/><use x="335.579" y="227.262" width="100%" height="100%" xlink:href="#b"/><use x="337.646" y="227.262" width="100%" height="100%" xlink:href="#b"/><use x="339.72" y="227.262" width="100%" height="100%" xlink:href="#b"/><use x="341.787" y="227.262" width="100%" height="100%" xlink:href="#b"/><use x="343.862" y="227.262" width="100%" height="100%" xlink:href="#b"/><use x="345.928" y="227.262" width="100%" height="100%" xlink:href="#b"/><use x="347.994" y="227.262" width="100%" height="100%" xlink:href="#b"/><use x="350.069" y="227.262" width="100%" height="100%" xlink:href="#b"/><use x="352.136" y="227.262" width="100%" height="100%" xlink:href="#b"/><use x="354.21" y="227.262" width="100%" height="100%" xlink:href="#b"/><use x="356.277" y="227.262" width="100%" height="100%" xlink:href="#b"/><use x="358.352" y="227.262" width="100%" height="100%" xlink:href="#b"/><use x="360.418" y="227.262" width="100%" height="100%" xlink:href="#b"/><use x="362.493" y="227.262" width="100%" height="100%" xlink:href="#b"/><use x="364.559" y="227.262" width="100%" height="100%" xlink:href="#b"/><use x="366.634" y="227.262" width="100%" height="100%" xlink:href="#b"/><use x="368.7" y="227.262" width="100%" height="100%" xlink:href="#b"/><use x="370.775" y="227.262" width="100%" height="100%" xlink:href="#b"/><use x="372.842" y="227.262" width="100%" height="100%" xlink:href="#b"/><use x="374.908" y="227.262" width="100%" height="100%" xlink:href="#b"/><use x="225.85" y="252.375" width="100%" height="100%" xlink:href="#b"/><use x="227.916" y="252.375" width="100%" height="100%" xlink:href="#b"/><use x="229.991" y="252.375" width="100%" height="100%" xlink:href="#b"/><use x="232.058" y="252.375" width="100%" height="100%" xlink:href="#b"/><use x="234.132" y="252.375" width="100%" height="100%" xlink:href="#b"/><use x="236.199" y="252.375" width="100%" height="100%" xlink:href="#b"/><use x="238.274" y="252.375" width="100%" height="100%" xlink:href="#b"/><use x="240.34" y="252.375" width="100%" height="100%" xlink:href="#b"/><use x="242.415" y="252.375" width="100%" height="100%" xlink:href="#b"/><use x="244.481" y="252.375" width="100%" height="100%" xlink:href="#b"/><use x="246.556" y="252.375" width="100%" height="100%" xlink:href="#b"/><use x="248.622" y="252.375" width="100%" height="100%" xlink:href="#b"/><use x="250.697" y="252.375" width="100%" height="100%" xlink:href="#b"/><use x="252.764" y="252.375" width="100%" height="100%" xlink:href="#b"/><use x="254.838" y="252.375" width="100%" height="100%" xlink:href="#b"/><use x="256.905" y="252.375" width="100%" height="100%" xlink:href="#b"/><use x="258.971" y="252.375" width="100%" height="100%" xlink:href="#b"/><use x="261.046" y="252.375" width="100%" height="100%" xlink:href="#b"/><use x="263.112" y="252.375" width="100%" height="100%" xlink:href="#b"/><use x="265.187" y="252.375" width="100%" height="100%" xlink:href="#b"/><use x="267.254" y="252.375" width="100%" height="100%" xlink:href="#b"/><use x="269.328" y="252.375" width="100%" height="100%" xlink:href="#b"/><use x="271.395" y="252.375" width="100%" height="100%" xlink:href="#b"/><use x="273.47" y="252.375" width="100%" height="100%" xlink:href="#b"/><use x="275.536" y="252.375" width="100%" height="100%" xlink:href="#b"/><use x="277.611" y="252.375" width="100%" height="100%" xlink:href="#b"/><use x="279.677" y="252.375" width="100%" height="100%" xlink:href="#b"/><use x="281.752" y="252.375" width="100%" height="100%" xlink:href="#b"/><use x="283.818" y="252.375" width="100%" height="100%" xlink:href="#b"/><use x="225.85" y="277.487" width="100%" height="100%" xlink:href="#b"/><use x="227.916" y="277.487" width="100%" height="100%" xlink:href="#b"/><use x="229.991" y="277.487" width="100%" height="100%" xlink:href="#b"/><use x="232.058" y="277.487" width="100%" height="100%" xlink:href="#b"/><use x="234.132" y="277.487" width="100%" height="100%" xlink:href="#b"/><use x="236.199" y="277.487" width="100%" height="100%" xlink:href="#b"/><use x="238.274" y="277.487" width="100%" height="100%" xlink:href="#b"/><use x="240.34" y="277.487" width="100%" height="100%" xlink:href="#b"/><use x="242.415" y="277.487" width="100%" height="100%" xlink:href="#b"/><use x="244.481" y="277.487" width="100%" height="100%" xlink:href="#b"/><use x="246.556" y="277.487" width="100%" height="100%" xlink:href="#b"/><use x="248.622" y="277.487" width="100%" height="100%" xlink:href="#b"/><use x="250.697" y="277.487" width="100%" height="100%" xlink:href="#b"/><use x="252.764" y="277.487" width="100%" height="100%" xlink:href="#b"/><use x="254.838" y="277.487" width="100%" height="100%" xlink:href="#b"/><use x="256.905" y="277.487" width="100%" height="100%" xlink:href="#b"/><use x="258.971" y="277.487" width="100%" height="100%" xlink:href="#b"/><use x="261.046" y="277.487" width="100%" height="100%" xlink:href="#b"/><use x="263.112" y="277.487" width="100%" height="100%" xlink:href="#b"/><use x="265.187" y="277.487" width="100%" height="100%" xlink:href="#b"/><use x="267.254" y="277.487" width="100%" height="100%" xlink:href="#b"/><use x="269.328" y="277.487" width="100%" height="100%" xlink:href="#b"/><use x="271.395" y="277.487" width="100%" height="100%" xlink:href="#b"/><use x="273.47" y="277.487" width="100%" height="100%" xlink:href="#b"/><use x="275.536" y="277.487" width="100%" height="100%" xlink:href="#b"/><use x="277.611" y="277.487" width="100%" height="100%" xlink:href="#b"/><use x="279.677" y="277.487" width="100%" height="100%" xlink:href="#b"/><use x="281.752" y="277.487" width="100%" height="100%" xlink:href="#b"/><use x="283.818" y="277.487" width="100%" height="100%" xlink:href="#b"/><use x="285.885" y="277.487" width="100%" height="100%" xlink:href="#b"/><use x="287.96" y="277.487" width="100%" height="100%" xlink:href="#b"/><use x="290.026" y="277.487" width="100%" height="100%" xlink:href="#b"/><use x="292.101" y="277.487" width="100%" height="100%" xlink:href="#b"/><use x="294.167" y="277.487" width="100%" height="100%" xlink:href="#b"/><use x="296.242" y="277.487" width="100%" height="100%" xlink:href="#b"/><use x="298.308" y="277.487" width="100%" height="100%" xlink:href="#b"/><use x="300.383" y="277.487" width="100%" height="100%" xlink:href="#b"/><use x="302.45" y="277.487" width="100%" height="100%" xlink:href="#b"/><use x="304.524" y="277.487" width="100%" height="100%" xlink:href="#b"/><use x="306.591" y="277.487" width="100%" height="100%" xlink:href="#b"/><use x="308.666" y="277.487" width="100%" height="100%" xlink:href="#b"/><use x="310.732" y="277.487" width="100%" height="100%" xlink:href="#b"/><use x="312.807" y="277.487" width="100%" height="100%" xlink:href="#b"/><use x="314.873" y="277.487" width="100%" height="100%" xlink:href="#b"/><use x="316.94" y="277.487" width="100%" height="100%" xlink:href="#b"/><use x="319.014" y="277.487" width="100%" height="100%" xlink:href="#b"/><use x="321.081" y="277.487" width="100%" height="100%" xlink:href="#b"/><use x="323.156" y="277.487" width="100%" height="100%" xlink:href="#b"/><use x="325.222" y="277.487" width="100%" height="100%" xlink:href="#b"/><use x="327.297" y="277.487" width="100%" height="100%" xlink:href="#b"/><use x="329.363" y="277.487" width="100%" height="100%" xlink:href="#b"/><use x="331.438" y="277.487" width="100%" height="100%" xlink:href="#b"/><use x="333.504" y="277.487" width="100%" height="100%" xlink:href="#b"/><use x="335.579" y="277.487" width="100%" height="100%" xlink:href="#b"/><use x="337.646" y="277.487" width="100%" height="100%" xlink:href="#b"/><use x="339.72" y="277.487" width="100%" height="100%" xlink:href="#b"/><use x="341.787" y="277.487" width="100%" height="100%" xlink:href="#b"/><use x="343.862" y="277.487" width="100%" height="100%" xlink:href="#b"/><use x="345.928" y="277.487" width="100%" height="100%" xlink:href="#b"/><use x="347.994" y="277.487" width="100%" height="100%" xlink:href="#b"/><use x="350.069" y="277.487" width="100%" height="100%" xlink:href="#b"/><use x="352.136" y="277.487" width="100%" height="100%" xlink:href="#b"/><use x="354.21" y="277.487" width="100%" height="100%" xlink:href="#b"/><use x="356.277" y="277.487" width="100%" height="100%" xlink:href="#b"/><use x="358.352" y="277.487" width="100%" height="100%" xlink:href="#b"/><use x="360.418" y="277.487" width="100%" height="100%" xlink:href="#b"/><use x="362.493" y="277.487" width="100%" height="100%" xlink:href="#b"/><use x="364.559" y="277.487" width="100%" height="100%" xlink:href="#b"/><use x="366.634" y="277.487" width="100%" height="100%" xlink:href="#b"/><use x="368.7" y="277.487" width="100%" height="100%" xlink:href="#b"/><use x="370.775" y="277.487" width="100%" height="100%" xlink:href="#b"/><use x="372.842" y="277.487" width="100%" height="100%" xlink:href="#b"/><use x="374.908" y="277.487" width="100%" height="100%" xlink:href="#b"/><use x="376.983" y="277.487" width="100%" height="100%" xlink:href="#b"/><use x="379.049" y="277.487" width="100%" height="100%" xlink:href="#b"/><use x="381.124" y="277.487" width="100%" height="100%" xlink:href="#b"/><use x="383.19" y="277.487" width="100%" height="100%" xlink:href="#b"/><use x="385.265" y="277.487" width="100%" height="100%" xlink:href="#b"/><use x="387.332" y="277.487" width="100%" height="100%" xlink:href="#b"/><use x="389.406" y="277.487" width="100%" height="100%" xlink:href="#b"/><use x="391.473" y="277.487" width="100%" height="100%" xlink:href="#b"/><use x="393.548" y="277.487" width="100%" height="100%" xlink:href="#b"/><use x="395.614" y="277.487" width="100%" height="100%" xlink:href="#b"/><use x="397.689" y="277.487" width="100%" height="100%" xlink:href="#b"/><use x="399.755" y="277.487" width="100%" height="100%" xlink:href="#b"/><use x="401.83" y="277.487" width="100%" height="100%" xlink:href="#b"/><use x="403.896" y="277.487" width="100%" height="100%" xlink:href="#b"/><use x="405.963" y="277.487" width="100%" height="100%" xlink:href="#b"/><use x="408.038" y="277.487" width="100%" height="100%" xlink:href="#b"/><use x="410.104" y="277.487" width="100%" height="100%" xlink:href="#b"/><use x="412.179" y="277.487" width="100%" height="100%" xlink:href="#b"/><use x="414.245" y="277.487" width="100%" height="100%" xlink:href="#b"/><use x="416.32" y="277.487" width="100%" height="100%" xlink:href="#b"/><use x="418.386" y="277.487" width="100%" height="100%" xlink:href="#b"/><use x="420.461" y="277.487" width="100%" height="100%" xlink:href="#b"/><use x="422.528" y="277.487" width="100%" height="100%" xlink:href="#b"/><use x="424.602" y="277.487" width="100%" height="100%" xlink:href="#b"/><use x="426.669" y="277.487" width="100%" height="100%" xlink:href="#b"/><use x="428.744" y="277.487" width="100%" height="100%" xlink:href="#b"/><use x="430.81" y="277.487" width="100%" height="100%" xlink:href="#b"/><use x="432.885" y="277.487" width="100%" height="100%" xlink:href="#b"/><use x="434.951" y="277.487" width="100%" height="100%" xlink:href="#b"/><use x="437.018" y="277.487" width="100%" height="100%" xlink:href="#b"/><use x="439.092" y="277.487" width="100%" height="100%" xlink:href="#b"/><use x="441.159" y="277.487" width="100%" height="100%" xlink:href="#b"/><use x="443.234" y="277.487" width="100%" height="100%" xlink:href="#b"/><use x="445.3" y="277.487" width="100%" height="100%" xlink:href="#b"/><use x="447.375" y="277.487" width="100%" height="100%" xlink:href="#b"/><use x="449.441" y="277.487" width="100%" height="100%" xlink:href="#b"/><use x="225.85" y="302.6" width="100%" height="100%" xlink:href="#b"/><use x="227.916" y="302.6" width="100%" height="100%" xlink:href="#b"/><use x="229.991" y="302.6" width="100%" height="100%" xlink:href="#b"/><use x="232.058" y="302.6" width="100%" height="100%" xlink:href="#b"/><use x="234.132" y="302.6" width="100%" height="100%" xlink:href="#b"/><use x="236.199" y="302.6" width="100%" height="100%" xlink:href="#b"/><use x="238.274" y="302.6" width="100%" height="100%" xlink:href="#b"/><use x="240.34" y="302.6" width="100%" height="100%" xlink:href="#b"/><use x="242.415" y="302.6" width="100%" height="100%" xlink:href="#b"/><use x="244.481" y="302.6" width="100%" height="100%" xlink:href="#b"/><use x="246.556" y="302.6" width="100%" height="100%" xlink:href="#b"/><use x="248.622" y="302.6" width="100%" height="100%" xlink:href="#b"/><use x="250.697" y="302.6" width="100%" height="100%" xlink:href="#b"/><use x="252.764" y="302.6" width="100%" height="100%" xlink:href="#b"/><use x="254.838" y="302.6" width="100%" height="100%" xlink:href="#b"/><use x="256.905" y="302.6" width="100%" height="100%" xlink:href="#b"/><use x="258.971" y="302.6" width="100%" height="100%" xlink:href="#b"/><use x="261.046" y="302.6" width="100%" height="100%" xlink:href="#b"/><use x="263.112" y="302.6" width="100%" height="100%" xlink:href="#b"/><use x="265.187" y="302.6" width="100%" height="100%" xlink:href="#b"/><use x="267.254" y="302.6" width="100%" height="100%" xlink:href="#b"/><use x="269.328" y="302.6" width="100%" height="100%" xlink:href="#b"/><use x="271.395" y="302.6" width="100%" height="100%" xlink:href="#b"/><use x="273.47" y="302.6" width="100%" height="100%" xlink:href="#b"/><use x="275.536" y="302.6" width="100%" height="100%" xlink:href="#b"/><use x="277.611" y="302.6" width="100%" height="100%" xlink:href="#b"/><use x="225.85" y="327.712" width="100%" height="100%" xlink:href="#b"/><use x="227.916" y="327.712" width="100%" height="100%" xlink:href="#b"/><use x="229.991" y="327.712" width="100%" height="100%" xlink:href="#b"/><use x="232.058" y="327.712" width="100%" height="100%" xlink:href="#b"/><use x="234.132" y="327.712" width="100%" height="100%" xlink:href="#b"/><use x="236.199" y="327.712" width="100%" height="100%" xlink:href="#b"/><use x="238.274" y="327.712" width="100%" height="100%" xlink:href="#b"/><use x="240.34" y="327.712" width="100%" height="100%" xlink:href="#b"/><use x="242.415" y="327.712" width="100%" height="100%" xlink:href="#b"/><use x="244.481" y="327.712" width="100%" height="100%" xlink:href="#b"/><use x="246.556" y="327.712" width="100%" height="100%" xlink:href="#b"/><use x="248.622" y="327.712" width="100%" height="100%" xlink:href="#b"/><use x="250.697" y="327.712" width="100%" height="100%" xlink:href="#b"/><use x="252.764" y="327.712" width="100%" height="100%" xlink:href="#b"/><use x="254.838" y="327.712" width="100%" height="100%" xlink:href="#b"/><use x="256.905" y="327.712" width="100%" height="100%" xlink:href="#b"/><use x="258.971" y="327.712" width="100%" height="100%" xlink:href="#b"/><use x="261.046" y="327.712" width="100%" height="100%" xlink:href="#b"/><use x="263.112" y="327.712" width="100%" height="100%" xlink:href="#b"/><use x="265.187" y="327.712" width="100%" height="100%" xlink:href="#b"/><use x="267.254" y="327.712" width="100%" height="100%" xlink:href="#b"/><use x="269.328" y="327.712" width="100%" height="100%" xlink:href="#b"/><use x="271.395" y="327.712" width="100%" height="100%" xlink:href="#b"/><use x="273.47" y="327.712" width="100%" height="100%" xlink:href="#b"/><use x="275.536" y="327.712" width="100%" height="100%" xlink:href="#b"/><use x="277.611" y="327.712" width="100%" height="100%" xlink:href="#b"/><use x="279.677" y="327.712" width="100%" height="100%" xlink:href="#b"/><use x="281.752" y="327.712" width="100%" height="100%" xlink:href="#b"/><use x="283.818" y="327.712" width="100%" height="100%" xlink:href="#b"/><g><use x="285.885" y="327.712" width="100%" height="100%" xlink:href="#b"/><use x="287.96" y="327.712" width="100%" height="100%" xlink:href="#b"/></g><g><use x="290.026" y="327.712" width="100%" height="100%" xlink:href="#b"/><use x="292.101" y="327.712" width="100%" height="100%" xlink:href="#b"/></g><use x="294.167" y="327.712" width="100%" height="100%" xlink:href="#b"/><use x="303.652" y="351.5" width="100%" height="100%" xlink:href="#c"/><use x="369.208" y="351.5" width="100%" height="100%" xlink:href="#c"/></g><g clip-path="url(#aw)" transform="translate(-77 -393.45)"><path fill="#ddd" d="M89 427.69h38.865v25.152H89z"/></g><path d="M71 33.24h1V158.8h-1zm-59 0h59v1H12zm60 0h374.5v1H72zM12 58.35h59v1H12zm60 0h374.5v1H72zM12 83.46h59v1H12zm60 0h374.5v1H72zm-60 25.11h59v1H12zm60 0h374.5v1H72zm-60 25.12h59v1H12zm60 0h374.5v1H72z" fill="#dcdcdc"/><g transform="translate(-77 -393.45)" fill="#565656"><use x="152.75" y="444.237" width="100%" height="100%" xlink:href="#b"/><use x="160.922" y="444.237" width="100%" height="100%" xlink:href="#d"/><use x="169.166" y="444.237" width="100%" height="100%" xlink:href="#e"/></g><g transform="translate(-77 -393.45)" fill="#565656"><use x="172.082" y="444.237" width="100%" height="100%" xlink:href="#f"/><use x="179.594" y="444.237" width="100%" height="100%" xlink:href="#f"/><use x="187.106" y="444.237" width="100%" height="100%" xlink:href="#f"/><use x="194.618" y="444.237" width="100%" height="100%" xlink:href="#f"/><use x="202.13" y="444.237" width="100%" height="100%" xlink:href="#f"/><use x="209.642" y="444.237" width="100%" height="100%" xlink:href="#f"/><use x="217.154" y="444.237" width="100%" height="100%" xlink:href="#f"/></g><path d="M159.75 42.79h47.727v11H159.75z" fill="#dcdcdc"/><g fill="#565656" transform="translate(-77 -393.45)"><use x="152.75" y="469.35" width="100%" height="100%" xlink:href="#b"/><use x="160.922" y="469.35" width="100%" height="100%" xlink:href="#d"/><use x="169.166" y="469.35" width="100%" height="100%" xlink:href="#e"/><use x="172.082" y="469.35" width="100%" height="100%" xlink:href="#f"/><use x="179.594" y="469.35" width="100%" height="100%" xlink:href="#g"/><use x="186.866" y="469.35" width="100%" height="100%" xlink:href="#f"/><use x="194.39" y="469.35" width="100%" height="100%" xlink:href="#h"/><use x="201.566" y="469.35" width="100%" height="100%" xlink:href="#f"/><use x="209.078" y="469.35" width="100%" height="100%" xlink:href="#f"/><use x="216.59" y="469.35" width="100%" height="100%" xlink:href="#i"/></g><path d="M159.75 67.9h80.926v11H159.75z" fill="#dcdcdc"/><g fill="#565656" transform="translate(-77 -393.45)"><use x="152.75" y="494.462" width="100%" height="100%" xlink:href="#b"/><use x="160.922" y="494.462" width="100%" height="100%" xlink:href="#d"/><use x="169.166" y="494.462" width="100%" height="100%" xlink:href="#e"/><use x="172.082" y="494.462" width="100%" height="100%" xlink:href="#f"/><use x="179.594" y="494.462" width="100%" height="100%" xlink:href="#g"/><use x="186.866" y="494.462" width="100%" height="100%" xlink:href="#f"/><use x="194.39" y="494.462" width="100%" height="100%" xlink:href="#f"/><use x="201.902" y="494.462" width="100%" height="100%" xlink:href="#h"/><use x="209.078" y="494.462" width="100%" height="100%" xlink:href="#h"/><use x="216.254" y="494.462" width="100%" height="100%" xlink:href="#h"/></g><path d="M159.75 93.01H321.6v11H159.75z" fill="#dcdcdc"/><g fill="#565656" transform="translate(-77 -393.45)"><use x="152.75" y="519.575" width="100%" height="100%" xlink:href="#b"/><use x="160.922" y="519.575" width="100%" height="100%" xlink:href="#d"/><use x="169.166" y="519.575" width="100%" height="100%" xlink:href="#e"/><use x="172.082" y="519.575" width="100%" height="100%" xlink:href="#h"/><use x="179.258" y="519.575" width="100%" height="100%" xlink:href="#f"/><use x="186.77" y="519.575" width="100%" height="100%" xlink:href="#g"/><use x="194.054" y="519.575" width="100%" height="100%" xlink:href="#f"/><use x="201.566" y="519.575" width="100%" height="100%" xlink:href="#h"/><use x="208.742" y="519.575" width="100%" height="100%" xlink:href="#g"/><use x="216.026" y="519.575" width="100%" height="100%" xlink:href="#f"/></g><path d="M159.75 118.12h37.352v11H159.75z" fill="#dcdcdc"/><g fill="#565656" transform="translate(-77 -393.45)"><use x="152.75" y="544.688" width="100%" height="100%" xlink:href="#b"/><use x="160.922" y="544.688" width="100%" height="100%" xlink:href="#d"/><use x="169.166" y="544.688" width="100%" height="100%" xlink:href="#e"/><use x="172.082" y="544.688" width="100%" height="100%" xlink:href="#f"/><use x="179.594" y="544.688" width="100%" height="100%" xlink:href="#g"/><use x="186.866" y="544.688" width="100%" height="100%" xlink:href="#f"/><use x="194.39" y="544.688" width="100%" height="100%" xlink:href="#g"/><use x="201.662" y="544.688" width="100%" height="100%" xlink:href="#f"/><use x="209.174" y="544.688" width="100%" height="100%" xlink:href="#g"/><use x="216.458" y="544.688" width="100%" height="100%" xlink:href="#f"/></g><path d="M159.75 143.24h37.352v11H159.75z" fill="#dcdcdc"/><g fill-opacity=".871" transform="translate(-77 -607.95)"><use x="236.75" y="544.688" width="100%" height="100%" xlink:href="#b"/><use x="238.816" y="544.688" width="100%" height="100%" xlink:href="#b"/><use x="240.891" y="544.688" width="100%" height="100%" xlink:href="#b"/><use x="242.958" y="544.688" width="100%" height="100%" xlink:href="#b"/><use x="245.032" y="544.688" width="100%" height="100%" xlink:href="#b"/><use x="247.099" y="544.688" width="100%" height="100%" xlink:href="#b"/><use x="249.174" y="544.688" width="100%" height="100%" xlink:href="#b"/><use x="251.24" y="544.688" width="100%" height="100%" xlink:href="#b"/><use x="253.315" y="544.688" width="100%" height="100%" xlink:href="#b"/><use x="255.381" y="544.688" width="100%" height="100%" xlink:href="#b"/><use x="257.456" y="544.688" width="100%" height="100%" xlink:href="#b"/><use x="259.522" y="544.688" width="100%" height="100%" xlink:href="#b"/><use x="261.597" y="544.688" width="100%" height="100%" xlink:href="#b"/><use x="263.664" y="544.688" width="100%" height="100%" xlink:href="#b"/><use x="265.738" y="544.688" width="100%" height="100%" xlink:href="#b"/><use x="267.805" y="544.688" width="100%" height="100%" xlink:href="#b"/><use x="269.871" y="544.688" width="100%" height="100%" xlink:href="#b"/><use x="271.946" y="544.688" width="100%" height="100%" xlink:href="#b"/></g><g fill-opacity=".541" transform="translate(-77 -393.45)"><use x="92.75" y="419.7" width="100%" height="100%" xlink:href="#j"/><use x="98.501" y="419.7" width="100%" height="100%" xlink:href="#k"/><use x="103.361" y="419.7" width="100%" height="100%" xlink:href="#l"/><use x="108.41" y="419.7" width="100%" height="100%" xlink:href="#c"/><use x="111.443" y="419.7" width="100%" height="100%" xlink:href="#a"/><use x="113.828" y="419.7" width="100%" height="100%" xlink:href="#m"/><use x="118.895" y="419.7" width="100%" height="100%" xlink:href="#k"/><use x="123.755" y="419.7" width="100%" height="100%" xlink:href="#n"/><use x="152.75" y="419.7" width="100%" height="100%" xlink:href="#o"/><use x="158.87" y="419.7" width="100%" height="100%" xlink:href="#p"/><use x="165.08" y="419.7" width="100%" height="100%" xlink:href="#q"/><use x="167.321" y="419.7" width="100%" height="100%" xlink:href="#c"/><use x="170.345" y="419.7" width="100%" height="100%" xlink:href="#k"/><use x="175.205" y="419.7" width="100%" height="100%" xlink:href="#q"/><use x="178.49" y="419.7" width="100%" height="100%" xlink:href="#r"/><use x="236.75" y="419.7" width="100%" height="100%" xlink:href="#s"/><use x="243.104" y="419.7" width="100%" height="100%" xlink:href="#t"/><use x="247.928" y="419.7" width="100%" height="100%" xlink:href="#r"/><use x="255.713" y="419.7" width="100%" height="100%" xlink:href="#k"/></g><use x="493.05" y="444.987" width="100%" height="100%" xlink:href="#u" transform="translate(-77 -393.45)" fill-opacity=".871"/><use x="510.15" y="443.825" width="100%" height="100%" xlink:href="#v" transform="translate(-77 -393.45)" fill="#dcdcdc"/><use x="493.05" y="470.1" width="100%" height="100%" xlink:href="#u" transform="translate(-77 -393.45)"/><use x="510.15" y="468.938" width="100%" height="100%" xlink:href="#v" transform="translate(-77 -393.45)" fill="#dcdcdc"/><use x="493.05" y="495.212" width="100%" height="100%" xlink:href="#u" transform="translate(-77 -393.45)"/><use x="510.15" y="494.05" width="100%" height="100%" xlink:href="#v" transform="translate(-77 -393.45)" fill="#dcdcdc"/><use x="493.05" y="520.325" width="100%" height="100%" xlink:href="#u" transform="translate(-77 -393.45)"/><use x="510.15" y="519.162" width="100%" height="100%" xlink:href="#v" transform="translate(-77 -393.45)" fill="#dcdcdc"/><use x="493.05" y="545.438" width="100%" height="100%" xlink:href="#u" transform="translate(-77 -393.45)"/><use x="510.15" y="544.275" width="100%" height="100%" xlink:href="#v" transform="translate(-77 -393.45)" fill="#dcdcdc"/><g fill="#ddd"><path d="M12 59.34h22.524v24.224H12zm0 25.01h20.395v24.684H12z"/><path d="M12 109h17.14v24.684H12zm0 25.69h15.423v24.075H12z"/></g><g transform="translate(418.83 -158.99) scale(.25819)" stroke-dashoffset="8.693" stroke-linecap="round" stroke-linejoin="round" stroke="#000" stroke-width="1.701"><path fill="none" d="M593.4 671.78h86v55.999h-86z"/><rect x="593.4" y="671.78" width="85.895" height="16" ry="0" fill="#585858"/></g><g transform="translate(362.34 -133.64) scale(.25819)" stroke="#000" stroke-dashoffset="8.693" stroke-linecap="round" stroke-linejoin="round" stroke-width="1.701"><path fill="none" d="M593.4 671.78h86v55.999h-86z"/><rect x="593.4" y="671.78" width="85.895" height="16" ry="0" fill="#585858"/></g><g transform="translate(402.37 -133.31) scale(.25819)" stroke="#000" stroke-dashoffset="8.693" stroke-linecap="round" stroke-linejoin="round" stroke-width="1.701"><path fill="none" d="M593.4 671.78h86v55.999h-86z"/><rect x="593.4" y="671.78" width="85.895" height="16" ry="0" fill="#585858"/></g><g transform="translate(448.27 -133.15) scale(.25819)" stroke="#000" stroke-dashoffset="8.693" stroke-linecap="round" stroke-linejoin="round" stroke-width="1.701"><path fill="none" d="M593.4 671.78h86v55.999h-86z"/><rect x="593.4" y="671.78" width="85.895" height="16" ry="0" fill="#585858"/></g><g transform="translate(410.83 -116.55) scale(.25819)" stroke="#000" stroke-dashoffset="8.693" stroke-linecap="round" stroke-linejoin="round" stroke-width="1.701"><path fill="none" d="M593.4 671.78h86v55.999h-86z"/><rect x="593.4" y="671.78" width="85.895" height="16" ry="0" fill="#585858"/></g><g transform="translate(355.34 -79.93) scale(.25819)" stroke="#000" stroke-dashoffset="8.693" stroke-linecap="round" stroke-linejoin="round" stroke-width="1.701"><path fill="none" d="M593.4 671.78h86v55.999h-86z"/><rect x="593.4" y="671.78" width="85.895" height="16" ry="0" fill="#585858"/></g><g transform="translate(385.45 -97.02) scale(.25819)" stroke="#000" stroke-dashoffset="8.693" stroke-linecap="round" stroke-linejoin="round" stroke-width="1.701"><path fill="none" d="M593.4 671.78h86v55.999h-86z"/><rect x="593.4" y="671.78" width="85.895" height="16" ry="0" fill="#585858"/></g><g transform="translate(396.19 -79.61) scale(.25819)" stroke="#000" stroke-dashoffset="8.693" stroke-linecap="round" stroke-linejoin="round" stroke-width="1.701"><path fill="none" d="M593.4 671.78h86v55.999h-86z"/><rect x="593.4" y="671.78" width="85.895" height="16" ry="0" fill="#585858"/></g><g transform="translate(419.95 -96.86) scale(.25819)" stroke="#000" stroke-dashoffset="8.693" stroke-linecap="round" stroke-linejoin="round" stroke-width="1.701"><path fill="none" d="M593.4 671.78h86v55.999h-86z"/><rect x="593.4" y="671.78" width="85.895" height="16" ry="0" fill="#585858"/></g><g transform="translate(399.28 -61.38) scale(.25819)" stroke="#000" stroke-dashoffset="8.693" stroke-linecap="round" stroke-linejoin="round" stroke-width="1.701"><path fill="none" d="M593.4 671.78h86v55.999h-86z"/><rect x="593.4" y="671.78" width="85.895" height="16" ry="0" fill="#585858"/></g><g transform="translate(375.03 -61.22) scale(.25819)" stroke="#000" stroke-dashoffset="8.693" stroke-linecap="round" stroke-linejoin="round" stroke-width="1.701"><path fill="none" d="M593.4 671.78h86v55.999h-86z"/><rect x="593.4" y="671.78" width="85.895" height="16" ry="0" fill="#585858"/></g><g transform="translate(366.57 -44.13) scale(.25819)" stroke="#000" stroke-dashoffset="8.693" stroke-linecap="round" stroke-linejoin="round" stroke-width="1.701"><path fill="none" d="M593.4 671.78h86v55.999h-86z"/><rect x="593.4" y="671.78" width="85.895" height="16" ry="0" fill="#585858"/></g><g transform="translate(407.09 -44.29) scale(.25819)" stroke="#000" stroke-dashoffset="8.693" stroke-linecap="round" stroke-linejoin="round" stroke-width="1.701"><path fill="none" d="M593.4 671.78h86v55.999h-86z"/><rect x="593.4" y="671.78" width="85.895" height="16" ry="0" fill="#585858"/></g><g fill="#f9f9f9" stroke-dashoffset="8.693" stroke-linecap="round" stroke-linejoin="round" stroke="#000" stroke-width="1.701"><g transform="translate(366.57 -27.04) scale(.25819)"><path d="M593.4 671.78h86v55.999h-86z"/><rect x="593.4" y="671.78" width="85.895" height="16" ry="0" fill="#535353"/></g><g transform="translate(406.94 -27.15) scale(.25819)"><path d="M593.4 671.78h86v55.999h-86z"/><rect x="593.4" y="671.78" width="85.895" height="16" ry="0" fill="#535353"/></g><g transform="translate(460.34 -80.09) scale(.25819)"><path d="M593.4 671.78h86v55.999h-86z"/><rect x="593.4" y="671.78" width="85.895" height="16" ry="0" fill="#535353"/></g><g transform="translate(433.41 -79.63) scale(.25819)"><path d="M593.4 671.78h86v55.999h-86z"/><rect x="593.4" y="671.78" width="85.895" height="16" ry="0" fill="#535353"/></g><g transform="translate(399.28 -61.38) scale(.25819)"><path d="M593.4 671.78h86v55.999h-86z"/><rect x="593.4" y="671.78" width="85.895" height="16" ry="0" fill="#535353"/></g></g><g transform="translate(460.22 -97.12) scale(.25819)" stroke="#000" stroke-dashoffset="8.693" stroke-linecap="round" stroke-linejoin="round" stroke-width="1.701"><path fill="none" d="M593.4 671.78h86v55.999h-86z"/><rect x="593.4" y="671.78" width="85.895" height="16" ry="0" fill="#585858"/></g><g stroke="#000" stroke-dashoffset="8.693" stroke-linecap="round" stroke-linejoin="round" transform="translate(460.34 -116.61) scale(.25819)" stroke-width="1.701"><path fill="none" d="M593.4 671.78h86v55.999h-86z"/><rect x="593.4" y="671.78" width="85.895" height="16" ry="0" fill="#585858"/></g><g fill="none" stroke-width=".75" stroke="#000"><path d="M519.01 92.76l-.46-35.674 8.515-2.762 4.604 1.611.92 40.047 4.604 5.294-.23 10.587M552.84 91.38l1.841 2.532m-.921-18.872l20.024-3.913 11.048 5.754M572.17 40.06l8.976-10.587M527.29 39.14l2.302-4.833 51.555-4.834M611.53 40.29l-1.381-5.294-29-5.523 51.325 4.142-.23 20.024-7.365 3.223m.461 19.098v-5.294m.92 19.794v2.992"/><path d="M573.78 71.13l25.548 2.762.69 19.794 5.064-2.762 1.15-31.071 5.985-5.064M564.35 112.56v-3.683l15.651 2.532-.46 14.5-6.675 3.683M519.47 108.64l1.15 17.032 10.358 3.222 7.365-2.301m-7.833 17.267l.23 3.452m41.43-3.912v2.532m-35.21-34.062l27.389-2.992"/></g></svg>