<svg height="740" version="1.1" viewBox="0 0 452.38 369.33" xml:space="preserve" xmlns="http://www.w3.org/2000/svg" xmlns:xlink="http://www.w3.org/1999/xlink" width="915" style="margin;margin: -16px;"><defs><clipPath id="s"><path d="m409 516h11v-11h-11z"></path></clipPath><clipPath id="r"><path d="m409 516h11v-11h-11z"></path></clipPath><clipPath id="q"><path d="m409 486h11v-12h-11z"></path></clipPath><clipPath id="p"><path d="m409 486h11v-12h-11z"></path></clipPath><clipPath id="o"><path d="m126 520h277v-277h-277z"></path></clipPath><clipPath id="n"><path d="m126 520h277v-277h-277z"></path></clipPath><clipPath id="m"><path d="m126 520h277v-277h-277z"></path></clipPath><clipPath id="l"><path d="m126 520h277v-277h-277z"></path></clipPath><clipPath id="k"><path d="m126 520h277v-277h-277z"></path></clipPath><clipPath id="j"><path d="m126 520h277v-277h-277z"></path></clipPath><clipPath id="i"><path d="m126 520h277v-277h-277z"></path></clipPath><clipPath id="h"><path d="m126 520h277v-277h-277z"></path></clipPath><clipPath id="g"><path d="m126 520h277v-277h-277z"></path></clipPath><clipPath id="f"><path d="m126 520h277v-277h-277z"></path></clipPath><clipPath id="e"><path d="m126 520h277v-277h-277z"></path></clipPath><clipPath id="d"><path d="m126 520h277v-277h-277z"></path></clipPath><clipPath id="c"><path d="m126 520h277v-277h-277z"></path></clipPath><clipPath id="b"><path d="m126 520h277v-277h-277z"></path></clipPath><clipPath id="a"><path d="m126 520h277v-277h-277z"></path></clipPath></defs><g transform="matrix(1.3333 0 0 -1.3333 -168 693.33)"><g fill="#818181"><rect transform="scale(1,-1)" x="422.84" y="-515.16" width="19.562" height="4.0944"></rect><rect transform="scale(1,-1)" x="422.58" y="-508.13" width="32.09" height="4.0944"></rect><rect transform="scale(1,-1)" x="422.7" y="-499.84" width="25.297" height="4.0944"></rect><rect transform="scale(1,-1)" x="422.44" y="-492.81" width="28.916" height="4.0944"></rect></g><g clip-path="url(#s)"><path d="m414.12 516.33h6v-11h-6z" fill="#fff"></path></g><g clip-path="url(#r)"><path d="m414.12 516.33c2.711 0 5.035-1.934 5.531-4.598 0.492-2.668-0.98-5.304-3.511-6.277l-2.02 5.25z" fill="#acacac"></path></g><path d="m414.12 500.96h2v-6h-2z" fill="#fff"></path><path d="m414.12 500.96c0.629 0 1.254-0.105 1.848-0.312l-1.848-5.313z" fill="#d2d2d2"></path><g clip-path="url(#q)"><path d="m414.12 485.58h6v-12h-6z" fill="#fff"></path></g><g clip-path="url(#p)"><path d="m414.12 485.58c2.879 0 5.293-2.176 5.594-5.039s-1.61-5.492-4.426-6.09l-1.168 5.504z" fill="#ddd"></path></g><g clip-path="url(#o)"><path d="m125.5 520.33h278v-278h-278z" fill="#fff"></path></g><path d="m264.5 380.96c-0.207 0-0.375 0.168-0.375 0.375s0.168 0.375 0.375 0.375 0.375-0.168 0.375-0.375-0.168-0.375-0.375-0.375z" fill="#c5c5c5" fill-rule="evenodd"></path><path d="m264.5 380.96c-0.207 0-0.375 0.168-0.375 0.375s0.168 0.375 0.375 0.375 0.375-0.168 0.375-0.375-0.168-0.375-0.375-0.375z" fill="#acacac" fill-rule="evenodd"></path><path d="m264.5 373.46c-4.348 0-7.875 3.523-7.875 7.875 0 4.348 3.527 7.875 7.875 7.875s7.875-3.527 7.875-7.875c0-4.352-3.527-7.875-7.875-7.875z" fill="#d2d2d2" fill-rule="evenodd"></path><path d="m264.5 340.64c-22.473 0-40.688 18.214-40.688 40.687 0 22.469 18.215 40.688 40.688 40.688s40.688-18.219 40.688-40.688c0-22.473-18.215-40.687-40.688-40.687m0 33.187c4.141 0 7.5 3.356 7.5 7.5 0 4.141-3.359 7.5-7.5 7.5s-7.5-3.359-7.5-7.5c0-4.144 3.359-7.5 7.5-7.5z" fill="#ddd" fill-rule="evenodd"></path><path d="m264.5 454.83c11.043 0 21.941-2.488 31.891-7.281l-14.399-29.899c-5.457 2.625-11.437 3.993-17.492 3.993z" fill="#e5e5e5" fill-rule="evenodd"></path><path d="m264.5 487.64c15.973 0 31.738-3.598 46.129-10.528l-14.402-29.902c-9.899 4.765-20.743 7.242-31.727 7.242z" fill="#e7e7e7" fill-rule="evenodd"></path><g clip-path="url(#n)"><path d="m264.5 520.46c20.902 0 41.531-4.711 60.363-13.777l-14.398-29.903c-14.34 6.907-30.051 10.493-45.965 10.493z" fill="#e9e9e9" fill-rule="evenodd"></path></g><g clip-path="url(#m)"><path d="m264.5 553.27c25.832 0 51.328-5.821 74.602-17.028l-14.399-29.902c-18.781 9.043-39.359 13.742-60.203 13.742z" fill="#ebebeb" fill-opacity=".2" fill-rule="evenodd"></path></g><path d="m296.39 447.55c30.894-14.875 47.398-49.145 39.765-82.574-7.629-33.434-37.363-57.145-71.656-57.145s-64.027 23.711-71.656 57.145l32.355 7.382c4.184-18.336 20.492-31.339 39.301-31.339s35.117 13.003 39.301 31.339c4.187 18.336-4.863 37.133-21.809 45.293z" fill="#d5d5d5" fill-rule="evenodd"></path><path d="m310.63 477.12c44.687-21.523 68.555-71.086 57.519-119.44-11.039-48.36-54.046-82.656-103.65-82.656v33.187c34.117 0 63.699 23.59 71.293 56.852 7.59 33.261-8.828 67.351-39.566 82.156z" fill="#ddd" fill-rule="evenodd"></path><path d="m324.86 506.68c18.832-9.071 35.379-22.266 48.41-38.606l-25.949-20.691c-9.922 12.441-22.519 22.488-36.859 29.394z" fill="#ddd" fill-rule="evenodd"></path><g clip-path="url(#l)"><path d="m373.27 468.07c40.469-50.75 40.469-122.74 0-173.48l-25.949 20.691c30.817 38.641 30.817 93.457 0 132.1z" fill="#ddd" fill-rule="evenodd"></path></g><g clip-path="url(#k)"><path d="m398.93 488.53c50.015-62.715 50.015-151.68 0-214.4l-25.946 20.691c40.36 50.614 40.36 122.41 0 173.02z" fill="#dfdfdf" fill-opacity=".2" fill-rule="evenodd"></path></g><path d="m373.27 294.59c-13.031-16.344-29.578-29.539-48.41-38.606l-14.398 29.903c14.34 6.902 26.937 16.949 36.859 29.394z" fill="#d8d8d8" fill-rule="evenodd"></path><g clip-path="url(#j)"><path d="m398.93 274.13c-16.106-20.195-36.551-36.5-59.824-47.707l-14.399 29.898c18.777 9.047 35.281 22.203 48.277 38.5z" fill="#dbdbdb" fill-opacity=".2" fill-rule="evenodd"></path></g><g clip-path="url(#i)"><path d="m324.86 255.98c-18.832-9.07-39.461-13.777-60.363-13.777v33.188c15.914 0 31.625 3.585 45.965 10.492z" fill="#fff" fill-rule="evenodd"></path></g><path d="m264.5 275.02c-49.602 0-92.609 34.296-103.65 82.656l32.355 7.383c7.594-33.262 37.176-56.852 71.293-56.852z" fill="#cdcdcd" fill-rule="evenodd"></path><g clip-path="url(#h)"><path d="m264.5 242.21c-64.91 0-121.19 44.883-135.64 108.16l32.356 7.387c10.996-48.188 53.855-82.363 103.28-82.363z" fill="#cfcfcf" fill-rule="evenodd"></path></g><g clip-path="url(#g)"><path d="m264.5 209.4c-80.219 0-149.78 55.468-167.62 133.68l32.355 7.387c14.403-63.113 70.536-107.88 135.27-107.88z" fill="#d1d1d1" fill-opacity=".2" fill-rule="evenodd"></path></g><g clip-path="url(#f)"><path d="m264.5 176.58c-95.527 0-178.36 66.055-199.62 159.19l32.355 7.386c17.813-78.039 87.219-133.39 167.26-133.39z" fill="#d3d3d3" fill-opacity=".2" fill-rule="evenodd"></path></g><path d="m192.84 364.98c-4.977 21.804 0.246 44.691 14.191 62.179l25.945-20.691c-7.648-9.59-10.511-22.145-7.781-34.106z" fill="#c4c4c4" fill-rule="evenodd"></path><path d="m160.85 357.68c-7.2 31.543 0.359 64.644 20.531 89.941l25.945-20.691c-13.875-17.403-19.07-40.172-14.121-61.867z" fill="#c6c6c6" fill-rule="evenodd"></path><g clip-path="url(#e)"><path d="m128.86 350.37c-9.422 41.281 0.465 84.602 26.864 117.7l25.949-20.691c-20.102-25.207-27.633-58.195-20.457-89.625z" fill="#c9c9c9" fill-rule="evenodd"></path></g><g clip-path="url(#d)"><path d="m96.875 343.07c-11.645 51.016 0.574 104.56 33.199 145.46l25.946-20.691c-26.325-33.012-36.188-76.219-26.79-117.38z" fill="#cbcbcb" fill-opacity=".2" fill-rule="evenodd"></path></g><g clip-path="url(#c)"><path d="m64.883 335.77c-13.863 60.75 0.687 124.5 39.539 173.22l25.945-20.695c-32.555-40.817-44.746-94.238-33.129-145.14z" fill="#cecece" fill-opacity=".2" fill-rule="evenodd"></path></g><path d="m207.04 427.16c13.945 17.489 35.098 27.676 57.465 27.676v-33.187c-12.27 0-23.867-5.586-31.52-15.18z" fill="#c1c1c1" fill-rule="evenodd"></path><path d="m181.38 447.62c20.172 25.293 50.765 40.028 83.117 40.028v-33.188c-22.254 0-43.297-10.133-57.172-27.531z" fill="#c4c4c4" fill-rule="evenodd"></path><path d="m155.73 468.07c13.031 16.34 29.578 29.535 48.41 38.606l14.398-29.903c-14.34-6.906-26.937-16.953-36.859-29.394z" fill="#c8c8c8" fill-rule="evenodd"></path><g clip-path="url(#b)"><path d="m130.07 488.53c16.106 20.196 36.551 36.504 59.824 47.711l14.399-29.902c-18.777-9.043-35.281-22.203-48.277-38.5z" fill="#cbcbcb" fill-opacity=".2" fill-rule="evenodd"></path></g><g clip-path="url(#a)"><path d="m204.14 506.68c18.832 9.066 39.461 13.777 60.363 13.777v-33.187c-15.914 0-31.625-3.586-45.965-10.493z" fill="#fff" fill-rule="evenodd"></path></g><rect transform="scale(1,-1)" x="422.57" y="-483.13" width="25.297" height="4.0944" fill="#818181"></rect><rect transform="scale(1,-1)" x="422.3" y="-476.11" width="28.916" height="4.0944" fill="#818181"></rect></g></svg>