<svg width="916" height="620" viewBox="0 0 687 465" xmlns="http://www.w3.org/2000/svg" xmlns:xlink="http://www.w3.org/1999/xlink"><defs><symbol id="a" overflow="visible"><path d="M5.344-2.797c0 .574-.106 1.078-.313 1.516a2.273 2.273 0 0 1-.875 1.015c-.375.23-.808.344-1.297.344-.492 0-.93-.113-1.312-.344a2.494 2.494 0 0 1-.89-1c-.212-.437-.313-.937-.313-1.5v-.297c0-.57.101-1.078.312-1.515.207-.438.5-.774.875-1.016.383-.238.82-.36 1.313-.36.488 0 .922.122 1.297.36a2.4 2.4 0 0 1 .89 1.016c.207.437.313.945.313 1.515zm-1.235-.266c0-.613-.109-1.082-.328-1.406-.218-.32-.531-.484-.937-.484s-.719.164-.938.484c-.218.313-.328.778-.328 1.39v.282c0 .594.11 1.059.328 1.39.219.337.535.5.953.5.395 0 .704-.156.922-.468.219-.32.328-.79.328-1.406z"/></symbol><symbol id="b" overflow="visible"><path d="M2.89-3.266a3.4 3.4 0 0 0-.406-.03c-.449 0-.742.148-.875.437V0H.453v-4.36h1.094l.031.516c.227-.394.551-.593.969-.593.133 0 .254.015.36.046z"/></symbol><symbol id="c" overflow="visible"><path d="M.281-2.219c0-.664.156-1.203.469-1.61.32-.405.754-.609 1.297-.609.476 0 .848.164 1.11.485l.046-.406h1.063v4.218c0 .375-.09.703-.266.985a1.618 1.618 0 0 1-.734.64c-.313.157-.68.235-1.094.235-.324 0-.637-.07-.938-.203a1.679 1.679 0 0 1-.687-.485l.515-.703c.29.32.641.484 1.047.484.313 0 .551-.085.72-.25.175-.167.265-.402.265-.703v-.234C2.82-.07 2.469.078 2.03.078a1.53 1.53 0 0 1-1.265-.61C.44-.937.28-1.476.28-2.155zm1.156.094c0 .398.079.71.235.937a.78.78 0 0 0 .656.329c.352 0 .61-.133.766-.407v-1.828c-.157-.27-.407-.406-.75-.406a.792.792 0 0 0-.672.344c-.156.23-.235.574-.235 1.03z"/></symbol><symbol id="d" overflow="visible"><path d="M2.969 0a1.13 1.13 0 0 1-.11-.39c-.28.312-.652.468-1.109.468-.43 0-.781-.117-1.062-.36a1.214 1.214 0 0 1-.407-.937c0-.468.164-.82.5-1.062.344-.25.836-.375 1.485-.375h.547v-.25c0-.207-.055-.367-.157-.485-.105-.125-.273-.187-.5-.187a.69.69 0 0 0-.453.14.473.473 0 0 0-.172.391H.375c0-.25.078-.484.234-.703s.375-.383.657-.5c.281-.125.597-.188.953-.188.539 0 .969.137 1.281.407.313.273.469.652.469 1.14V-1c.008.407.07.72.187.938V0zm-.953-.813c.164 0 .32-.035.468-.109a.874.874 0 0 0 .329-.312v-.75h-.438c-.586 0-.898.203-.937.609v.063c0 .148.05.265.156.359.101.094.242.14.422.14z"/></symbol><symbol id="e" overflow="visible"><path d="M1.516-4.36l.046.5c.301-.382.72-.578 1.25-.578.458 0 .797.137 1.016.407.227.273.348.68.36 1.219V0H3.015v-2.781c0-.25-.055-.43-.157-.547-.105-.113-.28-.172-.53-.172-.337 0-.58.14-.735.422V0H.422v-4.36z"/></symbol><symbol id="f" overflow="visible"><path d="M1.672 0H.5v-4.36h1.172zM.438-5.484a.59.59 0 0 1 .171-.438.693.693 0 0 1 .485-.172.65.65 0 0 1 .469.172.573.573 0 0 1 .187.438.56.56 0 0 1-.187.437c-.118.117-.274.172-.47.172a.677.677 0 0 1-.484-.172.577.577 0 0 1-.171-.437z"/></symbol><symbol id="g" overflow="visible"><path d="M2.813-1.203c0-.145-.075-.254-.22-.328-.136-.082-.359-.16-.671-.235C.879-1.984.359-2.422.359-3.078c0-.383.16-.707.485-.969.32-.258.742-.39 1.265-.39.551 0 .989.132 1.313.39.332.262.5.602.5 1.016H2.766a.534.534 0 0 0-.172-.406c-.106-.114-.274-.172-.5-.172a.69.69 0 0 0-.453.14.403.403 0 0 0-.157.328c0 .137.055.246.172.328.125.075.332.141.625.204.29.054.535.117.735.187.613.219.922.61.922 1.172 0 .398-.172.719-.516.969-.336.242-.774.36-1.313.36-.367 0-.695-.063-.984-.188a1.77 1.77 0 0 1-.672-.532 1.292 1.292 0 0 1-.234-.75h1.11a.624.624 0 0 0 .218.485c.144.105.336.156.578.156.227 0 .398-.04.516-.125a.387.387 0 0 0 .172-.328z"/></symbol><symbol id="h" overflow="visible"><path d="M1.531-4.36l.047.485c.3-.375.719-.563 1.25-.563.563 0 .945.22 1.156.657.301-.438.739-.657 1.313-.657.469 0 .816.141 1.047.422.226.274.343.684.343 1.235V0H5.531v-2.781c0-.25-.054-.43-.156-.547-.094-.113-.262-.172-.5-.172-.355 0-.602.168-.734.5l.015 3H2.984v-2.781c0-.25-.054-.43-.156-.547-.094-.113-.262-.172-.5-.172-.336 0-.574.14-.719.422V0H.453v-4.36z"/></symbol><clipPath id="i"><path d="M77 152h687v450.75H77z"/></clipPath><clipPath id="j"><path d="M77 162h254v440.75H77z"/></clipPath><clipPath id="k"><path d="M77 302h254v300.75H77z"/></clipPath><clipPath id="l"><path d="M77 389h254v213.75H77z"/></clipPath><clipPath id="m"><path d="M94 497h237v105.75H94z"/></clipPath><clipPath id="n"><path d="M94 561h29v41.75H94z"/></clipPath><clipPath id="o"><path d="M94 569h29v33.75H94z"/></clipPath><clipPath id="p"><path d="M94 576h29v26.75H94z"/></clipPath><clipPath id="q"><path d="M210 504h121v98.75H210z"/></clipPath><clipPath id="r"><path d="M210 512h121v90.75H210z"/></clipPath><clipPath id="s"><path d="M289 519h42v83.75h-42z"/></clipPath><clipPath id="t"><path d="M289 527h42v75.75h-42z"/></clipPath><clipPath id="u"><path d="M256 519h33v83.75h-33z"/></clipPath><clipPath id="v"><path d="M210 542h46v60.75h-46z"/></clipPath><clipPath id="w"><path d="M123 554h33v48.75h-33z"/></clipPath><clipPath id="x"><path d="M140 562h16v40.75h-16z"/></clipPath><clipPath id="y"><path d="M123 562h17v40.75h-17z"/></clipPath><clipPath id="z"><path d="M123 569h17v33.75h-17z"/></clipPath><clipPath id="A"><path d="M156 504h54v98.75h-54z"/></clipPath><clipPath id="B"><path d="M156 561h54v41.75h-54z"/></clipPath><clipPath id="C"><path d="M156 580h54v22.75h-54z"/></clipPath><clipPath id="D"><path d="M77 525h17v77.75H77z"/></clipPath><clipPath id="E"><path d="M77 533h17v69.75H77z"/></clipPath><clipPath id="F"><path d="M77 561h17v41.75H77z"/></clipPath><clipPath id="G"><path d="M77 569h17v33.75H77z"/></clipPath><clipPath id="H"><path d="M331 160h433v442.75H331z"/></clipPath><clipPath id="I"><path d="M331 236h433v366.75H331z"/></clipPath><clipPath id="J"><path d="M331 247h433v355.75H331z"/></clipPath><clipPath id="K"><path d="M331 254h433v348.75H331z"/></clipPath><clipPath id="L"><path d="M331 263h433v339.75H331z"/></clipPath><clipPath id="M"><path d="M331 270h433v332.75H331z"/></clipPath><clipPath id="N"><path d="M331 278h433v324.75H331z"/></clipPath><clipPath id="O"><path d="M331 285h433v317.75H331z"/></clipPath><clipPath id="P"><path d="M331 293h433v309.75H331z"/></clipPath><clipPath id="Q"><path d="M331 300h433v302.75H331z"/></clipPath></defs><path d="M0 0h687v15H0z" fill="#ff8f00"/><g fill="#fff" transform="translate(-77 -137.75)"><use x="80.75" y="147.75" width="100%" height="100%" xlink:href="#a"/><use x="86.442" y="147.75" width="100%" height="100%" xlink:href="#b"/><use x="89.38" y="147.75" width="100%" height="100%" xlink:href="#c"/><use x="94.082" y="147.75" width="100%" height="100%" xlink:href="#d"/><use x="98.504" y="147.75" width="100%" height="100%" xlink:href="#e"/><use x="103.132" y="147.75" width="100%" height="100%" xlink:href="#f"/><use x="105.319" y="147.75" width="100%" height="100%" xlink:href="#g"/><use x="109.551" y="147.75" width="100%" height="100%" xlink:href="#h"/></g><g clip-path="url(#i)" transform="translate(-77 -137.75)"><path d="M77 152.75h687v450H77z" fill="#3c3c3c"/></g><g clip-path="url(#j)" transform="translate(-77 -137.75)"><path d="M77 162.5h253.5v440.25H77z" fill="#454545"/></g><path d="M124.5 69.75h129v94.5h-129z" fill="#656565"/><path d="M124.5 77.25h129v87h-129z" fill="#7a7a7a"/><path d="M124.5 115.5H189v48.75h-64.5z" fill="#969696"/><path d="M124.5 128.25H189v36h-64.5z" fill="#bbb"/><path d="M124.5 135.75H189v28.5h-64.5z" fill="#d9d9d9"/><path d="M124.5 123H189v4.5h-64.5z" fill="#bbb"/><path d="M189.75 84.75h63.75v79.5h-63.75z" fill="#969696"/><path d="M195 92.25h58.5v72H195z" fill="#bbb"/><path d="M195 99.75h18.75v64.5H195z" fill="#d9d9d9"/><path d="M195 107.25h18.75v57H195z" fill="#f6f6f6"/><path d="M195 114.75h18.75v49.5H195z" fill="#fcfcfc"/><path d="M214.5 99.75h39v64.5h-39z" fill="#d9d9d9"/><path d="M214.5 107.25h39v57h-39z" fill="#f6f6f6"/><path d="M214.5 114.75h39v49.5h-39z" fill="#fcfcfc"/><path d="M189.75 92.25h4.5v72h-4.5z" fill="#bbb"/><path d="M189.75 99.75h4.5v64.5h-4.5z" fill="#d9d9d9"/><path d="M189.75 107.25h4.5v57h-4.5z" fill="#f6f6f6"/><path d="M124.5 84.75H189v30h-64.5z" fill="#969696"/><path d="M137.25 92.25H189v22.5h-51.75z" fill="#bbb"/><path d="M137.25 99.75H189v15h-51.75z" fill="#d9d9d9"/><path d="M124.5 92.25h12v22.5h-12z" fill="#bbb"/><path d="M124.5 99.75h12v15h-12z" fill="#d9d9d9"/><path d="M124.5 107.25h12v7.5h-12z" fill="#f6f6f6"/><path d="M0 69.75h123.75v94.5H0z" fill="#656565"/><path d="M0 99h19.5v21H0z" fill="#969696"/><path d="M0 106.5h19.5V120H0z" fill="#bbb"/><path d="M0 114h19.5v6H0z" fill="#d9d9d9"/><path d="M0 77.25h19.5v21H0z" fill="#7a7a7a"/><path d="M0 84.75h19.5v13.5H0z" fill="#969696"/><path d="M20.25 77.25h103.5v87H20.25z" fill="#7a7a7a"/><path d="M20.25 84.75h103.5v79.5H20.25z" fill="#969696"/><path d="M20.25 102.75h103.5v61.5H20.25z" fill="#bbb"/><path d="M20.25 110.25h103.5v54H20.25z" fill="#d9d9d9"/><path d="M20.25 117.75h103.5v46.5H20.25z" fill="#f6f6f6"/><path d="M20.25 92.25h103.5V102H20.25z" fill="#bbb"/><path d="M20.25 99.75h103.5V102H20.25z" fill="#d9d9d9"/><path d="M0 120.75h19.5v43.5H0z" fill="#7a7a7a"/><path d="M0 128.25h19.5v36H0z" fill="#969696"/><path d="M0 135.75h19.5v28.5H0z" fill="#bbb"/><path d="M10.5 143.25h9v21h-9z" fill="#d9d9d9"/><path d="M10.5 150.75h9v13.5h-9z" fill="#f6f6f6"/><path d="M0 143.25h9.75v21H0z" fill="#d9d9d9"/><path d="M0 150.75h9.75v13.5H0z" fill="#f6f6f6"/><path d="M12.75 32.25h12V69h-12z" fill="#656565"/><path d="M12.75 39.75h12V69h-12z" fill="#7a7a7a"/><path d="M12.75 47.25h12V69h-12z" fill="#969696"/><path d="M12.75 54.75h12V69h-12z" fill="#bbb"/><path d="M12.75 62.25h12V69h-12z" fill="#d9d9d9"/><path d="M51 32.25h202.5V69H51z" fill="#656565"/><path d="M89.25 39.75H253.5V69H89.25z" fill="#969696"/><path d="M127.5 47.25h126V69h-126z" fill="#bbb"/><path d="M140.25 54.75h12V69h-12z" fill="#d9d9d9"/><path d="M140.25 62.25h12V69h-12z" fill="#f6f6f6"/><path d="M153 54.75h100.5V69H153zm-25.5 0h12V69h-12z" fill="#d9d9d9"/><path d="M127.5 62.25h12V69h-12z" fill="#f6f6f6"/><path d="M89.25 47.25h37.5V69h-37.5z" fill="#bbb"/><path d="M89.25 54.75h37.5V69h-37.5z" fill="#d9d9d9"/><path d="M89.25 62.25h37.5V69h-37.5z" fill="#f6f6f6"/><path d="M51 39.75h37.5V69H51z" fill="#969696"/><path d="M63.75 47.25H88.5V69H63.75z" fill="#bbb"/><path d="M63.75 54.75H88.5V69H63.75z" fill="#d9d9d9"/><path d="M51 47.25h12V69H51z" fill="#bbb"/><path d="M51 54.75h12V69H51z" fill="#d9d9d9"/><path d="M25.5 32.25h24.75V69H25.5z" fill="#656565"/><path d="M25.5 39.75h24.75V69H25.5z" fill="#7a7a7a"/><path d="M25.5 47.25h24.75V69H25.5z" fill="#969696"/><path d="M38.25 54.75h12V69h-12z" fill="#bbb"/><path d="M38.25 62.25h12V69h-12z" fill="#d9d9d9"/><path d="M25.5 54.75h12V69h-12z" fill="#bbb"/><path d="M25.5 62.25h12V69h-12z" fill="#d9d9d9"/><g clip-path="url(#k)" transform="translate(-77 -137.75)"><path d="M77 302.75h253.5v300H77z" fill="#656565"/></g><g clip-path="url(#l)" transform="translate(-77 -137.75)"><path d="M77 389.75h253.5v213H77z" fill="#7a7a7a"/></g><path d="M0 285h16.5v24.75H0z" fill="#969696"/><path d="M0 292.5h16.5v17.25H0z" fill="#bbb"/><path d="M0 300h16.5v9.75H0z" fill="#d9d9d9"/><path d="M0 307.5h16.5v2.25H0z" fill="#f6f6f6"/><path d="M0 259.5h16.5v24.75H0z" fill="#969696"/><path d="M0 267h16.5v17.25H0z" fill="#bbb"/><path d="M0 274.5h16.5v9.75H0z" fill="#d9d9d9"/><path d="M0 282h16.5v2.25H0z" fill="#f6f6f6"/><g clip-path="url(#m)" transform="translate(-77 -137.75)"><path d="M94.25 497H330.5v105.75H94.25z" fill="#969696"/></g><path d="M17.25 381h28.5v13.5h-28.5z" fill="#bbb"/><path d="M17.25 388.5h28.5v6h-28.5z" fill="#d9d9d9"/><path d="M17.25 395.25h28.5V423h-28.5z" fill="#bbb"/><path d="M17.25 402.75h28.5V423h-28.5z" fill="#d9d9d9"/><path d="M17.25 410.25h28.5V423h-28.5z" fill="#f6f6f6"/><g clip-path="url(#n)" transform="translate(-77 -137.75)"><path d="M94.25 561.5h28.5v41.25h-28.5z" fill="#bbb"/></g><g clip-path="url(#o)" transform="translate(-77 -137.75)"><path d="M94.25 569h28.5v33.75h-28.5z" fill="#d9d9d9"/></g><g clip-path="url(#p)" transform="translate(-77 -137.75)"><path d="M94.25 576.5h28.5v26.25h-28.5z" fill="#f6f6f6"/></g><path d="M17.25 366.75h28.5v13.5h-28.5z" fill="#bbb"/><path d="M17.25 374.25h28.5v6h-28.5z" fill="#d9d9d9"/><g clip-path="url(#q)" transform="translate(-77 -137.75)"><path d="M210.5 504.5h120v98.25h-120z" fill="#bbb"/></g><g clip-path="url(#r)" transform="translate(-77 -137.75)"><path d="M210.5 512h120v90.75h-120z" fill="#d9d9d9"/></g><g clip-path="url(#s)" transform="translate(-77 -137.75)"><path d="M289.25 519.5h41.25v83.25h-41.25z" fill="#e7e7e7"/></g><g clip-path="url(#t)" transform="translate(-77 -137.75)"><path d="M289.25 527h41.25v75.75h-41.25z" fill="#f6f6f6"/></g><g clip-path="url(#u)" transform="translate(-77 -137.75)"><path d="M256.25 519.5h32.25v83.25h-32.25z" fill="#f6f6f6"/></g><path d="M133.5 381.75h45v22.5h-45z" fill="#f6f6f6"/><g clip-path="url(#v)" transform="translate(-77 -137.75)"><path d="M210.5 542.75h45v60h-45z" fill="#f6f6f6"/></g><g clip-path="url(#w)" transform="translate(-77 -137.75)"><path d="M123.5 554.75h32.25v48H123.5z" fill="#bbb"/></g><g clip-path="url(#x)" transform="translate(-77 -137.75)"><path d="M140 562.25h15.75v40.5H140z" fill="#d9d9d9"/></g><g clip-path="url(#y)" transform="translate(-77 -137.75)"><path d="M123.5 562.25h15.75v40.5H123.5z" fill="#d9d9d9"/></g><g clip-path="url(#z)" transform="translate(-77 -137.75)"><path d="M123.5 569.75h15.75v33H123.5z" fill="#f6f6f6"/></g><g clip-path="url(#A)" transform="translate(-77 -137.75)"><path d="M156.5 504.5h53.25v98.25H156.5z" fill="#bbb"/></g><path d="M79.5 374.25h14.25V423H79.5z" fill="#d9d9d9"/><path d="M79.5 381.75h14.25V423H79.5z" fill="#e7e7e7"/><path d="M79.5 389.25h14.25V423H79.5z" fill="#f6f6f6"/><g clip-path="url(#B)" transform="translate(-77 -137.75)"><path d="M156.5 561.5h53.25v41.25H156.5z" fill="#d9d9d9"/></g><path d="M79.5 431.25h53.25v10.5H79.5z" fill="#f6f6f6"/><g clip-path="url(#C)" transform="translate(-77 -137.75)"><path d="M156.5 580.25h53.25v22.5H156.5z" fill="#f6f6f6"/></g><path d="M94.5 374.25h38.25V423H94.5z" fill="#d9d9d9"/><path d="M94.5 381.75h38.25V423H94.5z" fill="#f6f6f6"/><path d="M46.5 366.75h32.25v49.5H46.5z" fill="#bbb"/><path d="M54.75 374.25h24v42h-24z" fill="#d9d9d9"/><path d="M54.75 381.75h24v34.5h-24z" fill="#f6f6f6"/><path d="M46.5 374.25H54v42h-7.5z" fill="#d9d9d9"/><path d="M46.5 381.75H54v34.5h-7.5z" fill="#f6f6f6"/><g clip-path="url(#D)" transform="translate(-77 -137.75)"><path d="M77 525.5h16.5v77.25H77z" fill="#969696"/></g><g clip-path="url(#E)" transform="translate(-77 -137.75)"><path d="M77 533h16.5v69.75H77z" fill="#bbb"/></g><g clip-path="url(#F)" transform="translate(-77 -137.75)"><path d="M77 561.5h16.5v41.25H77z" fill="#d9d9d9"/></g><g clip-path="url(#G)" transform="translate(-77 -137.75)"><path d="M77 569h16.5v33.75H77z" fill="#f6f6f6"/></g><path d="M0 402.75h16.5V423H0z" fill="#d9d9d9"/><path d="M0 410.25h16.5V423H0z" fill="#f6f6f6"/><path d="M0 310.5h16.5V387H0z" fill="#969696"/><path d="M0 318h16.5v69H0z" fill="#bbb"/><path d="M0 367.5h16.5V387H0z" fill="#d9d9d9"/><path d="M0 375h16.5v12H0z" fill="#f6f6f6"/><path d="M0 346.5h16.5v20.25H0z" fill="#d9d9d9"/><path d="M0 354h16.5v12.75H0z" fill="#f6f6f6"/><path d="M0 325.5h16.5v20.25H0z" fill="#d9d9d9"/><path d="M0 333h16.5v12.75H0z" fill="#f6f6f6"/><path d="M17.25 259.5H253.5v99H17.25z" fill="#969696"/><path d="M17.25 267H39v91.5H17.25z" fill="#bbb"/><path d="M17.25 274.5H39v84H17.25z" fill="#d9d9d9"/><path d="M17.25 282H39v76.5H17.25z" fill="#f6f6f6"/><path d="M39.75 267H253.5v91.5H39.75z" fill="#bbb"/><path d="M62.25 274.5h120v36.75h-120z" fill="#d9d9d9"/><path d="M62.25 282h120v29.25h-120z" fill="#f6f6f6"/><path d="M39.75 274.5H61.5v33H39.75z" fill="#d9d9d9"/><path d="M39.75 282H61.5v25.5H39.75z" fill="#f6f6f6"/><path d="M183 274.5h70.5v84H183z" fill="#d9d9d9"/><path d="M183 282h70.5v76.5H183z" fill="#f6f6f6"/><path d="M62.25 312h120v46.5h-120z" fill="#d9d9d9"/><path d="M62.25 319.5h120v39h-120z" fill="#f6f6f6"/><path d="M39.75 308.25H61.5v50.25H39.75z" fill="#d9d9d9"/><path d="M39.75 315.75H61.5v42.75H39.75z" fill="#f6f6f6"/><path d="M39.75 323.25H61.5v35.25H39.75z" fill="#fcfcfc"/><path d="M0 172.5h57v78.75H0z" fill="#7a7a7a"/><path d="M6 180h51v71.25H6z" fill="#969696"/><path d="M6 187.5h12v27.75H6z" fill="#bbb"/><path d="M6 195h12v20.25H6z" fill="#d9d9d9"/><path d="M18.75 187.5H57v27.75H18.75z" fill="#bbb"/><path d="M31.5 195H57v20.25H31.5z" fill="#d9d9d9"/><path d="M31.5 202.5H57v12.75H31.5z" fill="#e7e7e7"/><path d="M31.5 210H57v5.25H31.5z" fill="#f6f6f6"/><path d="M18.75 195h12v20.25h-12z" fill="#d9d9d9"/><path d="M18.75 202.5h12v12.75h-12z" fill="#f6f6f6"/><path d="M6 216h51v35.25H6z" fill="#bbb"/><path d="M48 223.5h9v27.75h-9zm-21 14.25h20.25v13.5H27z" fill="#d9d9d9"/><path d="M27 245.25h20.25v6H27z" fill="#f6f6f6"/><path d="M27 223.5h20.25V237H27z" fill="#d9d9d9"/><path d="M27 231h20.25v6H27z" fill="#f6f6f6"/><path d="M6 237.75h20.25v13.5H6z" fill="#d9d9d9"/><path d="M6 245.25h20.25v6H6z" fill="#f6f6f6"/><path d="M6 223.5h20.25V237H6z" fill="#d9d9d9"/><path d="M6 231h20.25v6H6z" fill="#f6f6f6"/><path d="M0 180h5.25v71.25H0z" fill="#969696"/><path d="M0 187.5h5.25v63.75H0z" fill="#bbb"/><path d="M0 195h5.25v56.25H0z" fill="#d9d9d9"/><path d="M0 202.5h5.25v48.75H0z" fill="#f6f6f6"/><path d="M150.75 172.5H253.5v78.75H150.75z" fill="#7a7a7a"/><path d="M150.75 198h22.5v17.25h-22.5z" fill="#969696"/><path d="M150.75 205.5h22.5v9.75h-22.5z" fill="#bbb"/><path d="M150.75 213h22.5v2.25h-22.5z" fill="#d9d9d9"/><path d="M150.75 216h22.5v35.25h-22.5z" fill="#969696"/><path d="M150.75 223.5h22.5v27.75h-22.5z" fill="#bbb"/><path d="M150.75 231h22.5v20.25h-22.5z" fill="#d9d9d9"/><path d="M150.75 238.5h22.5v12.75h-22.5z" fill="#f6f6f6"/><path d="M150.75 180h22.5v17.25h-22.5z" fill="#969696"/><path d="M150.75 187.5h22.5v9.75h-22.5z" fill="#bbb"/><path d="M150.75 195h22.5v2.25h-22.5z" fill="#d9d9d9"/><path d="M174 180h79.5v71.25H174z" fill="#969696"/><path d="M174 187.5h79.5v63.75H174z" fill="#bbb"/><path d="M174 195h79.5v3H174z" fill="#c2c2c2"/><path d="M174 198.75h79.5v52.5H174z" fill="#d9d9d9"/><path d="M204.75 206.25h48.75v16.5h-48.75z" fill="#e7e7e7"/><path d="M204.75 213.75h48.75v9h-48.75z" fill="#f6f6f6"/><path d="M174 233.25h30v18h-30z" fill="#e7e7e7"/><path d="M174 240.75h30v10.5h-30z" fill="#f6f6f6"/><path d="M174 206.25h30v8.25h-30z" fill="#e7e7e7"/><path d="M174 213.75h30v.75h-30z" fill="#f6f6f6"/><path d="M174 215.25h30v17.25h-30z" fill="#e7e7e7"/><path d="M174 222.75h30v9.75h-30z" fill="#f6f6f6"/><path d="M204.75 223.5h48.75v27.75h-48.75z" fill="#e7e7e7"/><path d="M214.5 231h39v20.25h-39z" fill="#eee"/><path d="M214.5 238.5h39v12.75h-39z" fill="#f6f6f6"/><path d="M204.75 231h9v20.25h-9z" fill="#eee"/><path d="M204.75 238.5h9v12.75h-9z" fill="#f6f6f6"/><path d="M57.75 172.5H150v78.75H57.75z" fill="#6d6d6d"/><path d="M57.75 180H150v71.25H57.75z" fill="#7a7a7a"/><path d="M57.75 219H69v32.25H57.75z" fill="#969696"/><path d="M57.75 226.5H69v24.75H57.75z" fill="#bbb"/><path d="M57.75 234H69v17.25H57.75z" fill="#d9d9d9"/><path d="M57.75 241.5H69v9.75H57.75z" fill="#f6f6f6"/><path d="M57.75 187.5H69v30.75H57.75z" fill="#969696"/><path d="M57.75 195H69v23.25H57.75z" fill="#bbb"/><path d="M57.75 202.5H69v15.75H57.75z" fill="#d9d9d9"/><path d="M57.75 210H69v8.25H57.75z" fill="#f6f6f6"/><path d="M69.75 187.5H150v63.75H69.75z" fill="#969696"/><path d="M69.75 195H150v56.25H69.75z" fill="#9e9e9e"/><path d="M69.75 202.5H150v48.75H69.75z" fill="#bbb"/><path d="M69.75 210H150v41.25H69.75z" fill="#d9d9d9"/><path d="M69.75 217.5H150v33.75H69.75z" fill="#f6f6f6"/><path d="M0 32.25h12V69H0z" fill="#656565"/><path d="M0 39.75h12V69H0z" fill="#7a7a7a"/><path d="M0 47.25h12V69H0z" fill="#bbb"/><path d="M0 54.75h12V69H0z" fill="#d9d9d9"/><g clip-path="url(#H)" transform="translate(-77 -137.75)"><path d="M331.25 160.25H764v442.5H331.25z" fill="#454545"/></g><path d="M254.25 30H267v68.25h-12.75z" fill="#969696"/><path d="M254.25 37.5H267v60.75h-12.75z" fill="#bbb"/><path d="M254.25 45H267v53.25h-12.75z" fill="#d9d9d9"/><path d="M254.25 52.5H267v45.75h-12.75z" fill="#f6f6f6"/><path d="M267.75 30h33.75v68.25h-33.75z" fill="#4e4e4e"/><path d="M267.75 37.5h33.75v60.75h-33.75z" fill="#565656"/><path d="M281.25 45h20.25v53.25h-20.25z" fill="#656565"/><path d="M281.25 68.25h20.25v30h-20.25z" fill="#6d6d6d"/><path d="M281.25 75.75h20.25v22.5h-20.25z" fill="#7a7a7a"/><path d="M281.25 83.25h20.25v15h-20.25z" fill="#818181"/><path d="M281.25 90.75h20.25v7.5h-20.25z" fill="#969696"/><path d="M281.25 52.5h20.25v15h-20.25z" fill="#6d6d6d"/><path d="M281.25 60h20.25v7.5h-20.25z" fill="#7a7a7a"/><path d="M267.75 45h12.75v53.25h-12.75z" fill="#656565"/><path d="M267.75 52.5h12.75v45.75h-12.75z" fill="#6d6d6d"/><path d="M267.75 60h12.75v38.25h-12.75z" fill="#7a7a7a"/><path d="M267.75 67.5h12.75v30.75h-12.75z" fill="#969696"/><path d="M267.75 75h12.75v23.25h-12.75z" fill="#bbb"/><path d="M267.75 82.5h12.75v15.75h-12.75z" fill="#d9d9d9"/><path d="M267.75 90h12.75v8.25h-12.75z" fill="#f6f6f6"/><path d="M267.75 97.5h12.75v.75h-12.75z" fill="#fff"/><path d="M302.25 30H687v68.25H302.25z" fill="#4e4e4e"/><path d="M302.25 69H315v29.25h-12.75z" fill="#656565"/><path d="M302.25 76.5H315v21.75h-12.75z" fill="#6d6d6d"/><path d="M302.25 84H315v14.25h-12.75z" fill="#7a7a7a"/><path d="M302.25 91.5H315v6.75h-12.75z" fill="#818181"/><path d="M315.75 37.5H687v60.75H315.75z" fill="#656565"/><path d="M315.75 45H687v53.25H315.75z" fill="#6d6d6d"/><path d="M315.75 52.5H687v45.75H315.75z" fill="#757575"/><path d="M315.75 60h6v38.25h-6z" fill="#7a7a7a"/><path d="M315.75 67.5h6v30.75h-6z" fill="#909090"/><path d="M315.75 75h6v23.25h-6z" fill="#969696"/><path d="M315.75 82.5h6v15.75h-6z" fill="#bbb"/><path d="M322.5 60H687v38.25H322.5z" fill="#7a7a7a"/><path d="M322.5 67.5H687v30.75H322.5z" fill="#909090"/><path d="M322.5 75H687v23.25H322.5z" fill="#969696"/><path d="M322.5 82.5H687v15.75H322.5z" fill="#9e9e9e"/><path d="M322.5 90H687v8.25H322.5z" fill="#a4a4a4"/><path d="M322.5 97.5H687v.75H322.5z" fill="#acacac"/><path d="M302.25 37.5H315v30.75h-12.75z" fill="#656565"/><path d="M302.25 45H315v23.25h-12.75z" fill="#7a7a7a"/><path d="M302.25 52.5H315v15.75h-12.75z" fill="#969696"/><path d="M302.25 60H315v8.25h-12.75z" fill="#b4b4b4"/><path d="M302.25 67.5H315v.75h-12.75z" fill="#bbb"/><g clip-path="url(#I)" transform="translate(-77 -137.75)"><path d="M331.25 236.75H764v366H331.25z" fill="#4e4e4e"/></g><path d="M254.25 106.5H687v2.25H254.25z" fill="#656565"/><g clip-path="url(#J)" transform="translate(-77 -137.75)"><path d="M331.25 247.25H764v355.5H331.25z" fill="#656565"/></g><g clip-path="url(#K)" transform="translate(-77 -137.75)"><path d="M331.25 254.75H764v348H331.25z" fill="#6d6d6d"/></g><g clip-path="url(#L)" transform="translate(-77 -137.75)"><path d="M331.25 263H764v339.75H331.25z" fill="#818181"/></g><g clip-path="url(#M)" transform="translate(-77 -137.75)"><path d="M331.25 270.5H764v332.25H331.25z" fill="#969696"/></g><g clip-path="url(#N)" transform="translate(-77 -137.75)"><path d="M331.25 278H764v324.75H331.25z" fill="#bbb"/></g><g clip-path="url(#O)" transform="translate(-77 -137.75)"><path d="M331.25 285.5H764v317.25H331.25z" fill="#c9c9c9"/></g><g clip-path="url(#P)" transform="translate(-77 -137.75)"><path d="M331.25 293H764v309.75H331.25z" fill="#d9d9d9"/></g><g clip-path="url(#Q)" transform="translate(-77 -137.75)"><path d="M331.25 300.5H764v302.25H331.25z" fill="#f6f6f6"/></g><path d="M0 22.5h253.5V24H0z" fill="#454545"/></svg>