<svg xmlns="http://www.w3.org/2000/svg" viewBox="0 0 250 60" height="60mm" width="250mm"><g fill="#f90"><path d="M101.598 19.595a3.14 3.14 0 0 1-3.14 3.14 3.14 3.14 0 0 1-3.141-3.14 3.14 3.14 0 0 1 3.14-3.14 3.14 3.14 0 0 1 3.14 3.14zm16.53 5.267a3.14 3.14 0 0 1-3.14 3.14 3.14 3.14 0 0 1-3.141-3.14 3.14 3.14 0 0 1 3.14-3.14 3.14 3.14 0 0 1 3.14 3.14z"/><path d="M114.304 20.337a3.14 3.14 0 0 1-3.14 3.14 3.14 3.14 0 0 1-3.14-3.14 3.14 3.14 0 0 1 3.14-3.14 3.14 3.14 0 0 1 3.14 3.14zm23.12 4.592a3.14 3.14 0 0 1-3.14 3.14 3.14 3.14 0 0 1-3.14-3.14 3.14 3.14 0 0 1 3.14-3.14 3.14 3.14 0 0 1 3.14 3.14z"/><path d="M132.095 25.891a3.14 3.14 0 0 1-3.14 3.14 3.14 3.14 0 0 1-3.14-3.14 3.14 3.14 0 0 1 3.14-3.14 3.14 3.14 0 0 1 3.14 3.14z"/><path d="M126.02 26.868a3.14 3.14 0 0 1-3.141 3.14 3.14 3.14 0 0 1-3.14-3.14 3.14 3.14 0 0 1 3.14-3.14 3.14 3.14 0 0 1 3.14 3.14zm-15.272-2.546a3.14 3.14 0 0 1-3.14 3.14 3.14 3.14 0 0 1-3.141-3.14 3.14 3.14 0 0 1 3.14-3.14 3.14 3.14 0 0 1 3.14 3.14z"/><path d="M123.227 21.902a3.14 3.14 0 0 1-3.14 3.14 3.14 3.14 0 0 1-3.14-3.14 3.14 3.14 0 0 1 3.14-3.14 3.14 3.14 0 0 1 3.14 3.14zm-27.302-1.933a3.14 3.14 0 0 1-3.14 3.14 3.14 3.14 0 0 1-3.141-3.14 3.14 3.14 0 0 1 3.14-3.14 3.14 3.14 0 0 1 3.14 3.14zm9.092 4.649a3.14 3.14 0 0 1-3.14 3.14 3.14 3.14 0 0 1-3.14-3.14 3.14 3.14 0 0 1 3.14-3.14 3.14 3.14 0 0 1 3.14 3.14zm50.848-.713a3.14 3.14 0 0 1-3.14 3.14 3.14 3.14 0 0 1-3.14-3.14 3.14 3.14 0 0 1 3.14-3.14 3.14 3.14 0 0 1 3.14 3.14z"/><path d="M149.985 24.951a3.14 3.14 0 0 1-3.14 3.14 3.14 3.14 0 0 1-3.14-3.14 3.14 3.14 0 0 1 3.14-3.14 3.14 3.14 0 0 1 3.14 3.14zm-10.223 5.589a3.14 3.14 0 0 1-3.14 3.14 3.14 3.14 0 0 1-3.14-3.14 3.14 3.14 0 0 1 3.14-3.14 3.14 3.14 0 0 1 3.14 3.14z"/><path d="M145.709 29.197a3.14 3.14 0 0 1-3.14 3.14 3.14 3.14 0 0 1-3.14-3.14 3.14 3.14 0 0 1 3.14-3.14 3.14 3.14 0 0 1 3.14 3.14z"/></g><g fill="#f90"><path d="M189.085 21.954a3.14 3.14 0 0 1-3.14 3.14 3.14 3.14 0 0 1-3.14-3.14 3.14 3.14 0 0 1 3.14-3.14 3.14 3.14 0 0 1 3.14 3.14zm9.107 1.946a3.14 3.14 0 0 1-3.14 3.14 3.14 3.14 0 0 1-3.14-3.14 3.14 3.14 0 0 1 3.14-3.14 3.14 3.14 0 0 1 3.14 3.14z"/><path d="M198.509 18.106a3.14 3.14 0 0 1-3.14 3.14 3.14 3.14 0 0 1-3.141-3.14 3.14 3.14 0 0 1 3.14-3.14 3.14 3.14 0 0 1 3.14 3.14zm36.848 14.384a3.14 3.14 0 0 1-3.14 3.14 3.14 3.14 0 0 1-3.14-3.14 3.14 3.14 0 0 1 3.14-3.141 3.14 3.14 0 0 1 3.14 3.14zm-11.842-2.169a3.14 3.14 0 0 1-3.14 3.14 3.14 3.14 0 0 1-3.14-3.14 3.14 3.14 0 0 1 3.14-3.14 3.14 3.14 0 0 1 3.14 3.14zm-20.837-4.229a3.14 3.14 0 0 1-3.14 3.14 3.14 3.14 0 0 1-3.141-3.14 3.14 3.14 0 0 1 3.14-3.14 3.14 3.14 0 0 1 3.14 3.14z"/><path d="M193.598 17.828a3.14 3.14 0 0 1-3.14 3.14 3.14 3.14 0 0 1-3.14-3.14 3.14 3.14 0 0 1 3.14-3.14 3.14 3.14 0 0 1 3.14 3.14zm36.042 12.768a3.14 3.14 0 0 1-3.14 3.14 3.14 3.14 0 0 1-3.14-3.14 3.14 3.14 0 0 1 3.14-3.14 3.14 3.14 0 0 1 3.14 3.14zm-48.395-8.268a3.14 3.14 0 0 1-3.14 3.14 3.14 3.14 0 0 1-3.141-3.14 3.14 3.14 0 0 1 3.14-3.14 3.14 3.14 0 0 1 3.14 3.14z"/><path d="M185.355 26.793a3.14 3.14 0 0 1-3.14 3.14 3.14 3.14 0 0 1-3.141-3.14 3.14 3.14 0 0 1 3.14-3.14 3.14 3.14 0 0 1 3.14 3.14zm-5.482-9.147a3.14 3.14 0 0 1-3.14 3.14 3.14 3.14 0 0 1-3.14-3.14 3.14 3.14 0 0 1 3.14-3.14 3.14 3.14 0 0 1 3.14 3.14zm42.275 6.556a3.14 3.14 0 0 1-3.14 3.14 3.14 3.14 0 0 1-3.14-3.14 3.14 3.14 0 0 1 3.14-3.14 3.14 3.14 0 0 1 3.14 3.14z"/><path d="M216.268 25.248a3.14 3.14 0 0 1-3.14 3.14 3.14 3.14 0 0 1-3.14-3.14 3.14 3.14 0 0 1 3.14-3.14 3.14 3.14 0 0 1 3.14 3.14zm-10.223 5.589a3.14 3.14 0 0 1-3.14 3.14 3.14 3.14 0 0 1-3.14-3.14 3.14 3.14 0 0 1 3.14-3.14 3.14 3.14 0 0 1 3.14 3.14z"/><path d="M211.992 29.494a3.14 3.14 0 0 1-3.14 3.14 3.14 3.14 0 0 1-3.141-3.14 3.14 3.14 0 0 1 3.14-3.14 3.14 3.14 0 0 1 3.14 3.14z"/></g><path d="M62.83 41.817a.265.265 0 0 1 0 .374l-2.587 2.587a.265.265 0 0 1-.374 0l-4.985-4.984a.735.735 0 0 1-.187-.452V36.91c0-.146.12-.265.265-.265h2.432c.146 0 .349.084.452.187zm-7.268-4.307a.497.497 0 0 0 .702.702.497.497 0 0 0-.702-.702z" opacity=".75" fill="#c00"/><g style="line-height:1.25;-inkscape-font-specification:'sans-serif, Normal';font-variant-ligatures:normal;font-variant-caps:normal;font-variant-numeric:normal;font-feature-settings:normal;text-align:start"><path style="-inkscape-font-specification:'sans-serif, Normal';font-variant-ligatures:normal;font-variant-caps:normal;font-variant-numeric:normal;font-feature-settings:normal;text-align:start" d="M59.811 43.737l.644-.643-2.22-2.22-.56.84-.358-.359.555-.836.394-.393 2.578 2.578.643-.643.332.331-1.676 1.676z" aria-label="1" font-weight="400" font-size="5.644" font-family="sans-serif" letter-spacing="0" word-spacing="0"/></g><path d="M69.445 41.817a.265.265 0 0 1 0 .374l-2.587 2.587a.265.265 0 0 1-.375 0L61.5 39.794a.735.735 0 0 1-.187-.452V36.91c0-.146.119-.265.264-.265h2.433c.145 0 .349.084.451.187zm-7.268-4.307a.497.497 0 0 0 .702.702.497.497 0 0 0-.702-.702z" opacity=".75" fill="#f60"/><g style="line-height:1.25;-inkscape-font-specification:'sans-serif, Normal';font-variant-ligatures:normal;font-variant-caps:normal;font-variant-numeric:normal;font-feature-settings:normal;text-align:start"><path style="-inkscape-font-specification:'sans-serif, Normal';font-variant-ligatures:normal;font-variant-caps:normal;font-variant-numeric:normal;font-feature-settings:normal;text-align:start" d="M67.117 43.35l1.374-1.374.33.332-1.847 1.847-.33-.331q-.009-.456-.013-1.232-.004-.78-.017-.992-.024-.401-.096-.621-.072-.225-.214-.367-.232-.232-.542-.214-.308.015-.569.277-.185.185-.327.456-.14.269-.244.633l-.397-.398q.142-.333.3-.588.157-.255.329-.427.452-.452.947-.495.495-.043.873.335.18.18.273.41.094.226.135.621.007.105.017.637.008.53.018 1.491z" aria-label="2" font-weight="400" font-size="5.644" font-family="sans-serif" letter-spacing="0" word-spacing="0"/></g><path d="M76.06 41.817a.265.265 0 0 1 0 .374l-2.588 2.587a.265.265 0 0 1-.374 0l-4.984-4.984a.735.735 0 0 1-.188-.452V36.91c0-.146.12-.265.265-.265h2.432c.146 0 .35.084.452.187zm-7.268-4.307a.497.497 0 0 0 .701.702.497.497 0 0 0-.701-.702z" opacity=".75" fill="#69f"/><g style="line-height:1.25;-inkscape-font-specification:'sans-serif, Normal';font-variant-ligatures:normal;font-variant-caps:normal;font-variant-numeric:normal;font-feature-settings:normal;text-align:start"><path style="-inkscape-font-specification:'sans-serif, Normal';font-variant-ligatures:normal;font-variant-caps:normal;font-variant-numeric:normal;font-feature-settings:normal;text-align:start" d="M73.367 41.184q.343-.222.692-.19.35.032.632.313.43.43.37.962t-.606 1.078q-.183.183-.415.341-.228.158-.507.292l-.38-.38q.26-.068.503-.214t.456-.359q.37-.37.417-.71.048-.34-.23-.619-.257-.257-.583-.22-.325.033-.647.355l-.339.339-.324-.324.355-.354q.29-.29.33-.56.037-.27-.182-.489-.224-.224-.503-.183-.278.037-.574.333-.162.162-.312.382t-.298.517l-.351-.351q.162-.287.325-.513.166-.228.34-.401.448-.448.913-.505.464-.058.811.288.242.242.271.548.027.304-.164.624z" aria-label="3" font-weight="400" font-size="5.644" font-family="sans-serif" letter-spacing="0" word-spacing="0"/></g><path d="M147.497 41.817a.265.265 0 0 1 0 .374l-2.587 2.587a.265.265 0 0 1-.374 0l-4.985-4.984a.735.735 0 0 1-.187-.452V36.91c0-.146.119-.265.265-.265h2.432c.145 0 .349.084.452.187zm-7.268-4.307a.497.497 0 0 0 .702.702.497.497 0 0 0-.702-.702z" opacity=".75" fill="#f60"/><g style="line-height:1.25;-inkscape-font-specification:'sans-serif, Normal';font-variant-ligatures:normal;font-variant-caps:normal;font-variant-numeric:normal;font-feature-settings:normal;text-align:start"><path style="-inkscape-font-specification:'sans-serif, Normal';font-variant-ligatures:normal;font-variant-caps:normal;font-variant-numeric:normal;font-feature-settings:normal;text-align:start" d="M145.169 43.35l1.374-1.374.33.332-1.847 1.847-.33-.331q-.009-.456-.013-1.232-.003-.78-.017-.992-.023-.401-.096-.621-.072-.225-.214-.367-.232-.232-.542-.214-.308.015-.569.277-.185.185-.327.456-.14.269-.244.633l-.397-.398q.142-.333.3-.588.158-.255.33-.427.451-.452.946-.495.495-.043.873.335.18.18.273.41.094.226.135.621.007.105.017.637.008.53.018 1.491z" aria-label="2" font-weight="400" font-size="5.644" font-family="sans-serif" letter-spacing="0" word-spacing="0"/></g><path d="M154.111 41.817a.265.265 0 0 1 0 .374l-2.587 2.587a.265.265 0 0 1-.374 0l-4.984-4.984a.735.735 0 0 1-.187-.452V36.91c0-.146.119-.265.264-.265h2.432c.146 0 .35.084.452.187zm-7.267-4.307a.497.497 0 0 0 .701.702.497.497 0 0 0-.701-.702z" opacity=".75" fill="#69f"/><g style="line-height:1.25;-inkscape-font-specification:'sans-serif, Normal';font-variant-ligatures:normal;font-variant-caps:normal;font-variant-numeric:normal;font-feature-settings:normal;text-align:start"><path style="-inkscape-font-specification:'sans-serif, Normal';font-variant-ligatures:normal;font-variant-caps:normal;font-variant-numeric:normal;font-feature-settings:normal;text-align:start" d="M151.263 41.214q.343-.222.692-.189.35.032.631.312.43.43.37.963-.06.532-.606 1.078-.183.183-.415.34-.228.158-.506.293l-.38-.38q.259-.068.502-.214.244-.147.456-.359.37-.37.417-.71.05-.34-.23-.62-.257-.256-.582-.22-.326.034-.647.355l-.34.34-.323-.324.355-.355q.29-.29.33-.56.036-.27-.182-.488-.224-.224-.503-.183-.279.037-.575.333-.162.162-.312.382t-.298.516l-.35-.35q.161-.287.325-.513.166-.228.339-.402.448-.448.914-.504.464-.059.81.288.242.242.272.548.027.304-.164.623z" aria-label="3" font-weight="400" font-size="5.644" font-family="sans-serif" letter-spacing="0" word-spacing="0"/></g><path d="M236.132 41.817a.265.265 0 0 1 0 .374l-2.587 2.587a.265.265 0 0 1-.374 0l-4.985-4.984a.735.735 0 0 1-.187-.452V36.91c0-.146.12-.265.265-.265h2.432c.146 0 .349.084.452.187zm-7.267-4.307a.497.497 0 0 0 .701.702.497.497 0 0 0-.701-.702z" opacity=".75" fill="gray"/><g style="line-height:1.25;-inkscape-font-specification:'sans-serif, Normal';font-variant-ligatures:normal;font-variant-caps:normal;font-variant-numeric:normal;font-feature-settings:normal;text-align:start"><path style="-inkscape-font-specification:'sans-serif, Normal';font-variant-ligatures:normal;font-variant-caps:normal;font-variant-numeric:normal;font-feature-settings:normal;text-align:start" d="M232.87 41.448q-.264.265-.24.602.028.336.344.651.314.314.65.343.338.026.603-.24.265-.264.238-.6-.028-.339-.341-.652-.316-.316-.653-.342-.335-.027-.6.238zm-.452-2.015l.36.359q-.22.078-.408.193-.187.113-.335.26-.39.39-.334.86.059.468.562 1.03-.055-.285.029-.548.082-.265.29-.474.439-.438.959-.425.52.01.978.468.449.448.454.984.006.536-.434.976-.505.505-1.158.386-.655-.12-1.39-.855-.69-.69-.771-1.427-.084-.738.468-1.29.148-.148.327-.269.181-.123.403-.228z" aria-label="6" font-weight="400" font-size="5.644" font-family="sans-serif" letter-spacing="0" word-spacing="0"/></g><path d="M229.518 41.817a.265.265 0 0 1 0 .374l-2.588 2.587a.265.265 0 0 1-.374 0l-4.984-4.984a.735.735 0 0 1-.187-.452V36.91c0-.146.119-.265.264-.265h2.433c.145 0 .348.084.451.187zm-7.268-4.307a.497.497 0 0 0 .702.702.497.497 0 0 0-.702-.702z" opacity=".75" fill="#9c3"/><g style="line-height:1.25;-inkscape-font-specification:'sans-serif, Normal';font-variant-ligatures:normal;font-variant-caps:normal;font-variant-numeric:normal;font-feature-settings:normal;text-align:start"><path style="-inkscape-font-specification:'sans-serif, Normal';font-variant-ligatures:normal;font-variant-caps:normal;font-variant-numeric:normal;font-feature-settings:normal;text-align:start" d="M224.169 41.066l1.545-1.545.332.331-1.185 1.185.713.713q.056-.115.129-.214.07-.101.155-.187.488-.487 1.04-.505.55-.017 1.007.439.47.47.438 1.023-.033.551-.565 1.083-.183.183-.405.343-.22.158-.486.298l-.395-.395q.27-.08.505-.22.233-.14.442-.35.337-.336.357-.71.02-.375-.285-.679-.304-.304-.678-.284-.374.02-.711.356-.158.158-.281.351-.121.191-.21.429z" aria-label="5" font-weight="400" font-size="5.644" font-family="sans-serif" letter-spacing="0" word-spacing="0"/></g><path d="M222.903 41.817a.265.265 0 0 1 0 .374l-2.587 2.587a.265.265 0 0 1-.374 0l-4.985-4.984a.735.735 0 0 1-.187-.452V36.91c0-.146.12-.265.265-.265h2.432c.146 0 .349.084.452.187zm-7.268-4.307a.497.497 0 0 0 .702.702.497.497 0 0 0-.702-.702z" opacity=".75" fill="#f60"/><g style="line-height:1.25;-inkscape-font-specification:'sans-serif, Normal';font-variant-ligatures:normal;font-variant-caps:normal;font-variant-numeric:normal;font-feature-settings:normal;text-align:start"><path style="-inkscape-font-specification:'sans-serif, Normal';font-variant-ligatures:normal;font-variant-caps:normal;font-variant-numeric:normal;font-feature-settings:normal;text-align:start" d="M220.575 43.35l1.374-1.374.331.332-1.847 1.847-.332-.331q-.007-.456-.011-1.232-.004-.78-.018-.992-.023-.401-.095-.621-.072-.225-.215-.367-.232-.232-.541-.214-.308.015-.57.277-.185.185-.327.456-.14.269-.244.633l-.397-.398q.142-.333.3-.588.158-.255.33-.427.451-.452.946-.495.495-.043.874.335.179.18.272.41.094.226.135.621.008.105.017.637.008.53.018 1.491z" aria-label="2" font-weight="400" font-size="5.644" font-family="sans-serif" letter-spacing="0" word-spacing="0"/></g><g fill="#f90"><path d="M11.28 26.644a3.14 3.14 0 0 1-3.14 3.14A3.14 3.14 0 0 1 5 26.645a3.14 3.14 0 0 1 3.14-3.14 3.14 3.14 0 0 1 3.14 3.14z"/><path d="M16.96 24.038a3.14 3.14 0 0 1-3.14 3.14 3.14 3.14 0 0 1-3.14-3.14 3.14 3.14 0 0 1 3.14-3.14 3.14 3.14 0 0 1 3.14 3.14z"/><path d="M22.84 26.243a3.14 3.14 0 0 1-3.14 3.14 3.14 3.14 0 0 1-3.14-3.14 3.14 3.14 0 0 1 3.14-3.14 3.14 3.14 0 0 1 3.14 3.14z"/><path d="M27.852 22.635a3.14 3.14 0 0 1-3.14 3.14 3.14 3.14 0 0 1-3.141-3.14 3.14 3.14 0 0 1 3.14-3.14 3.14 3.14 0 0 1 3.14 3.14z"/><path d="M33.932 23.57a3.14 3.14 0 0 1-3.14 3.14 3.14 3.14 0 0 1-3.14-3.14 3.14 3.14 0 0 1 3.14-3.14 3.14 3.14 0 0 1 3.14 3.14z"/><path d="M39.945 21.967a3.14 3.14 0 0 1-3.14 3.14 3.14 3.14 0 0 1-3.14-3.14 3.14 3.14 0 0 1 3.14-3.14 3.14 3.14 0 0 1 3.14 3.14z"/><path d="M44.222 26.51a3.14 3.14 0 0 1-3.14 3.14 3.14 3.14 0 0 1-3.141-3.14 3.14 3.14 0 0 1 3.14-3.14 3.14 3.14 0 0 1 3.14 3.14z"/><path d="M50.164 26.653a3.14 3.14 0 0 1-3.14 3.14 3.14 3.14 0 0 1-3.141-3.14 3.14 3.14 0 0 1 3.14-3.14 3.14 3.14 0 0 1 3.14 3.14zm29.25-4.903a3.14 3.14 0 0 1-3.14 3.14 3.14 3.14 0 0 1-3.14-3.14 3.14 3.14 0 0 1 3.14-3.14 3.14 3.14 0 0 1 3.14 3.14z"/><path d="M73.534 22.796a3.14 3.14 0 0 1-3.14 3.14 3.14 3.14 0 0 1-3.14-3.14 3.14 3.14 0 0 1 3.14-3.14 3.14 3.14 0 0 1 3.14 3.14zM55.95 24.867a3.14 3.14 0 0 1-3.14 3.14 3.14 3.14 0 0 1-3.14-3.14 3.14 3.14 0 0 1 3.14-3.14 3.14 3.14 0 0 1 3.14 3.14zm7.361 3.518a3.14 3.14 0 0 1-3.14 3.14 3.14 3.14 0 0 1-3.14-3.14 3.14 3.14 0 0 1 3.14-3.14 3.14 3.14 0 0 1 3.14 3.14z"/><path d="M69.258 27.042a3.14 3.14 0 0 1-3.14 3.14 3.14 3.14 0 0 1-3.141-3.14 3.14 3.14 0 0 1 3.14-3.14 3.14 3.14 0 0 1 3.14 3.14zm-7.742-4.537a3.14 3.14 0 0 1-3.14 3.14 3.14 3.14 0 0 1-3.141-3.14 3.14 3.14 0 0 1 3.14-3.14 3.14 3.14 0 0 1 3.14 3.14z"/></g><path d="M3.55 3.303v1.53h.693q.385 0 .594-.2.21-.198.21-.566 0-.366-.21-.565-.21-.199-.594-.199zM3 2.851h1.243q.684 0 1.033.31.352.309.352.906 0 .602-.352.91-.349.308-1.033.308h-.692v1.636H3zm5.024 1.485q-.084-.049-.185-.07-.098-.025-.218-.025-.425 0-.654.278-.227.275-.227.793v1.609h-.504V3.868h.504v.474q.159-.278.412-.412.254-.136.616-.136.052 0 .115.008.062.006.139.02zM9.62 4.22q-.404 0-.639.315-.234.314-.234.862t.232.864q.234.314.64.314.401 0 .636-.317.234-.316.234-.861 0-.543-.234-.859-.235-.319-.636-.319zm0-.426q.654 0 1.027.425.374.426.374 1.178 0 .75-.374 1.178Q10.274 7 9.62 7q-.657 0-1.03-.425-.371-.428-.371-1.178 0-.752.37-1.178.374-.425 1.031-.425zM12.351 3v.868h1.033v.39h-1.033v1.657q0 .373.1.48.104.106.418.106h.515v.42h-.515q-.58 0-.802-.215-.22-.219-.22-.791V4.257h-.368v-.39h.368v-.866zm4.307 2.269v.245h-2.306q.033.518.31.79.282.27.78.27.29 0 .56-.07.272-.071.54-.213v.475q-.27.114-.554.174-.284.06-.575.06-.731 0-1.16-.425-.424-.426-.424-1.15 0-.75.403-1.19.406-.441 1.093-.441.616 0 .974.398.36.395.36 1.077zm-.501-.147q-.005-.412-.232-.657-.223-.246-.594-.246-.42 0-.674.237-.25.238-.289.668zm1.325-1.254h.501V6.92h-.501zm0-1.19h.501v.636h-.501zm4.086 2.4v1.843h-.501V5.094q0-.433-.17-.648-.168-.216-.506-.216-.407 0-.641.26-.234.258-.234.705v1.726h-.505V3.868h.505v.474q.18-.275.422-.412.245-.136.564-.136.527 0 .797.327.27.325.27.957zm2.95 1.379h.9V3.352l-.979.197v-.502l.973-.196h.551v3.606h.9v.464h-2.345z" aria-label="Protein 1" font-weight="400" font-size="5.583" font-family="sans-serif" letter-spacing="0" word-spacing="0"/><path d="M86.884 3.303v1.53h.692q.385 0 .594-.2.21-.198.21-.566 0-.366-.21-.565-.21-.199-.594-.199zm-.551-.452h1.243q.684 0 1.033.31.352.309.352.906 0 .602-.352.91-.349.308-1.033.308h-.692v1.636h-.551zm5.024 1.485q-.084-.049-.185-.07-.098-.025-.218-.025-.425 0-.654.278-.227.275-.227.793v1.609h-.504V3.868h.504v.474q.159-.278.412-.412.254-.136.616-.136.052 0 .115.008.062.006.139.02zm1.595-.116q-.403 0-.638.315-.234.314-.234.862t.232.864q.234.314.64.314.401 0 .636-.317.234-.316.234-.861 0-.543-.234-.859-.235-.319-.636-.319zm0-.426q.655 0 1.028.425.374.426.374 1.178 0 .75-.374 1.178Q93.607 7 92.952 7q-.657 0-1.03-.425-.371-.428-.371-1.178 0-.752.37-1.178.374-.425 1.031-.425zM95.684 3v.868h1.033v.39h-1.033v1.657q0 .373.1.48.104.106.418.106h.515v.42h-.515q-.58 0-.802-.215-.22-.219-.22-.791V4.257h-.368v-.39h.368v-.866zm4.307 2.269v.245h-2.306q.033.518.31.79.282.27.78.27.29 0 .56-.07.272-.071.54-.213v.475q-.27.114-.554.174-.284.06-.575.06-.731 0-1.16-.425-.424-.426-.424-1.15 0-.75.403-1.19.406-.441 1.093-.441.616 0 .974.398.36.395.36 1.077zm-.501-.147q-.005-.412-.232-.657-.223-.246-.594-.246-.42 0-.674.237-.25.238-.289.668zm1.325-1.254h.501V6.92h-.501zm0-1.19h.501v.636h-.501zm4.086 2.4v1.843h-.501V5.094q0-.433-.17-.648-.168-.216-.506-.216-.407 0-.641.26-.234.258-.234.705v1.726h-.505V3.868h.505v.474q.18-.275.422-.412.245-.136.564-.136.527 0 .796.327.27.325.27.957zm3.329 1.379h1.922v.464h-2.584v-.464q.313-.324.853-.87.542-.547.682-.705.264-.297.368-.502.106-.207.106-.406 0-.325-.23-.529-.225-.204-.59-.204-.26 0-.549.09-.286.09-.613.272v-.556q.333-.134.621-.202.29-.068.53-.068.632 0 1.008.316.376.317.376.845 0 .251-.095.478-.093.223-.34.528-.07.08-.434.458-.366.377-1.03 1.055z" aria-label="Protein 2" font-weight="400" font-size="5.583" font-family="sans-serif" letter-spacing="0" word-spacing="0"/><path d="M170.217 4.303v1.53h.693q.384 0 .594-.2.21-.198.21-.566 0-.366-.21-.565-.21-.199-.594-.199zm-.55-.452h1.243q.684 0 1.033.31.352.309.352.906 0 .602-.352.91-.349.308-1.033.308h-.693v1.636h-.55zm5.024 1.485q-.084-.049-.185-.07-.098-.025-.218-.025-.426 0-.655.278-.226.275-.226.793v1.609h-.504V4.868h.504v.474q.158-.278.412-.412.253-.136.616-.136.052 0 .114.008.063.006.14.02zm1.595-.116q-.404 0-.638.315-.234.314-.234.862t.231.864q.235.314.64.314.402 0 .636-.317.235-.316.235-.861 0-.543-.235-.859-.234-.319-.635-.319zm0-.426q.654 0 1.028.425.373.426.373 1.178 0 .75-.373 1.178-.374.425-1.028.425-.657 0-1.03-.425-.371-.428-.371-1.178 0-.752.37-1.178.374-.425 1.03-.425zM179.018 4v.868h1.033v.39h-1.033v1.657q0 .373.1.48.104.106.418.106h.515v.42h-.515q-.581 0-.802-.215-.22-.219-.22-.791V5.257h-.369v-.39h.368v-.866zm4.307 2.269v.245h-2.306q.032.518.31.79.281.27.78.27.29 0 .559-.07.273-.071.54-.213v.475q-.27.114-.554.174-.283.06-.575.06-.73 0-1.158-.425-.426-.426-.426-1.15 0-.75.404-1.19.406-.441 1.093-.441.616 0 .973.398.36.395.36 1.077zm-.502-.147q-.005-.412-.231-.657-.224-.246-.595-.246-.42 0-.673.237-.25.238-.289.668zm1.325-1.254h.502V7.92h-.502zm0-1.19h.502v.636h-.502zm4.087 2.4v1.843h-.502V6.094q0-.433-.169-.648-.169-.216-.507-.216-.406 0-.64.26-.235.258-.235.705v1.726h-.504V4.868h.504v.474q.18-.275.423-.412.245-.136.564-.136.526 0 .796.327.27.325.27.957zm4.523-.352q.395.085.616.352.224.267.224.66 0 .602-.415.932-.414.33-1.178.33-.256 0-.528-.052-.27-.049-.56-.15v-.531q.23.133.502.201.273.069.57.069.518 0 .788-.205.273-.204.273-.594 0-.36-.254-.562-.25-.204-.7-.204h-.475v-.453h.496q.406 0 .622-.16.215-.164.215-.47 0-.313-.223-.48-.221-.168-.636-.168-.226 0-.485.049t-.57.152v-.49q.314-.088.586-.131.276-.044.518-.044.627 0 .993.286.365.284.365.77 0 .337-.193.572-.194.231-.551.321z" aria-label="Protein 3" font-weight="400" font-size="5.583" font-family="sans-serif" letter-spacing="0" word-spacing="0"/><path d="M83.333.533V60zM166.667 0v60z" fill="none" stroke="#000" stroke-linecap="round" stroke-linejoin="round" stroke-dasharray="1.00000003,2.00000006" stroke-dashoffset="2.3"/></svg>
