<?xml version="1.0" encoding="UTF-8" standalone="no"?>
<svg viewBox="0 0 200 200" version="1.1" xmlns="http://www.w3.org/2000/svg"
     xml:space="preserve"
     style="fill-rule:evenodd;clip-rule:evenodd;stroke-linecap:round;stroke-linejoin:round;stroke-miterlimit:1.5;"><rect x="116.949" y="48" width="35" height="35" style="fill:#2196F3;"/>
    <rect x="82.5" y="82.5" width="35" height="35" style="fill:#2196F3;"/>
    <rect x="47.5" y="118" width="35" height="35" style="fill:#2196F3;"/>
    <rect x="46.729" y="82.5" width="35" height="35" style="fill:#FFC107;"/>
    <rect x="116.949" y="118" width="35" height="35" style="fill:#FFC107;"/>
    <rect x="81.729" y="48.051" width="35" height="35" style="fill:#FFC107;"/>
    <text x="54.5px" y="78.209px" style="font-family:'ArialMT', 'Arial', sans-serif;font-size:36px;">1</text>
    <text x="90.051px" y="78.209px" style="font-family:'ArialMT', 'Arial', sans-serif;font-size:36px;">2</text>
    <text x="125.051px" y="78.209px" style="font-family:'ArialMT', 'Arial', sans-serif;font-size:36px;">5</text>
    <text x="54.5px" y="113.209px" style="font-family:'ArialMT', 'Arial', sans-serif;font-size:36px;">0</text>
    <text x="54.5px" y="147.709px" style="font-family:'ArialMT', 'Arial', sans-serif;font-size:36px;">4</text>
    <text x="90.051px" y="113.209px" style="font-family:'ArialMT', 'Arial', sans-serif;font-size:36px;">4</text>
    <text x="90.051px" y="147.709px" style="font-family:'ArialMT', 'Arial', sans-serif;font-size:36px;">3</text>
    <text x="125.051px" y="113.209px" style="font-family:'ArialMT', 'Arial', sans-serif;font-size:36px;">2</text>
    <text x="125.051px" y="147.709px" style="font-family:'ArialMT', 'Arial', sans-serif;font-size:36px;">1</text>
    <path d="M186.949,48.051l-173.898,0" style="fill:none;stroke:#000;stroke-width:1px;"/>
    <path d="M186.949,83.051l-173.898,0" style="fill:none;stroke:#000;stroke-width:1px;"/>
    <path d="M186.949,118.051l-173.898,0" style="fill:none;stroke:#000;stroke-width:1px;"/>
    <path d="M186.949,153.051l-173.898,0" style="fill:none;stroke:#000;stroke-width:1px;"/>
    <path d="M46.949,13.051l0,173.898" style="fill:none;stroke:#000;stroke-width:1px;"/>
    <path d="M81.949,13.051l0,173.898" style="fill:none;stroke:#000;stroke-width:1px;"/>
    <path d="M116.949,13.051l0,173.898" style="fill:none;stroke:#000;stroke-width:1px;"/>
    <path d="M151.949,13.051l0,173.898" style="fill:none;stroke:#000;stroke-width:1px;"/></svg>