<svg xmlns="http://www.w3.org/2000/svg" viewBox="0 0 740 740" width="275" height="275" overflow="hidden" style="font-family: 'Helvetica Neue', Helvetica, Arial, sans-serif;" version="1.1"><g transform="translate(370,370)"><path id="path-0" d="M0,92.24999A92.24999,92.24999 0 1,1 0,-92.24999A92.24999,92.24999 0 1,1 0,92.24999Z" fill-rule="evenodd" style="fill: #f0d078;" fill-opacity="1"/><path id="path-1" d="M1.123576329632031e-14,-183.49997A183.49997,183.49997 0 1,1 -172.2351211666213,63.30334143407658L-85.64825507604465,31.479182048280588A91.24999,91.24999 0 1,0 5.5872664893145955e-15,-91.24999Z" fill-rule="evenodd" style="fill: #e9b872;" fill-opacity="1"/><path id="path-2" d="M1.6823029785634904e-14,-274.749994A274.749994,274.749994 0 0,1 248.9035009470732,-116.33834155724543L165.33171582471653,-77.27660540199197A182.49997,182.49997 0 0,0 1.1174532978629191e-14,-182.49997Z" fill-rule="evenodd" style="fill: #ebcd6d;" fill-opacity="1"/><path id="path-3" d="M2.24102962749495e-14,-365.99994A365.99994,365.99994 0 0,1 331.5693588594315,-154.97664425824144L247.99757373707476,-115.91490810298794A273.749994,273.749994 0 0,0 1.6761799467943786e-14,-273.749994Z" fill-rule="evenodd" style="fill: #eccf73;" fill-opacity="1"/><path id="path-4" d="M2.7997562764264097e-14,-457.249994A457.249994,457.249994 0 0,1 391.60035092004375,-236.06509199646294L312.5951407016205,-188.43905648706172A364.99994,364.99994 0 0,0 2.2349065957258382e-14,-364.99994Z" fill-rule="evenodd" style="fill: #f0e58a;" fill-opacity="0.2"/><path id="path-11" d="M2.2205655456418567,-548.4955050760739A548.4999,548.4999 0 0,1 455.44330667626605,-305.65281677712136L378.84413613682113,-254.2463038369401A456.249994,456.249994 0 0,0 1.8470975937996303,-456.24626105917724Z" fill-rule="evenodd" style="fill: #eae08f;" fill-opacity="0.2"/><path id="path-12" d="M2.589985064401783,-639.7447572879094A639.74999,639.74999 0 0,1 531.2121339036303,-356.5020775445094L454.61296336418536,-305.0955646043281A547.4999,547.4999 0 0,0 2.2165171125595564,-547.4955132710127Z" fill-rule="evenodd" style="fill: #ebe296;" fill-opacity="0.2"/><path id="path-19" d="M391.60035092004375,-236.06509199646294A457.249994,457.249994 0 0,1 410.23142490048195,-201.95974976247163L327.46740314636617,-161.21445306353667A364.99994,364.99994 0 0,0 312.5951407016205,-188.43905648706172Z" fill-rule="evenodd" style="fill: #e8dd68;" fill-opacity="0.2"/><path id="path-27" d="M410.23142490048195,-201.95974976247163A457.249994,457.249994 0 0,1 414.23521677178974,-193.61494695923741L330.66343164943305,-154.55321080398394A364.99994,364.99994 0 0,0 327.46740314636617,-161.21445306353667Z" fill-rule="evenodd" style="fill: #ffffff;" fill-opacity="0.2"/><path id="path-28" d="M248.9035009470732,-116.33834155724543A274.749994,274.749994 0 0,1 214.31193525174805,171.9242766704299L142.35460667313563,114.19901908044935A182.49997,182.49997 0 0,0 165.33171582471653,-77.27660540199197Z" fill-rule="evenodd" style="fill: #e7a678;" fill-opacity="1"/><path id="path-29" d="M331.5693588594315,-154.97664425824144A365.99994,365.99994 0 0,1 286.4140864942096,227.8661252966034L214.22365075898873,170.43265519110705A273.749994,273.749994 0 0,0 247.99757373707476,-115.91490810298794Z" fill-rule="evenodd" style="fill: #e8aa7e;" fill-opacity="1"/><path id="path-30" d="M414.23521677178974,-193.61494695923741A457.249994,457.249994 0 0,1 358.97153357790995,283.2260591483831L286.5491738784847,226.08531785491488A364.99994,364.99994 0 0,0 330.66343164943305,-154.55321080398394Z" fill-rule="evenodd" style="fill: #eec96e;" fill-opacity="0.2"/><path id="path-31" d="M496.90107468414794,-232.25324966023337A548.4999,548.4999 0 0,1 430.6088270475311,339.7473886121118L358.1864673481059,282.60664731864364A456.249994,456.249994 0 0,0 413.3292895617913,-193.19151350497992Z" fill-rule="evenodd" style="fill: #eecb74;" fill-opacity="0.2"/><path id="path-38" d="M358.97153357790995,283.2260591483831A457.249994,457.249994 0 0,1 357.8219700805392,284.67701036030576L285.63153434531836,227.2435402548094A364.99994,364.99994 0 0,0 286.5491738784847,226.08531785491488Z" fill-rule="evenodd" style="fill: #edb27d;" fill-opacity="0.2"/><path id="path-39" d="M430.6088270475311,339.7473886121118A548.4999,548.4999 0 0,1 429.22985366686873,341.48789542400806L357.0394179316479,284.05442531851173A456.249994,456.249994 0 0,0 358.1864673481059,282.60664731864364Z" fill-rule="evenodd" style="fill: #eeb684;" fill-opacity="0.2"/><path id="path-43" d="M286.4140864942096,227.8661252966034A365.99994,365.99994 0 0,1 285.48923858831586,229.02378621065458L213.53191000970347,171.298528620674A273.749994,273.749994 0 0,0 214.22365075898873,170.43265519110705Z" fill-rule="evenodd" style="fill: #ffffff;" fill-opacity="1"/><path id="path-44" d="M214.31193525174805,171.9242766704299A274.749994,274.749994 0 0,1 212.91287373686882,173.65388189472796L141.42529374696474,115.34789243234887A182.49997,182.49997 0 0,0 142.35460667313563,114.19901908044935Z" fill-rule="evenodd" style="fill: #e8b598;" fill-opacity="1"/><path id="path-45" d="M212.91287373686882,173.65388189472796A274.749994,274.749994 0 0,1 -250.29807650155297,113.30681974013174L-166.25804899557204,75.26294668816759A182.49997,182.49997 0 0,0 141.42529374696474,115.34789243234887Z" fill-rule="evenodd" style="fill: #b4bd6a;" fill-opacity="1"/><path id="path-46" d="M283.6255206103512,231.3278281109024A365.99994,365.99994 0 0,1 258.8010819142764,258.8010819142763L193.57048134981736,193.57048134981733A273.749994,273.749994 0 0,0 212.1379406204471,173.0218386485233Z" fill-rule="evenodd" style="fill: #98b38a;" fill-opacity="1"/><path id="path-47" d="M354.33816748383356,289.0017743270769A457.249994,457.249994 0 0,1 349.6118823464631,294.70170379921933L279.07782844496234,235.24575590314936A364.99994,364.99994 0 0,0 282.8505874939295,230.69578486469774Z" fill-rule="evenodd" style="fill: #c9d4a3;" fill-opacity="0.2"/><path id="path-48" d="M425.0508143573159,346.67572054325126A548.4999,548.4999 0 0,1 422.2299174441126,350.10590799804817L351.216772714451,291.2230091597256A456.249994,456.249994 0 0,0 353.56323436741184,288.3697310808722Z" fill-rule="evenodd" style="fill: #d0d996;" fill-opacity="0.2"/><path id="path-52" d="M422.2299174441126,350.10590799804817A548.4999,548.4999 0 0,1 420.8090769555359,351.81240846768003L350.03489764988745,292.64250020670744A456.249994,456.249994 0 0,0 351.216772714451,291.2230091597256Z" fill-rule="evenodd" style="fill: #c5cfb0;" fill-opacity="0.2"/><path id="path-54" d="M420.8090769555359,351.81240846768003A548.4999,548.4999 0 0,1 419.38133945770363,353.5131427750066L348.84728555620296,294.0571948789367A456.249994,456.249994 0 0,0 350.03489764988745,292.64250020670744Z" fill-rule="evenodd" style="fill: #ffffff;" fill-opacity="0.2"/><path id="path-55" d="M349.6118823464631,294.70170379921933A457.249994,457.249994 0 0,1 327.2275172435841,319.37394142071116L261.2094998226532,254.94037970160647A364.99994,364.99994 0 0,0 279.07782844496234,235.24575590314936Z" fill-rule="evenodd" style="fill: #9fb476;" fill-opacity="0.2"/><path id="path-56" d="M419.38133945770363,353.5131427750066A548.4999,548.4999 0 0,1 415.0569794760059,358.5804704501548L345.2502222168235,298.2722691757213A456.249994,456.249994 0 0,0 348.84728555620296,294.0571948789367Z" fill-rule="evenodd" style="fill: #a8bba8;" fill-opacity="0.2"/><path id="path-61" d="M415.0569794760059,358.5804704501548A548.4999,548.4999 0 0,1 401.7191525162153,373.46214333136044L334.1556305114371,310.65105359149175A456.249994,456.249994 0 0,0 345.2502222168235,298.2722691757213Z" fill-rule="evenodd" style="fill: #b18e41;" fill-opacity="0.2"/><path id="path-66" d="M401.7191525162153,373.46214333136044A548.4999,548.4999 0 0,1 392.52989219924734,383.1090363461127L326.51187477831655,318.6754746270081A456.249994,456.249994 0 0,0 334.1556305114371,310.65105359149175Z" fill-rule="evenodd" style="fill: #ffffff;" fill-opacity="0.2"/><path id="path-67" d="M327.2275172435841,319.37394142071116A457.249994,457.249994 0 0,1 323.3245756975488,323.32457569754877L258.0939751330898,258.09397513308977A364.99994,364.99994 0 0,0 261.2094998226532,254.94037970160647Z" fill-rule="evenodd" style="fill: #ffffff;" fill-opacity="0.2"/><path id="path-68" d="M258.8010819142764,258.8010819142763A365.99994,365.99994 0 0,1 -332.8133050055474,152.28691346036416L-248.92798427669015,113.90312174801826A273.749994,273.749994 0 0,0 193.57048134981736,193.57048134981733Z" fill-rule="evenodd" style="fill: #cb8f45;" fill-opacity="1"/><path id="path-69" d="M323.3245756975488,323.32457569754877A457.249994,457.249994 0 0,1 -410.231424900482,201.9597497624715L-327.46740314636617,161.21445306353655A364.99994,364.99994 0 0,0 258.0939751330898,258.09397513308977Z" fill-rule="evenodd" style="fill: #ab723c;" fill-opacity="0.2"/><path id="path-70" d="M387.84806948082127,387.8480694808212A548.4999,548.4999 0 0,1 360.257862311899,413.60188907022746L299.6675472740272,344.03985759032145A456.249994,456.249994 0 0,0 322.61746891636227,322.6174689163622Z" fill-rule="evenodd" style="fill: #ac7d32;" fill-opacity="0.2"/><path id="path-78" d="M360.257862311899,413.60188907022746A548.4999,548.4999 0 0,1 -123.28948871059828,534.4641727688387L-102.55392748260796,444.5748018701599A456.249994,456.249994 0 0,0 299.6675472740272,344.03985759032145Z" fill-rule="evenodd" style="fill: #a86a47;" fill-opacity="0.2"/><path id="path-98" d="M-170.34035444432266,521.3793375727336A548.4999,548.4999 0 0,1 -492.0982756870735,242.26336302835563L-409.3342539329577,201.51806632942072A456.249994,456.249994 0 0,0 -141.69149811344067,433.6906522653777Z" fill-rule="evenodd" style="fill: #944f87;" fill-opacity="0.2"/><path id="path-101" d="M-210.94675879504103,603.9714624498964A639.74999,639.74999 0 0,1 -569.3142437817794,291.82418393131945L-487.22086513563767,249.74402610769422A547.4999,547.4999 0 0,0 -180.52887915636572,516.88061850929Z" fill-rule="evenodd" style="fill: #8f5189;" fill-opacity="0.2"/><path id="path-102" d="M-241.034905321102,690.1182322014448A730.9999,730.9999 0 0,1 -610.2593067643974,402.42338215794194L-533.2464188724471,351.6387624533316A638.74999,638.74999 0 0,0 -210.61702568242666,603.0273882608384Z" fill-rule="evenodd" style="fill: #92538c;" fill-opacity="0.2"/><path id="path-105" d="M-410.231424900482,201.9597497624715A457.249994,457.249994 0 0,1 -415.78929976444414,190.2546207097036L-331.9039790355869,151.8708289973577A364.99994,364.99994 0 0,0 -327.46740314636617,161.21445306353655Z" fill-rule="evenodd" style="fill: #ffffff;" fill-opacity="0.2"/><path id="path-106" d="M-332.8133050055474,152.28691346036416A365.99994,365.99994 0 0,1 -333.427100999339,150.93829308421553L-249.38707349335803,112.89442003225138A273.749994,273.749994 0 0,0 -248.92798427669015,113.90312174801826Z" fill-rule="evenodd" style="fill: #835d8e;" fill-opacity="1"/><path id="path-107" d="M-415.78929976444414,190.2546207097036A457.249994,457.249994 0 0,1 -416.55612549712504,188.56976642829935L-332.5160979911441,150.52589337633518A364.99994,364.99994 0 0,0 -331.9039790355869,151.8708289973577Z" fill-rule="evenodd" style="fill: #855f91;" fill-opacity="0.2"/><path id="path-110" d="M-250.29807650155297,113.30681974013174A274.749994,274.749994 0 0,1 -250.75474040162308,112.29257618433459L-166.56138352428104,74.58924532717403A182.49997,182.49997 0 0,0 -166.25804899557204,75.26294668816759Z" fill-rule="evenodd" style="fill: #68597a;" fill-opacity="1"/><path id="path-111" d="M-333.427100999339,150.93829308421553A365.99994,365.99994 0 0,1 -334.0354321637636,149.5871988479216L-249.84207528642153,111.88386799076103A273.749994,273.749994 0 0,0 -249.38707349335803,112.89442003225138Z" fill-rule="evenodd" style="fill: #6a5a7c;" fill-opacity="1"/><path id="path-112" d="M-416.55612549712504,188.56976642829935A457.249994,457.249994 0 0,1 -417.31612392590415,186.88182151150863L-333.1227670485621,149.17849065434805A364.99994,364.99994 0 0,0 -332.5160979911441,150.52589337633518Z" fill-rule="evenodd" style="fill: #6d5c7f;" fill-opacity="0.2"/><path id="path-115" d="M-250.75474040162308,112.29257618433459A274.749994,274.749994 0 0,1 -257.8833762426659,94.78252348235716L-171.2965101520893,62.958364096561176A182.49997,182.49997 0 0,0 -166.56138352428104,74.58924532717403Z" fill-rule="evenodd" style="fill: #34517f;" fill-opacity="1"/><path id="path-116" d="M-334.0354321637636,149.5871988479216A365.99994,365.99994 0 0,1 -334.6382885283482,148.23365289575088L-250.29298219845714,110.87148218637104A273.749994,273.749994 0 0,0 -249.84207528642153,111.88386799076103Z" fill-rule="evenodd" style="fill: #2a5988;" fill-opacity="1"/><path id="path-117" d="M-417.31612392590415,186.88182151150863A457.249994,457.249994 0 0,1 -418.0692825945006,185.19081362454125L-333.7239762646095,147.8286429151614A364.99994,364.99994 0 0,0 -333.1227670485621,149.17849065434805Z" fill-rule="evenodd" style="fill: #2b5a8a;" fill-opacity="0.2"/><path id="path-121" d="M-334.6382885283482,148.23365289575088A365.99994,365.99994 0 0,1 -341.4420242256938,131.80798190041716L-255.38184189011932,98.58588810174643A273.749994,273.749994 0 0,0 -250.29298219845714,110.87148218637104Z" fill-rule="evenodd" style="fill: #3e4d76;" fill-opacity="1"/><path id="path-122" d="M-418.0692825945006,185.19081362454125A457.249994,457.249994 0 0,1 -419.5550313867364,181.79971985147444L-334.9099758472581,145.12170092025843A364.99994,364.99994 0 0,0 -333.7239762646095,147.8286429151614Z" fill-rule="evenodd" style="fill: #375480;" fill-opacity="0.2"/><path id="path-127" d="M-419.5550313867364,181.79971985147444A457.249994,457.249994 0 0,1 -420.28759715913515,180.09968954498646L-335.49474677547147,143.76465103098974A364.99994,364.99994 0 0,0 -334.9099758472581,145.12170092025843Z" fill-rule="evenodd" style="fill: #464b6b;" fill-opacity="0.2"/><path id="path-131" d="M-420.28759715913515,180.09968954498646A457.249994,457.249994 0 0,1 -421.0132744692683,178.3967074266352L-336.0740189858566,142.40524485669076A364.99994,364.99994 0 0,0 -335.49474677547147,143.76465103098974Z" fill-rule="evenodd" style="fill: #363a5e;" fill-opacity="0.2"/><path id="path-135" d="M-421.0132744692683,178.3967074266352A457.249994,457.249994 0 0,1 -423.84686290949907,171.55581978404663L-338.3359321202125,136.94450349081905A364.99994,364.99994 0 0,0 -336.0740189858566,142.40524485669076Z" fill-rule="evenodd" style="fill: #cda3d3;" fill-opacity="0.2"/><path id="path-141" d="M-423.84686290949907,171.55581978404663A457.249994,457.249994 0 0,1 -425.22202249928824,168.118393049704L-339.4336538266598,134.20057619057835A364.99994,364.99994 0 0,0 -338.3359321202125,136.94450349081905Z" fill-rule="evenodd" style="fill: #d9829f;" fill-opacity="0.2"/><path id="path-146" d="M-425.22202249928824,168.118393049704A457.249994,457.249994 0 0,1 -425.8991538950076,166.39553242655455L-339.9741742409574,132.82530199167283A364.99994,364.99994 0 0,0 -339.4336538266598,134.20057619057835Z" fill-rule="evenodd" style="fill: #ed7c9d;" fill-opacity="0.2"/><path id="path-148" d="M-425.8991538950076,166.39553242655455A457.249994,457.249994 0 0,1 -426.5693048557336,164.66994460099932L-340.5091225201591,131.4478508023286A364.99994,364.99994 0 0,0 -339.9741742409574,132.82530199167283Z" fill-rule="evenodd" style="fill: #ffffff;" fill-opacity="0.2"/><path id="path-149" d="M-341.4420242256938,131.80798190041716A365.99994,365.99994 0 0,1 -342.4980547285758,129.03907356743318L-256.1717007703487,96.51488084449407A273.749994,273.749994 0 0,0 -255.38184189011932,98.58588810174643Z" fill-rule="evenodd" style="fill: #86ece9;" fill-opacity="1"/><path id="path-150" d="M-426.5693048557336,164.66994460099932A457.249994,457.249994 0 0,1 -427.23246439777415,162.9416578552108L-341.0384898965283,130.06824519880138A364.99994,364.99994 0 0,0 -340.5091225201591,131.4478508023286Z" fill-rule="evenodd" style="fill: #ef91ac;" fill-opacity="0.2"/><path id="path-151" d="M-427.23246439777415,162.9416578552108A457.249994,457.249994 0 0,1 -427.88862165202545,161.21070051559786L-341.56226769379833,128.68650779265877A364.99994,364.99994 0 0,0 -341.0384898965283,130.06824519880138Z" fill-rule="evenodd" style="fill: #e9947a;" fill-opacity="0.2"/><path id="path-156" d="M-342.4980547285758,129.03907356743318A365.99994,365.99994 0 0,1 -343.5316313187106,126.26170553063776L-256.9447652281339,94.43754614484176A273.749994,273.749994 0 0,0 -256.1717007703487,96.51488084449407Z" fill-rule="evenodd" style="fill: #ffffff;" fill-opacity="1"/><path id="path-157" d="M-172.2351211666213,63.30334143407658A183.49997,183.49997 0 0,1 -1.4857627653696184,-183.49398493957514L-0.7388329827791699,-91.247008859598A91.24999,91.24999 0 0,0 -85.64825507604465,31.479182048280588Z" fill-rule="evenodd" style="fill: #8a69da;" fill-opacity="1"/><path id="path-158" d="M-257.8833762426659,94.78252348235716A274.749994,274.749994 0 0,1 -259.7490222503429,89.54332995813166L-172.53574726364906,59.478281045892736A182.49997,182.49997 0 0,0 -171.2965101520893,62.958364096561176Z" fill-rule="evenodd" style="fill: #e7a576;" fill-opacity="1"/><path id="path-159" d="M-343.5316313187106,126.26170553063776A365.99994,365.99994 0 0,1 -346.01689588216743,119.28247048107804L-258.80362089547356,89.2174215688391A273.749994,273.749994 0 0,0 -256.9447652281339,94.43754614484176Z" fill-rule="evenodd" style="fill: #e8a97c;" fill-opacity="1"/><path id="path-160" d="M-429.1798863947552,157.74088757891835A457.249994,457.249994 0 0,1 -431.67792294679975,150.7704657429192L-344.58707900619333,120.35258610424387A364.99994,364.99994 0 0,0 -342.5930203041786,125.91672819312235Z" fill-rule="evenodd" style="fill: #e9ad82;" fill-opacity="0.2"/><path id="path-169" d="M-431.67792294679975,150.7704657429192A457.249994,457.249994 0 0,1 -432.284769513992,149.0216110040244L-345.0714945272981,118.95656209178547A364.99994,364.99994 0 0,0 -344.58707900619333,120.35258610424387Z" fill-rule="evenodd" style="fill: #ffffff;" fill-opacity="0.2"/><path id="path-170" d="M-259.7490222503429,89.54332995813166A274.749994,274.749994 0 0,1 -48.683224936391625,-270.4024890968881L-32.33735596320827,-179.612208408306A182.49997,182.49997 0 0,0 -172.53574726364906,59.478281045892736Z" fill-rule="evenodd" style="fill: #e59060;" fill-opacity="1"/><path id="path-171" d="M-346.01689588216743,119.28247048107804A365.99994,365.99994 0 0,1 -90.90567958928479,-354.530897692162L-67.99297756165767,-265.17167552794905A273.749994,273.749994 0 0,0 -258.80362089547356,89.2174215688391Z" fill-rule="evenodd" style="fill: #e69466;" fill-opacity="1"/><path id="path-172" d="M-432.284769513992,149.0216110040244A457.249994,457.249994 0 0,1 -124.29430053006807,-440.0323730769602L-99.21797636626538,-351.25602224842095A364.99994,364.99994 0 0,0 -345.0714945272981,118.95656209178547Z" fill-rule="evenodd" style="fill: #ebc34b;" fill-opacity="0.2"/><path id="path-173" d="M-518.5526431458164,178.76075152697078A548.4999,548.4999 0 0,1 -155.4985101704257,-525.9966381401861L-129.34584369235503,-437.5313876963718A456.249994,456.249994 0 0,0 -431.33936815912267,148.69570261473186Z" fill-rule="evenodd" style="fill: #ecc550;" fill-opacity="0.2"/><path id="path-174" d="M-604.820516777641,208.49989204991715A639.74999,639.74999 0 0,1 -390.1396956871608,-507.0217750246329L-333.8827407404776,-433.9107805017374A547.4999,547.4999 0 0,0 -517.6072417909471,178.4348431376782Z" fill-rule="evenodd" style="fill: #edc756;" fill-opacity="0.2"/><path id="path-202" d="M-124.29430053006807,-440.0323730769602A457.249994,457.249994 0 0,1 -113.57000544317067,-442.92145620147835L-90.65730341554357,-353.5622340372654A364.99994,364.99994 0 0,0 -99.21797636626538,-351.25602224842095Z" fill-rule="evenodd" style="fill: #ffffff;" fill-opacity="0.2"/><path id="path-203" d="M-90.90567958928479,-354.530897692162A365.99994,365.99994 0 0,1 -64.85190291799576,-360.20859330104105L-48.5060339448124,-269.418312612459A273.749994,273.749994 0 0,0 -67.99297756165767,-265.17167552794905Z" fill-rule="evenodd" style="fill: #ffffff;" fill-opacity="1"/><path id="path-204" d="M-48.683224936391625,-270.4024890968881A274.749994,274.749994 0 0,1 -28.866686648528045,-273.2293485369675L-19.17441424333528,-181.4899221401149A182.49997,182.49997 0 0,0 -32.33735596320827,-179.612208408306Z" fill-rule="evenodd" style="fill: #53e4e0;" fill-opacity="1"/><path id="path-205" d="M-64.85190291799576,-360.20859330104105A365.99994,365.99994 0 0,1 -38.453893770195684,-363.97430960702496L-28.76162136500292,-272.23488321017237A273.749994,273.749994 0 0,0 -48.5060339448124,-269.418312612459Z" fill-rule="evenodd" style="fill: #58e5e1;" fill-opacity="1"/><path id="path-219" d="M-1.4857627653696184,-183.49398493957514A183.49997,183.49997 0 0,1 -3.370728988896093e-14,-183.49997L-1.6761799467943786e-14,-91.24999A91.24999,91.24999 0 0,0 -0.7388329827791699,-91.247008859598Z" fill-rule="evenodd" style="fill: #d4d565;" fill-opacity="1"/><path id="path-220" d="M-2.224595748148788,-274.7409937991731A274.749994,274.749994 0 0,1 -5.046908935690471e-14,-274.749994L-3.352359893588757e-14,-182.49997A182.49997,182.49997 0 0,0 -1.4776659655583397,-182.494017719196Z" fill-rule="evenodd" style="fill: #d5d66a;" fill-opacity="1"/><path id="path-221" d="M-2.963428730927958,-365.98800265877117A365.99994,365.99994 0 0,1 -6.72308888248485e-14,-365.99994L-5.0285398403831354e-14,-273.749994A273.749994,273.749994 0 0,0 -2.2164989483375095,-273.741026578794Z" fill-rule="evenodd" style="fill: #d6d86f;" fill-opacity="1"/><text dy=".2em" style="fill: #000; pointer-events: none; font-size: 12px;" transform="rotate(90)translate(5)rotate(0)" text-anchor="start"><tspan x="0"/><tspan x="0" dy="1em"/><tspan x="0" dy="1em"/></text><text dy=".2em" style="fill: #000; pointer-events: none; font-size: 12px;" transform="rotate(34.90979381443299)translate(96.24999)rotate(0)" text-anchor="start"><tspan x="0">Bacteria</tspan><tspan x="0" dy="1em"/><tspan x="0" dy="1em"/></text><text dy=".2em" style="fill: #000; pointer-events: none; font-size: 11.993975903614457px;" transform="rotate(-57.52577319587629)translate(187.49997)rotate(0)" text-anchor="start"><tspan x="0">Actinobacteria</tspan><tspan x="0" dy="1em"/><tspan x="0" dy="1em"/></text><text dy=".2em" style="fill: #000; pointer-events: none; font-size: 11.993975903614457px;" transform="rotate(-57.52577319587629)translate(278.749994)rotate(0)" text-anchor="start"><tspan x="0">Actinobacteria</tspan><tspan x="0" dy="1em"/><tspan x="0" dy="1em"/></text><text dy=".2em" style="fill: #000; pointer-events: none; font-size: 6.496987951807228px;" transform="rotate(6.342783505154642)translate(187.49997)rotate(0)" text-anchor="start"><tspan x="0">Bacteroidetes/Chlorobi</tspan><tspan x="0" dy="1em">group</tspan><tspan x="0" dy="1em"/></text><text dy=".2em" style="fill: #000; pointer-events: none; font-size: 12px;" transform="rotate(6.726804123711332)translate(278.749994)rotate(0)" text-anchor="start"><tspan x="0">Bacteroidetes</tspan><tspan x="0" dy="1em"/><tspan x="0" dy="1em"/></text><text dy=".2em" style="fill: #000; pointer-events: none; font-size: 12px;" transform="rotate(38.62113402061854)translate(278.749994)rotate(0)" text-anchor="start"><tspan x="0"/><tspan x="0" dy="1em"/><tspan x="0" dy="1em"/></text><text dy=".2em" style="fill: #000; pointer-events: none; font-size: 11.863095238095237px;" transform="rotate(38.96907216494847)translate(187.49997)rotate(0)" text-anchor="start"><tspan x="0">Cyanobacteria</tspan><tspan x="0" dy="1em"/><tspan x="0" dy="1em"/></text><text dy=".2em" style="fill: #000; pointer-events: none; font-size: 12px;" transform="rotate(97.42268041237114)translate(187.49997)rotate(-180)" text-anchor="end"><tspan x="0">Firmicutes</tspan><tspan x="0" dy="1em"/><tspan x="0" dy="1em"/></text><text dy=".2em" style="fill: #000; pointer-events: none; font-size: 12px;" transform="rotate(42.10051546391753)translate(278.749994)rotate(0)" text-anchor="start"><tspan x="0">Bacilli</tspan><tspan x="0" dy="1em"/><tspan x="0" dy="1em"/></text><text dy=".2em" style="fill: #eeeeee; pointer-events: none; font-size: 12px;" transform="rotate(100.20618556701032)translate(278.749994)rotate(-180)" text-anchor="end"><tspan x="0">Clostridia</tspan><tspan x="0" dy="1em"/><tspan x="0" dy="1em"/></text><text dy=".2em" style="fill: #eeeeee; pointer-events: none; font-size: 11.252808988764045px;" transform="rotate(155.52835051546393)translate(278.749994)rotate(-180)" text-anchor="end"><tspan x="0">Erysipelotrichia</tspan><tspan x="0" dy="1em"/><tspan x="0" dy="1em"/></text><text dy=".2em" style="fill: #eeeeee; pointer-events: none; font-size: 10.811827956989248px;" transform="rotate(155.76030927835052)translate(187.49997)rotate(-180)" text-anchor="end"><tspan x="0">Planctomycetes</tspan><tspan x="0" dy="1em"/><tspan x="0" dy="1em"/></text><text dy=".2em" style="fill: #eeeeee; pointer-events: none; font-size: 11.252808988764045px;" transform="rotate(155.76030927835052)translate(278.749994)rotate(-180)" text-anchor="end"><tspan x="0">Planctomycetia</tspan><tspan x="0" dy="1em"/><tspan x="0" dy="1em"/></text><text dy=".2em" style="fill: #eeeeee; pointer-events: none; font-size: 11.863095238095237px;" transform="rotate(157.8479381443299)translate(187.49997)rotate(-180)" text-anchor="end"><tspan x="0">Proteobacteria</tspan><tspan x="0" dy="1em"/><tspan x="0" dy="1em"/></text><text dy=".2em" style="fill: #eeeeee; pointer-events: none; font-size: 8.799145299145298px;" transform="rotate(155.99226804123714)translate(278.749994)rotate(-180)" text-anchor="end"><tspan x="0">Alphaproteobacteria</tspan><tspan x="0" dy="1em"/><tspan x="0" dy="1em"/></text><text dy=".2em" style="fill: #eeeeee; pointer-events: none; font-size: 8.019230769230768px;" transform="rotate(157.49997)translate(278.749994)rotate(-180)" text-anchor="end"><tspan x="0">Gammaproteobacteria</tspan><tspan x="0" dy="1em"/><tspan x="0" dy="1em"/></text><text dy=".2em" style="fill: #000; pointer-events: none; font-size: 7.124161073825504px;" transform="rotate(158.6237113402062)translate(278.749994)rotate(-180)" text-anchor="end"><tspan x="0">delta/epsilon</tspan><tspan x="0" dy="1em">subdivisions</tspan><tspan x="0" dy="1em"/></text><text dy=".2em" style="fill: #000; pointer-events: none; font-size: 12px;" transform="rotate(159.58762886597935)translate(278.749994)rotate(-180)" text-anchor="end"><tspan x="0"/><tspan x="0" dy="1em"/><tspan x="0" dy="1em"/></text><text dy=".2em" style="fill: #000; pointer-events: none; font-size: 12px;" transform="rotate(214.67783505154642)translate(96.24999)rotate(-180)" text-anchor="end"><tspan x="0">Eukaryota</tspan><tspan x="0" dy="1em"/><tspan x="0" dy="1em"/></text><text dy=".2em" style="fill: #000; pointer-events: none; font-size: 12px;" transform="rotate(160.3994845360825)translate(187.49997)rotate(-180)" text-anchor="end"><tspan x="0">Fungi</tspan><tspan x="0" dy="1em"/><tspan x="0" dy="1em"/></text><text dy=".2em" style="fill: #000; pointer-events: none; font-size: 12px;" transform="rotate(160.3994845360825)translate(278.749994)rotate(-180)" text-anchor="end"><tspan x="0">Dikarya</tspan><tspan x="0" dy="1em"/><tspan x="0" dy="1em"/></text><text dy=".2em" style="fill: #000; pointer-events: none; font-size: 12px;" transform="rotate(210.3865979381443)translate(187.49997)rotate(-180)" text-anchor="end"><tspan x="0">Metazoa</tspan><tspan x="0" dy="1em"/><tspan x="0" dy="1em"/></text><text dy=".2em" style="fill: #000; pointer-events: none; font-size: 12px;" transform="rotate(208.29896907216494)translate(278.749994)rotate(-180)" text-anchor="end"><tspan x="0">Chordata</tspan><tspan x="0" dy="1em"/><tspan x="0" dy="1em"/></text><text dy=".2em" style="fill: #000; pointer-events: none; font-size: 12px;" transform="rotate(257.70618556701027)translate(278.749994)rotate(-180)" text-anchor="end"><tspan x="0"/><tspan x="0" dy="1em"/><tspan x="0" dy="1em"/></text><text dy=".2em" style="fill: #000; pointer-events: none; font-size: 12px;" transform="rotate(261.881443298969)translate(187.49997)rotate(-180)" text-anchor="end"><tspan x="0">Viridiplantae</tspan><tspan x="0" dy="1em"/><tspan x="0" dy="1em"/></text><text dy=".2em" style="fill: #000; pointer-events: none; font-size: 12px;" transform="rotate(261.881443298969)translate(278.749994)rotate(-180)" text-anchor="end"><tspan x="0">Streptophyta</tspan><tspan x="0" dy="1em"/><tspan x="0" dy="1em"/></text><text dy=".2em" style="fill: #000; pointer-events: none; font-size: 12px;" transform="rotate(266.75257731958754)translate(187.49997)rotate(-180)" text-anchor="end"><tspan x="0"/><tspan x="0" dy="1em"/><tspan x="0" dy="1em"/></text><text dy=".2em" style="fill: #000; pointer-events: none; font-size: 12px;" transform="rotate(269.7680412371134)translate(96.24999)rotate(-180)" text-anchor="end"><tspan x="0">Viruses</tspan><tspan x="0" dy="1em"/><tspan x="0" dy="1em"/></text><text dy=".2em" style="fill: #000; pointer-events: none; font-size: 12px;" transform="rotate(269.7680412371134)translate(187.49997)rotate(-180)" text-anchor="end"><tspan x="0">Nidovirales</tspan><tspan x="0" dy="1em"/><tspan x="0" dy="1em"/></text><text dy=".2em" style="fill: #000; pointer-events: none; font-size: 12px;" transform="rotate(269.7680412371134)translate(278.749994)rotate(-180)" text-anchor="end"><tspan x="0">Coronaviridae</tspan><tspan x="0" dy="1em"/><tspan x="0" dy="1em"/></text></g></svg>