<?xml version="1.0" encoding="UTF-8"?>
<!-- Created with Inkscape (http://www.inkscape.org/) -->
<svg width="74.274mm" height="74.274mm" version="1.1" viewBox="0 0 74.274 74.274" xmlns="http://www.w3.org/2000/svg">
 <g transform="translate(-71.974 -108.19)">
  <path d="m83.945 131.21c-2.687-5.3e-4 -4.8654 6.3141-4.8653 14.104 7e-5 7.7892 2.1784 14.103 4.8653 14.103l2.9569 0.0357c-2.6868-4.3e-4 -4.8648-6.3144-4.8648-14.103-2e-5 -7.7888 2.178-14.103 4.8648-14.104zm3.8266 0c-2.3289 4.6e-4 -4.2733 4.7473-4.7506 11.084 0.46573-0.44975 1.0265-0.76584 1.7115-0.76584 0.6167 0 1.136 0.25038 1.573 0.62838 0.43772-0.37821 0.95864-0.62838 1.5756-0.62838 0.81643 0 1.4629 0.4374 1.9725 1.0309s0.91322 1.3502 1.3126 2.0919c0.38232 0.71002 0.76187 1.4007 1.1844 1.9141 0.42248-0.5134 0.8005-1.204 1.1829-1.9141 0.39936-0.74167 0.80297-1.4983 1.3126-2.0919s1.1581-1.0309 1.9746-1.0309c0.61696 0 1.1364 0.25063 1.5736 0.6289 0.43725-0.37848 0.95734-0.6289 1.5746-0.6289 0.81643 0 1.4634 0.4374 1.973 1.0309s0.91322 1.3502 1.3126 2.0919c0.38224 0.70987 0.76197 1.4002 1.1844 1.9136 0.42232-0.51335 0.80011-1.2037 1.1824-1.9136 0.39936-0.74167 0.80504-1.4983 1.3146-2.0919s1.1561-1.0309 1.9725-1.0309c0.61721 0 1.1368 0.25089 1.5741 0.62942 0.43731-0.37861 0.95722-0.62942 1.5746-0.62942 0.81643 0 1.4629 0.4374 1.9725 1.0309 0.50962 0.59354 0.91529 1.3502 1.3146 2.0919 0.38237 0.71011 0.76042 1.4007 1.1829 1.9141 0.42256-0.51339 0.80209-1.2041 1.1844-1.9141 0.39936-0.74167 0.80245-1.4983 1.3121-2.0919s1.1566-1.0309 1.973-1.0309c0.61669 0 1.137 0.25038 1.5746 0.62838 0.43708-0.37807 0.9567-0.62838 1.5736-0.62838 0.81643 0 1.4649 0.4374 1.9746 1.0309s0.91322 1.3502 1.3126 2.0919c0.38198 0.70937 0.76131 1.3993 1.1834 1.9126 0.42218-0.51328 0.80186-1.203 1.1839-1.9126 0.39937-0.74167 0.80297-1.4983 1.3126-2.0919 0.17135-0.19956 0.36436-0.37038 0.56793-0.524 0.1346-1.4445 0.36192-2.8838 0.69505-4.3103 0.45032-1.4685 0.72126-3.1621 1.9032-4.2494 0.73089 0.61212 1.0821 1.5846 1.4046 2.4691 1.3614 4.3423 1.5973 8.91 1.1131 13.371-0.41179 2.7197-0.69682 5.7054-2.5177 7.9024-1.0316-1.2019-1.5985-2.8718-1.9141-4.2928-0.37835-1.7771-0.63172-3.5727-0.7524-5.3733-0.40464 0.3092-0.87418 0.50953-1.4216 0.50953-0.61737 0-1.1373-0.25179-1.5746-0.63097-0.43729 0.37907-0.95686 0.63097-1.5741 0.63097-0.81643 0-1.4649-0.43947-1.9746-1.033-0.50962-0.59354-0.91322-1.3502-1.3126-2.0919-0.38199-0.70943-0.76127-1.3993-1.1834-1.9126-0.42209 0.51325-0.80142 1.2032-1.1834 1.9126-0.39936 0.74167-0.80297 1.4983-1.3126 2.0919s-1.1561 1.033-1.9725 1.033c-0.61685 0-1.1378-0.25129-1.5756-0.62993-0.43706 0.37854-0.95634 0.62993-1.573 0.62993-0.81643 0-1.465-0.43947-1.9746-1.033s-0.91322-1.3502-1.3126-2.0919c-0.38204-0.70952-0.76172-1.3993-1.1839-1.9126-0.42209 0.51325-0.80142 1.2032-1.1834 1.9126-0.39936 0.74167-0.80297 1.4983-1.3126 2.0919s-1.1561 1.033-1.9725 1.033c-0.61698 0-1.1379-0.25115-1.5756-0.62993-0.4376 0.37854-0.95789 0.62993-1.5746 0.62993-0.81643 0-1.4634-0.43947-1.973-1.033s-0.91322-1.3502-1.3126-2.0919c-0.38199-0.70943-0.76127-1.3993-1.1834-1.9126-0.42209 0.51325-0.80142 1.2032-1.1834 1.9126-0.39936 0.74167-0.80297 1.4983-1.3126 2.0919s-1.1581 1.033-1.9746 1.033c-0.61685 0-1.1368-0.25129-1.5741-0.62993-0.43759 0.37854-0.95788 0.62993-1.5746 0.62993-0.81642 0-1.4629-0.43947-1.9725-1.033-0.5096-0.59354-0.91321-1.3502-1.3126-2.0919-0.38234-0.71005-0.76186-1.4007-1.1844-1.9141-0.42245 0.51341-0.80051 1.204-1.1829 1.9141-0.39937 0.74167-0.80297 1.4983-1.3126 2.0919-0.24273 0.28272-0.5179 0.52854-0.82682 0.71055 0.39723 6.6309 2.3868 11.678 4.7878 11.678 1.2085-2e-3 2.3734-1.3077 3.268-3.6628h36.144c0.89448 2.3548 2.0592 3.6605 3.2675 3.6628h3.8272c2.6868-5.3e-4 4.8649-6.3147 4.8648-14.104-7e-5 -7.7886-2.1781-14.103-4.8648-14.103h-3.8272c-1.2083 2e-3 -2.373 1.308-3.2675 3.6628h-36.141c-0.89527-2.3569-2.0613-3.6627-3.2706-3.6628zm-3.0391 10.917c-0.60818 0-1.0737 0.30321-1.5193 0.82218-0.0856 0.0996-0.168 0.21305-0.25012 0.32659-0.0334 0.6669-0.0563 1.3434-0.0563 2.0371 0 0.58543 0.0164 1.1588 0.0403 1.7255 0.13918-0.11418 0.27407-0.24706 0.4067-0.40152 0.44558-0.51897 0.84087-1.2448 1.2402-1.9864 0.39388-0.73148 0.79267-1.4762 1.2924-2.066-0.34035-0.29143-0.70812-0.45734-1.1539-0.45734zm3.1486 0c-0.44611 0-0.81534 0.16455-1.1565 0.45631 0.50019 0.58994 0.89882 1.3351 1.2929 2.067 0.39936 0.74167 0.79465 1.4675 1.2402 1.9864 0.44558 0.51897 0.90955 0.82423 1.5177 0.82423 0.44609 0 0.81492-0.16707 1.156-0.4594-0.49984-0.58981-0.8985-1.3344-1.2924-2.066-0.39936-0.74168-0.79465-1.4675-1.2402-1.9864-0.44559-0.51897-0.90956-0.82218-1.5177-0.82218zm8.9395 0c-0.60818 0-1.0722 0.30321-1.5177 0.82218-0.44559 0.51897-0.84088 1.2448-1.2402 1.9864-0.39424 0.73216-0.79357 1.4775-1.294 2.0676 0.34067 0.29252 0.70924 0.45785 1.1555 0.45785 0.60818 0 1.0737-0.30526 1.5193-0.82423 0.44558-0.51897 0.8388-1.2448 1.2382-1.9864 0.39369-0.73114 0.7945-1.4753 1.294-2.065-0.34076-0.29222-0.70851-0.45837-1.155-0.45837zm3.1481 0c-0.44673 0-0.81517 0.16481-1.156 0.45734 0.49985 0.58981 0.89901 1.3344 1.2929 2.066 0.39937 0.74167 0.79465 1.4675 1.2402 1.9864s0.90955 0.82423 1.5177 0.82423c0.44608 0 0.8144-0.16708 1.1555-0.4594-0.49976-0.58978-0.89855-1.3345-1.2924-2.066-0.39936-0.74168-0.79464-1.4675-1.2402-1.9864s-0.90955-0.82218-1.5177-0.82218zm8.9395 0c-0.60819 0-1.0716 0.30321-1.5172 0.82218-0.44559 0.51897-0.84088 1.2448-1.2402 1.9864-0.39412 0.73193-0.79327 1.4771-1.2935 2.067 0.34119 0.29266 0.71017 0.45837 1.1565 0.45837 0.60819 0 1.0722-0.30526 1.5177-0.82423 0.44558-0.51897 0.84087-1.2448 1.2402-1.9864 0.39369-0.73113 0.79249-1.4754 1.2919-2.065-0.34076-0.29222-0.70903-0.45837-1.1555-0.45837zm3.1486 0c-0.44659 0-0.8151 0.16498-1.156 0.45734 0.49991 0.58981 0.90056 1.3344 1.2945 2.066 0.39937 0.74167 0.79259 1.4675 1.2382 1.9864 0.44559 0.51897 0.91163 0.82423 1.5198 0.82423 0.44583 0 0.81357-0.16687 1.1539-0.45888-0.49996-0.58986-0.89842-1.3348-1.2924-2.0665-0.39936-0.74168-0.79464-1.4675-1.2402-1.9864s-0.90955-0.82218-1.5177-0.82218zm8.9395 0c-0.60818 0-1.0722 0.30321-1.5177 0.82218-0.44558 0.51897-0.84087 1.2448-1.2402 1.9864-0.39412 0.73193-0.79327 1.4771-1.2935 2.067 0.34133 0.29266 0.71068 0.45837 1.157 0.45837 0.60818 0 1.0716-0.30526 1.5172-0.82423s0.84088-1.2448 1.2402-1.9864c0.39368-0.73113 0.79249-1.4754 1.2919-2.065-0.34076-0.29222-0.70851-0.45837-1.155-0.45837zm3.1481 0c-0.44611 0-0.81402 0.16455-1.1544 0.45631 0.50019 0.58994 0.89934 1.3351 1.2935 2.067 0.39936 0.74167 0.79258 1.4675 1.2382 1.9864 0.44559 0.51897 0.91111 0.82423 1.5193 0.82423 0.44646 0 0.81472-0.16713 1.1555-0.45992-0.49961-0.58969-0.90022-1.3342-1.294-2.0655-0.39936-0.74168-0.79259-1.4675-1.2382-1.9864s-0.91162-0.82218-1.5198-0.82218zm7.4672 0.77618c-0.0148 0.0167-0.0302 0.0288-0.045 0.046-0.44558 0.51897-0.84087 1.2448-1.2402 1.9864-0.394 0.73171-0.79297 1.4767-1.293 2.0665 0.3409 0.29295 0.70941 0.45888 1.156 0.45888 0.54574 0 0.97486-0.24738 1.3792-0.67282-0.0591-1.2951-0.0435-2.5916 0.0429-3.885z" fill="#2196f3"/>
 </g>
</svg>
