<svg viewBox="0 0 930 600" width="275" height="275" overflow="hidden" style="font-family: 'Helvetica Neue', Helvetica, Arial, sans-serif;" xmlns="http://www.w3.org/2000/svg" version="1.1"><g transform="translate(60,20)"><defs><filter id="dropshadow"><feGaussianBlur in="SourceAlpha" stdDeviation="1"></feGaussianBlur><feMerge><feMergeNode></feMergeNode><feMergeNode in="SourceGraphic"></feMergeNode></feMerge></filter></defs><g class="x axis" transform="translate(0,410)"><g class="tick major _58731" transform="translate(34.58333206176758,0)" style="opacity: 1;"><line y2="6" style="fill: none; stroke: #000000; shape-rendering: crispedges;" x2="0"></line><text y="9" dy=".71em" style="text-anchor: end; font-weight: normal;" transform="translate(-5,0)rotate(-44.99999999999999)">Acinetobacter baumannii ATCC 17978</text></g><g class="tick major _58765" transform="translate(449.5833435058594,0)" style="opacity: 1;"><line y2="6" style="fill: none; stroke: #000000; shape-rendering: crispedges;" x2="0"></line><text y="9" dy=".71em" style="text-anchor: end; font-weight: normal;" transform="translate(-5,0)rotate(-44.99999999999999)">Acinetobacter baumannii ACICU</text></g><g class="tick major _61601" transform="translate(795.4166870117188,0)" style="opacity: 1;"><line y2="6" style="fill: none; stroke: #000000; shape-rendering: crispedges;" x2="0"></line><text y="9" dy=".71em" style="text-anchor: end; font-weight: normal;" transform="translate(-5,0)rotate(-44.99999999999999)">Acinetobacter baumannii SDF</text></g><g class="tick major _59271" transform="translate(172.9166717529297,0)" style="opacity: 1;"><line y2="6" style="fill: none; stroke: #000000; shape-rendering: crispedges;" x2="0"></line><text y="9" dy=".71em" style="text-anchor: end; font-weight: normal;" transform="translate(-5,0)rotate(-44.99999999999999)">Acinetobacter baumannii AB307-0294</text></g><g class="tick major _59083" transform="translate(242.0833282470703,0)" style="opacity: 1;"><line y2="6" style="fill: none; stroke: #000000; shape-rendering: crispedges;" x2="0"></line><text y="9" dy=".71em" style="text-anchor: end; font-weight: normal;" transform="translate(-5,0)rotate(-44.99999999999999)">Acinetobacter baumannii AB0057</text></g><g class="tick major _61637" transform="translate(311.25,0)" style="opacity: 1;"><line y2="6" style="fill: none; stroke: #000000; shape-rendering: crispedges;" x2="0"></line><text y="9" dy=".71em" style="text-anchor: end; font-weight: normal;" transform="translate(-5,0)rotate(-44.99999999999999)">Acinetobacter baumannii AYE</text></g><g class="tick major _158677" transform="translate(380.4166564941406,0)" style="opacity: 1;"><line y2="6" style="fill: none; stroke: #000000; shape-rendering: crispedges;" x2="0"></line><text y="9" dy=".71em" style="text-anchor: end; font-weight: normal;" transform="translate(-5,0)rotate(-44.99999999999999)">Acinetobacter baumannii 1656-2</text></g><g class="tick major _158679" transform="translate(518.75,0)" style="opacity: 1;"><line y2="6" style="fill: none; stroke: #000000; shape-rendering: crispedges;" x2="0"></line><text y="9" dy=".71em" style="text-anchor: end; font-weight: normal;" transform="translate(-5,0)rotate(-44.99999999999999)">Acinetobacter baumannii TCDC-AB0715</text></g><g class="tick major _158685" transform="translate(587.9166870117188,0)" style="opacity: 1;"><line y2="6" style="fill: none; stroke: #000000; shape-rendering: crispedges;" x2="0"></line><text y="9" dy=".71em" style="text-anchor: end; font-weight: normal;" transform="translate(-5,0)rotate(-44.99999999999999)">Acinetobacter baumannii MDR-ZJ06</text></g><g class="tick major _162739" transform="translate(726.25,0)" style="opacity: 1;"><line y2="6" style="fill: none; stroke: #000000; shape-rendering: crispedges;" x2="0"></line><text y="9" dy=".71em" style="text-anchor: end; font-weight: normal;" transform="translate(-5,0)rotate(-44.99999999999999)">Acinetobacter baumannii MDR-TJ</text></g><g class="tick major _176498" transform="translate(657.0833129882812,0)" style="opacity: 1;"><line y2="6" style="fill: none; stroke: #000000; shape-rendering: crispedges;" x2="0"></line><text y="9" dy=".71em" style="text-anchor: end; font-weight: normal;" transform="translate(-5,0)rotate(-44.99999999999999)">Acinetobacter baumannii TYTH-1</text></g><g class="tick major _190222" transform="translate(103.75,0)" style="opacity: 1;"><line y2="6" style="fill: none; stroke: #000000; shape-rendering: crispedges;" x2="0"></line><text y="9" dy=".71em" style="text-anchor: end; font-weight: normal;" transform="translate(-5,0)rotate(-44.99999999999999)">Acinetobacter baumannii D1279779</text></g><path class="domain" d="M0,6V0H830V6" style="fill: none; stroke: #000000; shape-rendering: crispedges;"></path></g><g class="y axis"><g class="tick major _0" transform="translate(0,410)" style="opacity: 1;"><line x2="-6" y2="0" style="fill: none; stroke: #000000; shape-rendering: crispedges;"></line><text x="-9" y="0" dy=".32em" style="text-anchor: end; font-weight: normal;">0</text></g><g class="tick major _20000" transform="translate(0,349.14703369140625)" style="opacity: 1;"><line x2="-6" style="fill: none; stroke: #000000; shape-rendering: crispedges;" y2="0"></line><text x="-9" dy=".32em" style="text-anchor: end; font-weight: normal;" y="0">20,000</text></g><g class="tick major _40000" transform="translate(0,288.2940368652344)" style="opacity: 1;"><line x2="-6" style="fill: none; stroke: #000000; shape-rendering: crispedges;" y2="0"></line><text x="-9" dy=".32em" style="text-anchor: end; font-weight: normal;" y="0">40,000</text></g><g class="tick major _60000" transform="translate(0,227.44105529785156)" style="opacity: 1;"><line x2="-6" style="fill: none; stroke: #000000; shape-rendering: crispedges;" y2="0"></line><text x="-9" dy=".32em" style="text-anchor: end; font-weight: normal;" y="0">60,000</text></g><g class="tick major _80000" transform="translate(0,166.58807373046875)" style="opacity: 1;"><line x2="-6" style="fill: none; stroke: #000000; shape-rendering: crispedges;" y2="0"></line><text x="-9" dy=".32em" style="text-anchor: end; font-weight: normal;" y="0">80,000</text></g><g class="tick major _100000" transform="translate(0,105.73509979248047)" style="opacity: 1;"><line x2="-6" style="fill: none; stroke: #000000; shape-rendering: crispedges;" y2="0"></line><text x="-9" dy=".32em" style="text-anchor: end; font-weight: normal;" y="0">100,000</text></g><g class="tick major _120000" transform="translate(0,44.88211441040039)" style="opacity: 1;"><line x2="-6" style="fill: none; stroke: #000000; shape-rendering: crispedges;" y2="0"></line><text x="-9" dy=".32em" style="text-anchor: end; font-weight: normal;" y="0">120,000</text></g><path class="domain" d="M-6,0H0V410H-6" style="fill: none; stroke: #000000; shape-rendering: crispedges;"></path><text transform="rotate(-90)" y="6" dy=".71em" style="text-anchor: end;">Number of peptides</text></g><g class="graphData"><path class="line pan" style="stroke: #1f77b4; stroke-width: 2px; fill: none; visibility: visible;" d="M34.583333333333336,202.26009454475292L103.75,164.729018708581L172.91666666666669,133.99522081468785L242.08333333333334,115.78496634533326L311.25,100.53825203523536L380.4166666666667,70.82069891874642L449.5833333333333,60.995985187494L518.75,50.86092125475875L587.9166666666667,42.86483959302711L657.0833333333334,38.30086604181042L726.2500000000001,27.621167931963384L795.4166666666667,0" opacity="1"></path><path class="line core" style="stroke: #ff7f0e; stroke-width: 2px; fill: none; visibility: visible;" d="M34.583333333333336,202.26009454475292L103.75,253.59871169787237L172.91666666666669,269.3991881321846L242.08333333333334,272.61831081030937L311.25,274.4864973172741L380.4166666666667,279.5646785552612L449.5833333333333,280.7360984334068L518.75,281.91360360962074L587.9166666666667,283.7057238907318L657.0833333333334,287.68550882739277L726.2500000000001,288.26969744194844L795.4166666666667,321.28852476048417" opacity="1"></path><path class="line unicore" style="stroke: #2ca02c; stroke-width: 2px; fill: none; visibility: visible;" d="M34.583333333333336,360.33788246469413L103.75,388.5128125208718L172.91666666666669,393.9804528352294L242.08333333333334,394.604195887229L311.25,394.8932475454728L380.4166666666667,396.5180221297059L449.5833333333333,396.7036237207887L518.75,396.9379076964178L587.9166666666667,397.3669212102322L657.0833333333334,397.79897737308073L726.2500000000001,397.8841715460368L795.4166666666667,402.6094054960631" opacity="1"></path><path class="line unicore2" style="stroke: #98df8a; stroke-width: 2px; fill: none; visibility: hidden;"></path><circle class="dot genome _58731" r="5" fill="#d9d9d9" cx="34.583333333333336" opacity="1" cy="202.26009454475292" filter=""></circle><circle class="dot pan _58731" r="5" fill="#1f77b4" cx="34.583333333333336" opacity="1" cy="202.26009454475292" filter=""></circle><circle class="dot core _58731" r="5" fill="#ff7f0e" cx="34.583333333333336" cy="202.26009454475292" opacity="1" filter=""></circle><circle class="dot genome _58765" r="5" fill="#d9d9d9" cx="449.5833333333333" opacity="1" cy="196.99022641761474" filter=""></circle><circle class="dot genome _61601" r="5" fill="#d9d9d9" cx="795.4166666666667" opacity="1" cy="254.95269051806665" filter=""></circle><circle class="dot genome _59271" r="5" fill="#d9d9d9" cx="172.91666666666669" opacity="1" cy="212.7663616596537" filter=""></circle><circle class="dot genome _59083" r="5" fill="#d9d9d9" cx="242.08333333333334" opacity="1" cy="200.34322565324192" filter=""></circle><circle class="dot genome _61637" r="5" fill="#d9d9d9" cx="311.25" opacity="1" cy="197.85738139234587" filter=""></circle><circle class="dot genome _158677" r="5" fill="#d9d9d9" cx="380.4166666666667" opacity="1" cy="200.6383626095539" filter=""></circle><circle class="dot genome _158679" r="5" fill="#d9d9d9" cx="518.75" opacity="1" cy="190.89884305125753" filter=""></circle><circle class="dot genome _158685" r="5" fill="#d9d9d9" cx="587.9166666666667" opacity="1" cy="195.00337659831837" filter=""></circle><circle class="dot pan _58765" r="5" fill="#1f77b4" cx="449.5833333333333" opacity="1" cy="60.995985187494" filter=""></circle><circle class="dot pan _61601" r="5" fill="#1f77b4" cx="795.4166666666667" opacity="1" cy="0" filter=""></circle><circle class="dot pan _59271" r="5" fill="#1f77b4" cx="172.91666666666669" opacity="1" cy="133.99522081468785" filter=""></circle><circle class="dot pan _59083" r="5" fill="#1f77b4" cx="242.08333333333334" opacity="1" cy="115.78496634533326" filter=""></circle><circle class="dot pan _61637" r="5" fill="#1f77b4" cx="311.25" opacity="1" cy="100.53825203523536" filter=""></circle><circle class="dot pan _158677" r="5" fill="#1f77b4" cx="380.4166666666667" opacity="1" cy="70.82069891874642" filter=""></circle><circle class="dot pan _158679" r="5" fill="#1f77b4" cx="518.75" opacity="1" cy="50.86092125475875" filter=""></circle><circle class="dot pan _158685" r="5" fill="#1f77b4" cx="587.9166666666667" opacity="1" cy="42.86483959302711" filter=""></circle><circle class="dot core _58765" r="5" fill="#ff7f0e" cx="449.5833333333333" cy="280.7360984334068" opacity="1" filter=""></circle><circle class="dot core _61601" r="5" fill="#ff7f0e" cx="795.4166666666667" cy="321.28852476048417" opacity="1" filter=""></circle><circle class="dot core _59271" r="5" fill="#ff7f0e" cx="172.91666666666669" cy="269.3991881321846" opacity="1" filter=""></circle><circle class="dot core _59083" r="5" fill="#ff7f0e" cx="242.08333333333334" cy="272.61831081030937" opacity="1" filter=""></circle><circle class="dot core _61637" r="5" fill="#ff7f0e" cx="311.25" cy="274.4864973172741" opacity="1" filter=""></circle><circle class="dot core _158677" r="5" fill="#ff7f0e" cx="380.4166666666667" cy="279.5646785552612" opacity="1" filter=""></circle><circle class="dot core _158679" r="5" fill="#ff7f0e" cx="518.75" cy="281.91360360962074" opacity="1" filter=""></circle><circle class="dot core _158685" r="5" fill="#ff7f0e" cx="587.9166666666667" cy="283.7057238907318" opacity="1" filter=""></circle><circle class="dot genome _162739" r="5" fill="#d9d9d9" cx="726.2500000000001" opacity="1" cy="188.9850168087806" filter=""></circle><circle class="dot genome _176498" r="5" fill="#d9d9d9" cx="657.0833333333334" opacity="1" cy="204.17087813819566" filter=""></circle><circle class="dot genome _190222" r="5" fill="#d9d9d9" cx="103.75" opacity="1" cy="216.06763586170047" filter=""></circle><circle class="dot pan _162739" r="5" fill="#1f77b4" cx="726.2500000000001" opacity="1" cy="27.621167931963384" filter=""></circle><circle class="dot pan _176498" r="5" fill="#1f77b4" cx="657.0833333333334" opacity="1" cy="38.30086604181042" filter=""></circle><circle class="dot pan _190222" r="5" fill="#1f77b4" cx="103.75" opacity="1" cy="164.729018708581" filter=""></circle><circle class="dot core _162739" r="5" fill="#ff7f0e" cx="726.2500000000001" cy="288.26969744194844" opacity="1" filter=""></circle><circle class="dot core _176498" r="5" fill="#ff7f0e" cx="657.0833333333334" cy="287.68550882739277" opacity="1" filter=""></circle><circle class="dot core _190222" r="5" fill="#ff7f0e" cx="103.75" cy="253.59871169787237" opacity="1" filter=""></circle><circle class="dot unicore _58731" r="5" fill="#2ca02c" cx="34.583333333333336" cy="360.33788246469413" opacity="1" filter=""></circle><circle class="dot unicore _58765" r="5" fill="#2ca02c" cx="449.5833333333333" cy="396.7036237207887" opacity="1" filter=""></circle><circle class="dot unicore _61601" r="5" fill="#2ca02c" cx="795.4166666666667" cy="402.6094054960631" opacity="1" filter=""></circle><circle class="dot unicore _59271" r="5" fill="#2ca02c" cx="172.91666666666669" cy="393.9804528352294" opacity="1" filter=""></circle><circle class="dot unicore _59083" r="5" fill="#2ca02c" cx="242.08333333333334" cy="394.604195887229" opacity="1" filter=""></circle><circle class="dot unicore _61637" r="5" fill="#2ca02c" cx="311.25" cy="394.8932475454728" opacity="1" filter=""></circle><circle class="dot unicore _158677" r="5" fill="#2ca02c" cx="380.4166666666667" cy="396.5180221297059" opacity="1" filter=""></circle><circle class="dot unicore _158679" r="5" fill="#2ca02c" cx="518.75" cy="396.9379076964178" opacity="1" filter=""></circle><circle class="dot unicore _158685" r="5" fill="#2ca02c" cx="587.9166666666667" cy="397.3669212102322" opacity="1" filter=""></circle><circle class="dot unicore _162739" r="5" fill="#2ca02c" cx="726.2500000000001" cy="397.8841715460368" opacity="1" filter=""></circle><circle class="dot unicore _176498" r="5" fill="#2ca02c" cx="657.0833333333334" cy="397.79897737308073" opacity="1" filter=""></circle><circle class="dot unicore _190222" r="5" fill="#2ca02c" cx="103.75" cy="388.5128125208718" opacity="1" filter=""></circle><polygon class="bar" style="fill-opacity: 0; cursor: url(http://unipept.ugent.be/openhand.cur) 7 5, move;" points="11.527777777777779, 425 11.527777777777779, 0 57.63888888888889, 0 57.63888888888889, 425 -97.36111111111111, 580 -143.47222222222223, 580 "></polygon><polygon class="bar" style="fill-opacity: 0; cursor: url(http://unipept.ugent.be/openhand.cur) 7 5, move;" points="426.52777777777777, 425 426.52777777777777, 0 472.63888888888886, 0 472.63888888888886, 425 317.63888888888886, 580 271.52777777777777, 580 "></polygon><polygon class="bar" style="fill-opacity: 0; cursor: url(http://unipept.ugent.be/openhand.cur) 7 5, move;" points="772.3611111111111, 425 772.3611111111111, 0 818.4722222222222, 0 818.4722222222222, 425 663.4722222222222, 580 617.3611111111111, 580 "></polygon><polygon class="bar" style="fill-opacity: 0; cursor: url(http://unipept.ugent.be/openhand.cur) 7 5, move;" points="149.86111111111114, 425 149.86111111111114, 0 195.97222222222223, 0 195.97222222222223, 425 40.97222222222223, 580 -5.138888888888857, 580 "></polygon><polygon class="bar" style="fill-opacity: 0; cursor: url(http://unipept.ugent.be/openhand.cur) 7 5, move;" points="219.02777777777777, 425 219.02777777777777, 0 265.1388888888889, 0 265.1388888888889, 425 110.13888888888891, 580 64.02777777777777, 580 "></polygon><polygon class="bar" style="fill-opacity: 0; cursor: url(http://unipept.ugent.be/openhand.cur) 7 5, move;" points="288.19444444444446, 425 288.19444444444446, 0 334.30555555555554, 0 334.30555555555554, 425 179.30555555555554, 580 133.19444444444446, 580 "></polygon><polygon class="bar" style="fill-opacity: 0; cursor: url(http://unipept.ugent.be/openhand.cur) 7 5, move;" points="357.36111111111114, 425 357.36111111111114, 0 403.47222222222223, 0 403.47222222222223, 425 248.47222222222223, 580 202.36111111111114, 580 "></polygon><polygon class="bar" style="fill-opacity: 0; cursor: url(http://unipept.ugent.be/openhand.cur) 7 5, move;" points="495.69444444444446, 425 495.69444444444446, 0 541.8055555555555, 0 541.8055555555555, 425 386.80555555555554, 580 340.69444444444446, 580 " data-original-title="" title=""></polygon><polygon class="bar" style="fill-opacity: 0; cursor: url(http://unipept.ugent.be/openhand.cur) 7 5, move;" points="564.8611111111112, 425 564.8611111111112, 0 610.9722222222223, 0 610.9722222222223, 425 455.9722222222223, 580 409.8611111111112, 580 "></polygon><polygon class="bar" style="fill-opacity: 0; cursor: url(http://unipept.ugent.be/openhand.cur) 7 5, move;" points="703.1944444444446, 425 703.1944444444446, 0 749.3055555555557, 0 749.3055555555557, 425 594.3055555555557, 580 548.1944444444446, 580 "></polygon><polygon class="bar" style="fill-opacity: 0; cursor: url(http://unipept.ugent.be/openhand.cur) 7 5, move;" points="634.0277777777778, 425 634.0277777777778, 0 680.1388888888889, 0 680.1388888888889, 425 525.1388888888889, 580 479.0277777777778, 580 "></polygon><polygon class="bar" style="fill-opacity: 0; cursor: url(http://unipept.ugent.be/openhand.cur) 7 5, move;" points="80.69444444444446, 425 80.69444444444446, 0 126.80555555555554, 0 126.80555555555554, 425 -28.194444444444457, 580 -74.30555555555554, 580 "></polygon></g><g class="legend" transform="translate(0,0)"><rect x="30" width="8" height="8" style="shape-rendering: crispedges; fill: #d9d9d9;"></rect><text x="40" y="8" style="text-anchor: start;">genome size</text></g><g class="legend" transform="translate(0,20)"><rect x="30" width="8" height="8" style="shape-rendering: crispedges; fill: #1f77b4;"></rect><text x="40" y="8" style="text-anchor: start;">pan peptidome</text></g><g class="legend" transform="translate(0,40)"><rect x="30" width="8" height="8" style="shape-rendering: crispedges; fill: #ff7f0e;"></rect><text x="40" y="8" style="text-anchor: start;">core peptidome</text></g><g class="legend" transform="translate(0,60)"><rect x="30" width="8" height="8" style="shape-rendering: crispedges; fill: #2ca02c;"></rect><text x="40" y="8" style="text-anchor: start;">unique peptides</text></g><line class="axisline genome" stroke="#d9d9d9" stroke-width="2" x1="6" x2="-6" shape-rendering="crispEdges" style="visibility: hidden;" y1="196.99022641761474" y2="196.99022641761474"></line><line class="axisline pan" stroke="#1f77b4" stroke-width="2" x1="6" x2="-6" shape-rendering="crispEdges" style="visibility: hidden;" y1="60.995985187494" y2="60.995985187494"></line><line class="axisline core" stroke="#ff7f0e" stroke-width="2" x1="6" x2="-6" shape-rendering="crispEdges" style="visibility: hidden;" y1="280.7360984334068" y2="280.7360984334068"></line><line class="axisline unicore" stroke="#2ca02c" stroke-width="2" x1="6" x2="-6" shape-rendering="crispEdges" style="visibility: hidden;" y1="396.7036237207887" y2="396.7036237207887"></line><line class="axisline unicore2" stroke="#98df8a" stroke-width="2" x1="6" x2="-6" shape-rendering="crispEdges" style="visibility: hidden;"></line><g id="trash" fill="#cccccc" transform=""><g transform="translate(960 182)"><circle r="30" stroke="#cccccc" stroke-width="3" fill="white" cx="-40" cy="23"></circle><rect height="410" width="32" y="-182" x="-40" style="fill-opacity: 0;"></rect><g transform="translate(-430 -597)" style="pointer-events: none;"><path d="M408.302,604.218h-7.95c0.002-0.055,0.009-0.109,0.009-0.166v-1.6c0-2.91-2.384-5.293-5.294-5.293h-8.824    c-2.912,0-5.294,2.383-5.294,5.293v1.6c0,0.057,0.007,0.111,0.009,0.166h-7.95c-1.456,0-2.646,1.191-2.646,2.646v2.646    c0,1.457,1.19,2.648,2.646,2.648h0.883v-1.766h33.529v1.766h0.883c1.455,0,2.646-1.191,2.646-2.648v-2.646    C410.948,605.409,409.757,604.218,408.302,604.218z M385.333,601.571h10.588v2.646h-10.588V601.571z"></path><path d="M375.654,613.042v26.469c0,1.457,1.19,2.648,2.647,2.648h24.705c1.456,0,2.647-1.191,2.647-2.648v-26.469    H375.654z M384.478,636.423c0,0.486-0.397,0.883-0.882,0.883h-1.765c-0.486,0-0.883-0.396-0.883-0.883v-17.646    c0-0.484,0.396-0.883,0.883-0.883h1.765c0.484,0,0.882,0.398,0.882,0.883V636.423z M392.419,636.423    c0,0.486-0.398,0.883-0.882,0.883h-1.766c-0.485,0-0.882-0.396-0.882-0.883v-17.646c0-0.484,0.396-0.883,0.882-0.883h1.766    c0.483,0,0.882,0.398,0.882,0.883V636.423z M400.36,636.423c0,0.486-0.398,0.883-0.883,0.883h-1.765    c-0.485,0-0.882-0.396-0.882-0.883v-17.646c0-0.484,0.396-0.883,0.882-0.883h1.765c0.484,0,0.883,0.398,0.883,0.883V636.423z"></path></g></g></g></g></svg>