<svg xmlns="http://www.w3.org/2000/svg" viewBox="0 0 600 600" width="275" height="275" overflow="hidden" style="font-family: 'Helvetica Neue', Helvetica, Arial, sans-serif;" version="1.1"><g transform="translate(60,20)"><defs><filter id="dropshadow"><feGaussianBlur in="SourceAlpha" stdDeviation="1"/><feMerge><feMergeNode/><feMergeNode in="SourceGraphic"/></feMerge></filter></defs><g class="x axis" transform="translate(0,410)"><g class="tick major _61601" transform="translate(22.29166603088379,0)" style="opacity: 1;"><line y2="6" style="fill: none; stroke: #000000; shape-rendering: crispedges;" x2="0"/><text y="9" dy=".71em" style="text-anchor: end; font-weight: normal;" transform="translate(-5,0)rotate(-44.99999999999999)">Acinetobacter baumannii SDF</text></g><g class="tick major _58765" transform="translate(66.875,0)" style="opacity: 1;"><line y2="6" style="fill: none; stroke: #000000; shape-rendering: crispedges;" x2="0"/><text y="9" dy=".71em" style="text-anchor: end; font-weight: normal;" transform="translate(-5,0)rotate(-44.99999999999999)">Acinetobacter baumannii ACICU</text></g><g class="tick major _59271" transform="translate(111.45833333333334,0)" style="opacity: 1;"><line y2="6" style="fill: none; stroke: #000000; shape-rendering: crispedges;" x2="0"/><text y="9" dy=".71em" style="text-anchor: end;" transform="translate(-5,0)rotate(-44.99999999999999)">Acinetobacter baumannii AB307-0294</text></g><g class="tick major _58731" transform="translate(156.04166666666666,0)" style="opacity: 1;"><line y2="6" style="fill: none; stroke: #000000; shape-rendering: crispedges;" x2="0"/><text y="9" dy=".71em" style="text-anchor: end;" transform="translate(-5,0)rotate(-44.99999999999999)">Acinetobacter baumannii ATCC 17978</text></g><g class="tick major _61637" transform="translate(200.625,0)" style="opacity: 1;"><line y2="6" style="fill: none; stroke: #000000; shape-rendering: crispedges;" x2="0"/><text y="9" dy=".71em" style="text-anchor: end; font-weight: normal;" transform="translate(-5,0)rotate(-44.99999999999999)">Acinetobacter baumannii AYE</text></g><g class="tick major _158677" transform="translate(245.20833333333334,0)" style="opacity: 1;"><line y2="6" style="fill: none; stroke: #000000; shape-rendering: crispedges;" x2="0"/><text y="9" dy=".71em" style="text-anchor: end; font-weight: normal;" transform="translate(-5,0)rotate(-44.99999999999999)">Acinetobacter baumannii 1656-2</text></g><g class="tick major _158679" transform="translate(289.7916666666667,0)" style="opacity: 1;"><line y2="6" style="fill: none; stroke: #000000; shape-rendering: crispedges;" x2="0"/><text y="9" dy=".71em" style="text-anchor: end; font-weight: normal;" transform="translate(-5,0)rotate(-44.99999999999999)">Acinetobacter baumannii TCDC-AB0715</text></g><g class="tick major _59083" transform="translate(334.37500000000006,0)" style="opacity: 1;"><line y2="6" style="fill: none; stroke: #000000; shape-rendering: crispedges;" x2="0"/><text y="9" dy=".71em" style="text-anchor: end; font-weight: normal;" transform="translate(-5,0)rotate(-44.99999999999999)">Acinetobacter baumannii AB0057</text></g><g class="tick major _158685" transform="translate(378.95833333333337,0)" style="opacity: 1;"><line y2="6" style="fill: none; stroke: #000000; shape-rendering: crispedges;" x2="0"/><text y="9" dy=".71em" style="text-anchor: end; font-weight: normal;" transform="translate(-5,0)rotate(-44.99999999999999)">Acinetobacter baumannii MDR-ZJ06</text></g><g class="tick major _176498" transform="translate(423.5416666666667,0)" style="opacity: 1;"><line y2="6" style="fill: none; stroke: #000000; shape-rendering: crispedges;" x2="0"/><text y="9" dy=".71em" style="text-anchor: end; font-weight: normal;" transform="translate(-5,0)rotate(-44.99999999999999)">Acinetobacter baumannii TYTH-1</text></g><g class="tick major _190222" transform="translate(468.12500000000006,0)" style="opacity: 1;"><line y2="6" style="fill: none; stroke: #000000; shape-rendering: crispedges;" x2="0"/><text y="9" dy=".71em" style="text-anchor: end; font-weight: normal;" transform="translate(-5,0)rotate(-44.99999999999999)">Acinetobacter baumannii D1279779</text></g><g class="tick major _162739" transform="translate(512.7083333333334,0)" style="opacity: 1;"><line y2="6" style="fill: none; stroke: #000000; shape-rendering: crispedges;" x2="0"/><text y="9" dy=".71em" style="text-anchor: end; font-weight: normal;" transform="translate(-5,0)rotate(-44.99999999999999)">Acinetobacter baumannii MDR-TJ</text></g><path class="domain" d="M0,6V0H535V6" style="fill: none; stroke: #000000; stroke-width: 2px;shape-rendering: crispedges;"/></g><g class="y axis" style="
    font-size: 10pt;
"><g class="tick major _0" transform="translate(0,410)" style="opacity: 1;"><line x2="-6" y2="0" style="fill: none; stroke: #000000; shape-rendering: crispedges;"/><text x="-9" y="0" dy=".32em" style="text-anchor: end;">0</text></g><g class="tick major _20000" transform="translate(0,349.14703369140625)" style="opacity: 1;"><line x2="-6" style="fill: none; stroke: #000000; shape-rendering: crispedges;" y2="0"/><text x="-9" dy=".32em" style="text-anchor: end;" y="0">20,000</text></g><g class="tick major _40000" transform="translate(0,288.2940368652344)" style="opacity: 1;"><line x2="-6" style="fill: none; stroke: #000000; shape-rendering: crispedges;" y2="0"/><text x="-9" dy=".32em" style="text-anchor: end;" y="0">40,000</text></g><g class="tick major _60000" transform="translate(0,227.44105529785156)" style="opacity: 1;"><line x2="-6" style="fill: none; stroke: #000000; shape-rendering: crispedges;" y2="0"/><text x="-9" dy=".32em" style="text-anchor: end;" y="0">60,000</text></g><g class="tick major _80000" transform="translate(0,166.58807373046875)" style="opacity: 1;"><line x2="-6" style="fill: none; stroke: #000000; shape-rendering: crispedges;" y2="0"/><text x="-9" dy=".32em" style="text-anchor: end;" y="0">80,000</text></g><g class="tick major _100000" transform="translate(0,105.73509979248047)" style="opacity: 1;"><line x2="-6" style="fill: none; stroke: #000000; shape-rendering: crispedges;" y2="0"/><text x="-9" dy=".32em" style="text-anchor: end;" y="0">100,000</text></g><g class="tick major _120000" transform="translate(0,44.88211441040039)" style="opacity: 1;"><line x2="-6" style="fill: none; stroke: #000000; shape-rendering: crispedges;" y2="0"/><text x="-9" dy=".32em" style="text-anchor: end;" y="0">120,000</text></g><path class="domain" d="M-6,0H0V410H-6" style="fill: none; stroke: #000000; shape-rendering: crispedges;"/><text transform="rotate(-90)" y="6" dy=".71em" style="text-anchor: end;">Number of peptides</text></g><g class="graphData"><path class="line pan" style="stroke: #1565C0; stroke-width: 2px; fill: none; visibility: visible;" d="M22.291666666666668,254.95269051806665L66.875,156.13353518712287L111.45833333333334,125.4940594132882L156.04166666666666,85.43454222974225L200.625,66.9595772944171L245.20833333333334,56.690636804179576L289.7916666666667,46.306075650644516L334.37500000000006,39.92564062604356L378.95833333333337,32.340316583921435L423.5416666666667,27.776343032704744L468.12500000000006,10.643186321437327L512.7083333333334,0" opacity="1"/><path class="line core" style="stroke: #FF8F00; stroke-width: 2px; fill: none; visibility: visible;" d="M22.291666666666668,254.95269051806665L66.875,295.80938174855845L111.45833333333334,302.6431714792469L156.04166666666666,310.143301348413L200.625,310.5631869151249L245.20833333333334,311.4333845388902L289.7916666666667,312.25489977810923L334.37500000000006,313.98008178046916L378.95833333333337,314.97198536560023L423.5416666666667,317.6921136021254L468.12500000000006,320.9660039628648L512.7083333333334,321.28852476048417" opacity="1"/><path class="line unicore" style="stroke: #2E7D32; stroke-width: 2px; fill: none; visibility: visible;" d="M22.291666666666668,372.06729449132104L66.875,397.1265519365348L111.45833333333334,399.1407855971384L156.04166666666666,400.7473042871667L200.625,400.83249846012274L245.20833333333334,400.9389911763178L289.7916666666667,401.0606971376836L334.37500000000006,401.27063992103956L378.95833333333337,401.45624151212235L423.5416666666667,401.7544211174685L468.12500000000006,402.5881069528241L512.7083333333334,402.6094054960631" opacity="1"/><path class="line unicore2" style="stroke: #98df8a; stroke-width: 2px; fill: none; visibility: hidden;"/><circle class="dot genome _61601" r="5" fill="#CFD8DC" cx="22.291666666666668" opacity="1" cy="254.95269051806665" filter=""/><circle class="dot pan _61601" r="5" fill="#1565C0" cx="22.291666666666668" opacity="1" cy="254.95269051806665" filter=""/><circle class="dot core _61601" r="5" fill="#FF8F00" cx="22.291666666666668" cy="254.95269051806665" opacity="1" filter=""/><circle class="dot genome _58765" r="5" fill="#CFD8DC" cx="66.875" opacity="1" cy="196.99022641761474" filter=""/><circle class="dot genome _59271" r="5" fill="#CFD8DC" cx="111.45833333333334" opacity="1" cy="212.7663616596537"/><circle class="dot genome _58731" r="5" fill="#CFD8DC" cx="156.04166666666666" opacity="1" cy="202.26009454475292"/><circle class="dot genome _61637" r="5" fill="#CFD8DC" cx="200.625" opacity="1" cy="197.85738139234587" filter=""/><circle class="dot genome _158677" r="5" fill="#CFD8DC" cx="245.20833333333334" opacity="1" cy="200.6383626095539" filter=""/><circle class="dot genome _158679" r="5" fill="#CFD8DC" cx="289.7916666666667" opacity="1" cy="190.89884305125753" filter=""/><circle class="dot genome _59083" r="5" fill="#CFD8DC" cx="334.37500000000006" opacity="1" cy="200.34322565324192" filter=""/><circle class="dot genome _158685" r="5" fill="#CFD8DC" cx="378.95833333333337" opacity="1" cy="195.00337659831837" filter=""/><circle class="dot genome _176498" r="5" fill="#CFD8DC" cx="423.5416666666667" opacity="1" cy="204.17087813819566" filter=""/><circle class="dot genome _190222" r="5" fill="#CFD8DC" cx="468.12500000000006" opacity="1" cy="216.06763586170047" filter=""/><circle class="dot genome _162739" r="5" fill="#CFD8DC" cx="512.7083333333334" opacity="1" cy="188.9850168087806" filter=""/><circle class="dot pan _58765" r="5" fill="#1565C0" cx="66.875" opacity="1" cy="156.13353518712287" filter=""/><circle class="dot pan _59271" r="5" fill="#1565C0" cx="111.45833333333334" opacity="1" cy="125.4940594132882"/><circle class="dot pan _58731" r="5" fill="#1565C0" cx="156.04166666666666" opacity="1" cy="85.43454222974225"/><circle class="dot pan _61637" r="5" fill="#1565C0" cx="200.625" opacity="1" cy="66.9595772944171" filter=""/><circle class="dot pan _158677" r="5" fill="#1565C0" cx="245.20833333333334" opacity="1" cy="56.690636804179576" filter=""/><circle class="dot pan _158679" r="5" fill="#1565C0" cx="289.7916666666667" opacity="1" cy="46.306075650644516" filter=""/><circle class="dot pan _59083" r="5" fill="#1565C0" cx="334.37500000000006" opacity="1" cy="39.92564062604356" filter=""/><circle class="dot pan _158685" r="5" fill="#1565C0" cx="378.95833333333337" opacity="1" cy="32.340316583921435" filter=""/><circle class="dot pan _176498" r="5" fill="#1565C0" cx="423.5416666666667" opacity="1" cy="27.776343032704744" filter=""/><circle class="dot pan _190222" r="5" fill="#1565C0" cx="468.12500000000006" opacity="1" cy="10.643186321437327" filter=""/><circle class="dot pan _162739" r="5" fill="#1565C0" cx="512.7083333333334" opacity="1" cy="0" filter=""/><circle class="dot core _58765" r="5" fill="#FF8F00" cx="66.875" cy="295.80938174855845" opacity="1" filter=""/><circle class="dot core _59271" r="5" fill="#FF8F00" cx="111.45833333333334" cy="302.6431714792469" opacity="1"/><circle class="dot core _58731" r="5" fill="#FF8F00" cx="156.04166666666666" cy="310.143301348413" opacity="1"/><circle class="dot core _61637" r="5" fill="#FF8F00" cx="200.625" cy="310.5631869151249" opacity="1" filter=""/><circle class="dot core _158677" r="5" fill="#FF8F00" cx="245.20833333333334" cy="311.4333845388902" opacity="1" filter=""/><circle class="dot core _158679" r="5" fill="#FF8F00" cx="289.7916666666667" cy="312.25489977810923" opacity="1" filter=""/><circle class="dot core _59083" r="5" fill="#FF8F00" cx="334.37500000000006" cy="313.98008178046916" opacity="1" filter=""/><circle class="dot core _158685" r="5" fill="#FF8F00" cx="378.95833333333337" cy="314.97198536560023" opacity="1" filter=""/><circle class="dot core _176498" r="5" fill="#FF8F00" cx="423.5416666666667" cy="317.6921136021254" opacity="1" filter=""/><circle class="dot core _190222" r="5" fill="#FF8F00" cx="468.12500000000006" cy="320.9660039628648" opacity="1" filter=""/><circle class="dot core _162739" r="5" fill="#FF8F00" cx="512.7083333333334" cy="321.28852476048417" opacity="1" filter=""/><circle class="dot unicore _61601" r="5" fill="#2E7D32" cx="22.29166666666663" cy="372.06729449132104" opacity="1" filter=""/><circle class="dot unicore _58765" r="5" fill="#2E7D32" cx="66.875" cy="397.1265519365348" opacity="1" filter=""/><circle class="dot unicore _59271" r="5" fill="#2E7D32" cx="111.45833333333337" cy="399.1407855971384" opacity="1"/><circle class="dot unicore _58731" r="5" fill="#2E7D32" cx="156.04166666666663" cy="400.7473042871667" opacity="1"/><circle class="dot unicore _61637" r="5" fill="#2E7D32" cx="200.625" cy="400.83249846012274" opacity="1" filter=""/><circle class="dot unicore _158677" r="5" fill="#2E7D32" cx="245.20833333333337" cy="400.9389911763178" opacity="1" filter=""/><circle class="dot unicore _158679" r="5" fill="#2E7D32" cx="289.7916666666667" cy="401.0606971376836" opacity="1" filter=""/><circle class="dot unicore _59083" r="5" fill="#2E7D32" cx="334.37500000000006" cy="401.27063992103956" opacity="1" filter=""/><circle class="dot unicore _158685" r="5" fill="#2E7D32" cx="378.95833333333337" cy="401.45624151212235" opacity="1" filter=""/><circle class="dot unicore _176498" r="5" fill="#2E7D32" cx="423.5416666666667" cy="401.7544211174685" opacity="1" filter=""/><circle class="dot unicore _190222" r="5" fill="#2E7D32" cx="468.12500000000006" cy="402.5881069528241" opacity="1" filter=""/><circle class="dot unicore _162739" r="5" fill="#2E7D32" cx="512.7083333333334" cy="402.6094054960631" opacity="1" filter=""/></g><g class="legend" transform="translate(0,0)"><rect x="30" width="8" height="8" style="shape-rendering: crispedges; fill: #CFD8DC;"/><text x="40" y="8" style="text-anchor: start;">genome peptidome</text></g><g class="legend" transform="translate(0,20)"><rect x="30" width="8" height="8" style="shape-rendering: crispedges; fill: #1565C0;"/><text x="40" y="8" style="text-anchor: start;">pan peptidome</text></g><g class="legend" transform="translate(0,40)"><rect x="30" width="8" height="8" style="shape-rendering: crispedges; fill: #FF8F00;"/><text x="40" y="8" style="text-anchor: start;">core peptidome</text></g><g class="legend" transform="translate(0,60)"><rect x="30" width="8" height="8" style="shape-rendering: crispedges; fill: #2E7D32;"/><text x="40" y="8" style="text-anchor: start;">unique peptidome</text></g></g></svg>
