<?xml version="1.0" encoding="UTF-8" standalone="no"?>
<!DOCTYPE svg PUBLIC "-//W3C//DTD SVG 1.1//EN" "http://www.w3.org/Graphics/SVG/1.1/DTD/svg11.dtd">
<svg width="100%" height="100%" viewBox="0 0 654 565" version="1.1" xmlns="http://www.w3.org/2000/svg" xmlns:xlink="http://www.w3.org/1999/xlink" xml:space="preserve" xmlns:serif="http://www.serif.com/" style="fill-rule:evenodd;clip-rule:evenodd;stroke-linejoin:round;stroke-miterlimit:2;">
    <g transform="matrix(1,0,0,1,-51,0)">
        <path d="M564,187L564,202L606,202L613,193L604,187L564,187Z" style="fill:rgb(72,118,209);"/>
    </g>
    <g transform="matrix(1,0,0,1,-51,0)">
        <path d="M468,67L468,92C467.292,98.625 463.615,102.282 456,102L413,102L413,115L459,115C474.381,114.804 482.245,106.678 482,90L482,69L468,67Z" style="fill:rgb(72,118,209);"/>
    </g>
    <g transform="matrix(1,0,0,1,-51,0)">
        <path d="M605,217L584,238L599,246L617,226L605,217Z" style="fill:rgb(72,118,209);"/>
    </g>
    <g transform="matrix(1,0,0,1,-51,0)">
        <path d="M490,168L490,191L504,199L504,169L490,168Z" style="fill:rgb(72,118,209);"/>
    </g>
    <g transform="matrix(1,0,0,1,-51,0)">
        <path d="M530,141L564.522,141L566.522,155L525,155L530,141Z" style="fill:rgb(72,118,209);"/>
    </g>
    <g transform="matrix(1,0,0,1,-51,0)">
        <path d="M426,264L425,273L435,277L439,268L426,264Z" style="fill:rgb(72,118,209);"/>
    </g>
    <g transform="matrix(1,0,0,1,-51,0)">
        <path d="M529,92L513,112L523,121L541,101L529,92Z" style="fill:rgb(72,118,209);"/>
    </g>
    <g transform="matrix(1,0,0,1,-51,0)">
        <path d="M505,52L530,66L525,79L496,64L505,52Z" style="fill:rgb(72,118,209);"/>
    </g>
    <g transform="matrix(1.07143,0,0,1,-86,0)">
        <path d="M490,281L490,343L504,343L504,285L490,281Z" style="fill:rgb(72,118,209);"/>
    </g>
    <g transform="matrix(1,0,0,1,-51,0)">
        <path d="M439,299L482.006,345L474,355L427,304L439,299Z" style="fill:rgb(72,118,209);"/>
    </g>
    <g transform="matrix(1,0,0,1,-51,0)">
        <path d="M537,302L537,296L552,300.5L549,305.5L537,302Z" style="fill:rgb(32,207,177);"/>
    </g>
    <g transform="matrix(1,0,0,1,-51,0)">
        <path d="M555,325L581,372.5L573,385L544.5,332L555,325Z" style="fill:rgb(72,118,209);"/>
    </g>
    <g transform="matrix(1,0,0,1,-51,0)">
        <path d="M600.5,316L593.5,366L604,368L613,319L600.5,316Z" style="fill:rgb(72,118,209);"/>
    </g>
    <g transform="matrix(1,0,0,1,-51,0)">
        <path d="M525,395L549,427L538,434.5L514,402L525,395Z" style="fill:rgb(72,118,209);"/>
    </g>
    <g transform="matrix(1,0,0,1,-51,0)">
        <path d="M413,369L427,369C438.577,369.582 446.761,378.745 447.503,390.5L447.503,419L462,419L462,395C462.655,370.973 448.82,356.173 427,354L413,354L413,369Z" style="fill:rgb(72,118,209);"/>
    </g>
    <g transform="matrix(1.475,0,0,1.59459,-166.975,78.7297)">
        <ellipse cx="481" cy="42.5" rx="20" ry="18.5" style="fill:rgb(72,118,209);"/>
    </g>
    <g transform="matrix(1.3,0,0,1.40541,-79.3,328.77)">
        <ellipse cx="481" cy="42.5" rx="20" ry="18.5" style="fill:rgb(72,118,209);"/>
    </g>
    <g transform="matrix(1.5,0,0,1.62162,-215.5,385.581)">
        <ellipse cx="481" cy="42.5" rx="20" ry="18.5" style="fill:rgb(72,118,209);"/>
    </g>
    <g transform="matrix(1.25,0,0,1.35135,-102.25,21.5676)">
        <ellipse cx="481" cy="42.5" rx="20" ry="18.5" style="fill:rgb(72,118,209);"/>
    </g>
    <g transform="matrix(1.375,0,0,1.48649,-232.875,-20.6757)">
        <ellipse cx="481" cy="42.5" rx="20" ry="18.5" style="fill:rgb(32,207,177);"/>
    </g>
    <g transform="matrix(1.55,0,0,1.67568,-297.55,67.7838)">
        <ellipse cx="481" cy="42.5" rx="20" ry="18.5" style="fill:rgb(32,207,177);"/>
    </g>
    <g transform="matrix(0.95,0,0,1.02703,42.05,151.351)">
        <ellipse cx="481" cy="42.5" rx="20" ry="18.5" style="fill:rgb(32,207,177);"/>
    </g>
    <g transform="matrix(0.875,0,0,0.945946,-46.875,247.797)">
        <ellipse cx="481" cy="42.5" rx="20" ry="18.5" style="fill:rgb(32,207,177);"/>
    </g>
    <g transform="matrix(1.7,0,0,1.83784,-366.7,294.392)">
        <ellipse cx="481" cy="42.5" rx="20" ry="18.5" style="fill:rgb(32,207,177);"/>
    </g>
    <g transform="matrix(0.875,0,0,0.945946,29.125,436.297)">
        <ellipse cx="481" cy="42.5" rx="20" ry="18.5" style="fill:rgb(32,207,177);"/>
    </g>
    <g transform="matrix(1,0,0,1.08108,-74,388.554)">
        <ellipse cx="481" cy="42.5" rx="20" ry="18.5" style="fill:rgb(32,207,177);"/>
    </g>
    <g transform="matrix(0.875,0,0,0.945946,67.125,277.797)">
        <ellipse cx="481" cy="42.5" rx="20" ry="18.5" style="fill:rgb(32,207,177);"/>
    </g>
    <g transform="matrix(1.05,0,0,1.13514,67.45,159.757)">
        <ellipse cx="481" cy="42.5" rx="20" ry="18.5" style="fill:rgb(32,207,177);"/>
    </g>
    <g transform="matrix(1,0,0,1,-51,0)">
        <path d="M413,212L617,306L614,321L413,260L413,212Z" style="fill:rgb(32,207,177);"/>
    </g>
    <g transform="matrix(-1,0,0,1,705,0)">
        <path d="M564,187L564,202L606,202L613,193L604,187L564,187Z" style="fill:rgb(72,118,209);"/>
    </g>
    <g transform="matrix(-1,0,0,1,705,0)">
        <path d="M468,67L468,92C467.292,98.625 463.615,102.282 456,102L413,102L413,115L459,115C474.381,114.804 482.245,106.678 482,90L482,69L468,67Z" style="fill:rgb(72,118,209);"/>
    </g>
    <g transform="matrix(-1,0,0,1,705,0)">
        <path d="M605,217L584,238L599,246L617,226L605,217Z" style="fill:rgb(72,118,209);"/>
    </g>
    <g transform="matrix(-1,0,0,1,705,0)">
        <path d="M490,168L490,191L504,199L504,169L490,168Z" style="fill:rgb(72,118,209);"/>
    </g>
    <g transform="matrix(-1,0,0,1,705,0)">
        <path d="M530,141L564.522,141L566.522,155L525,155L530,141Z" style="fill:rgb(72,118,209);"/>
    </g>
    <g transform="matrix(-1,0,0,1,705,0)">
        <path d="M426,264L425,273L435,277L439,268L426,264Z" style="fill:rgb(72,118,209);"/>
    </g>
    <g transform="matrix(-1,0,0,1,705,0)">
        <path d="M529,92L513,112L523,121L541,101L529,92Z" style="fill:rgb(72,118,209);"/>
    </g>
    <g transform="matrix(-1,0,0,1,705,0)">
        <path d="M505,52L530,66L525,79L496,64L505,52Z" style="fill:rgb(72,118,209);"/>
    </g>
    <g transform="matrix(-1.07143,0,0,1,740,0)">
        <path d="M490,281L490,343L504,343L504,285L490,281Z" style="fill:rgb(72,118,209);"/>
    </g>
    <g transform="matrix(-1,0,0,1,705,0)">
        <path d="M439,299L482.006,345L474,355L427,304L439,299Z" style="fill:rgb(72,118,209);"/>
    </g>
    <g transform="matrix(-1,0,0,1,705,-1.42109e-14)">
        <path d="M537,302L537,296L552,300.5L549,305.5L537,302Z" style="fill:rgb(32,207,177);"/>
    </g>
    <g transform="matrix(-1,0,0,1,705,0)">
        <path d="M555,325L581,372.5L573,385L544.5,332L555,325Z" style="fill:rgb(72,118,209);"/>
    </g>
    <g transform="matrix(-1,0,0,1,705,0)">
        <path d="M600.5,316L593.5,366L604,368L613,319L600.5,316Z" style="fill:rgb(72,118,209);"/>
    </g>
    <g transform="matrix(-1,0,0,1,705,0)">
        <path d="M525,395L549,427L538,434.5L514,402L525,395Z" style="fill:rgb(72,118,209);"/>
    </g>
    <g transform="matrix(-1,0,0,1,705,0)">
        <path d="M413,369L427,369C438.577,369.582 446.761,378.745 447.503,390.5L447.503,419L462,419L462,395C462.655,370.973 448.82,356.173 427,354L413,354L413,369Z" style="fill:rgb(72,118,209);"/>
    </g>
    <g transform="matrix(-1.475,0,0,1.59459,820.975,78.7297)">
        <ellipse cx="481" cy="42.5" rx="20" ry="18.5" style="fill:rgb(72,118,209);"/>
    </g>
    <g transform="matrix(-1.3,0,0,1.40541,733.3,328.77)">
        <ellipse cx="481" cy="42.5" rx="20" ry="18.5" style="fill:rgb(72,118,209);"/>
    </g>
    <g transform="matrix(-1.5,0,0,1.62162,869.5,385.581)">
        <ellipse cx="481" cy="42.5" rx="20" ry="18.5" style="fill:rgb(72,118,209);"/>
    </g>
    <g transform="matrix(-1.25,0,0,1.35135,756.25,21.5676)">
        <ellipse cx="481" cy="42.5" rx="20" ry="18.5" style="fill:rgb(72,118,209);"/>
    </g>
    <g transform="matrix(-1.375,0,0,1.48649,886.875,-20.6757)">
        <ellipse cx="481" cy="42.5" rx="20" ry="18.5" style="fill:rgb(32,207,177);"/>
    </g>
    <g transform="matrix(-1.55,0,0,1.67568,951.55,67.7838)">
        <ellipse cx="481" cy="42.5" rx="20" ry="18.5" style="fill:rgb(32,207,177);"/>
    </g>
    <g transform="matrix(-0.95,0,0,1.02703,611.95,151.351)">
        <ellipse cx="481" cy="42.5" rx="20" ry="18.5" style="fill:rgb(32,207,177);"/>
    </g>
    <g transform="matrix(-0.875,0,0,0.945946,700.875,247.797)">
        <ellipse cx="481" cy="42.5" rx="20" ry="18.5" style="fill:rgb(32,207,177);"/>
    </g>
    <g transform="matrix(-1.7,0,0,1.83784,1020.7,294.392)">
        <ellipse cx="481" cy="42.5" rx="20" ry="18.5" style="fill:rgb(32,207,177);"/>
    </g>
    <g transform="matrix(-0.875,0,0,0.945946,624.875,436.297)">
        <ellipse cx="481" cy="42.5" rx="20" ry="18.5" style="fill:rgb(32,207,177);"/>
    </g>
    <g transform="matrix(-1,0,0,1.08108,728,388.554)">
        <ellipse cx="481" cy="42.5" rx="20" ry="18.5" style="fill:rgb(32,207,177);"/>
    </g>
    <g transform="matrix(-0.875,0,0,0.945946,586.875,277.797)">
        <ellipse cx="481" cy="42.5" rx="20" ry="18.5" style="fill:rgb(32,207,177);"/>
    </g>
    <g transform="matrix(-1.05,0,0,1.13514,586.55,159.757)">
        <ellipse cx="481" cy="42.5" rx="20" ry="18.5" style="fill:rgb(32,207,177);"/>
    </g>
    <g transform="matrix(-1,0,0,1,705,0)">
        <path d="M413,212L617,306L614,321L413,260L413,212Z" style="fill:rgb(32,207,177);"/>
    </g>
    <g transform="matrix(1,0,0,1,-51,0)">
        <path d="M377.832,52.037C377.08,52.206 374.005,52.949 372.954,54C371.752,55.201 370.792,59.208 370.792,59.208L370.792,534L271,565L271,539L351,476C351,476 348.987,465.765 346.649,454.614C341.814,431.547 343,433 343,433L343,201L51,334L59,303L343,164L343,57C342.847,56.9 347.454,30.515 351.838,22.765C354.099,18.769 361,9 361,9C361,9 365.804,3.927 368.637,2.427C371.47,0.927 378,0 378,0L378.286,0.043C379.575,0.241 384.884,1.115 387.363,2.427C390.196,3.927 395,9 395,9C395,9 401.901,18.769 404.162,22.765C408.546,30.515 413.153,56.9 413,57L413,164L697,303L705,334L413,201L413,433C413,433 414.186,431.547 409.351,454.614C407.013,465.765 405,476 405,476L485,539L485,565L385.208,534L385.208,59.208C385.208,59.208 384.248,55.201 383.046,54C381.845,52.799 378,52 378,52L377.832,52.037Z" style="fill:rgb(72,118,209);"/>
    </g>
</svg>
